<svg width="44" height="36" viewBox="0 0 44 36" fill="none" xmlns="http://www.w3.org/2000/svg">
<path d="M42.7288 16.4668C42.6435 16.1041 40.9189 9.08353 36.3185 4.51625C31.5399 -0.226547 22.405 -0.00812921 22.0174 0.00357177C21.0175 -0.0159299 12.2857 -0.0549333 7.68149 4.51625C2.99974 9.16153 1.34484 16.1431 1.27508 16.4395C0.658857 18.9279 0 21.9858 0 23.113C0 24.6224 0.569717 26.8768 1.22082 27.9377C1.61614 28.6983 2.95323 32.7039 3.7051 35.0558L4.0074 35.9997H39.9926L40.2949 35.0558C41.0778 32.6103 42.3877 28.6905 42.721 28.0391C43.407 26.9158 44 24.6224 44 23.1169C44 21.9858 43.345 18.9436 42.7288 16.4707V16.4668ZM3.13926 20.453C3.36017 19.3804 3.63921 18.1557 3.90663 17.0831C3.91826 17.0246 5.48401 10.5188 9.58055 6.45081C13.3632 2.6987 21.0679 2.7104 21.9361 2.726H22.0911C22.4244 2.7182 30.4934 2.56219 34.4156 6.45081C38.4811 10.4876 40.0275 16.8179 40.0934 17.087C40.3763 18.2298 40.6631 19.4935 40.8801 20.5505L40.9227 20.7611C40.4887 21.7479 39.0159 23.2651 35.8457 24.1661C29.6989 25.9173 27.548 24.8759 25.6528 23.9555C24.6064 23.4484 23.5251 22.9258 22.0291 22.9258C20.5331 22.9258 19.4518 23.4484 18.4092 23.9555C17.262 24.5132 16.0218 25.1139 13.8592 25.1139C12.4485 25.1139 10.6425 24.8564 8.21245 24.1661C5.29023 23.3314 3.80199 22.0131 3.2284 21.0146C3.20902 20.9717 3.18964 20.9249 3.17026 20.882L3.08888 20.6714L3.13538 20.4491L3.13926 20.453ZM40.446 26.557C40.2988 26.8144 38.9462 30.625 38.0703 33.1251L38.0199 33.2733H5.98009L5.92971 33.1251C5.05382 30.625 3.70122 26.8105 3.55395 26.5531C3.46481 26.4088 2.97261 25.0398 2.76332 24.4586L2.67806 24.2168L4.20893 25.1217C5.17784 25.6989 6.27464 26.1592 7.55747 26.5258C9.99912 27.22 12.0726 27.5594 13.898 27.5594C16.5993 27.5594 18.1922 26.7871 19.4712 26.167C20.378 25.7262 21.0912 25.3791 22.0368 25.3791C22.9825 25.3791 23.6956 25.7262 24.6025 26.167C25.8814 26.7871 27.4743 27.5594 30.1756 27.5594C32.0011 27.5594 34.0745 27.22 36.5162 26.5258C37.7602 26.1709 38.8299 25.7262 39.7872 25.1685L41.3529 24.1934L41.2367 24.5171C41.0313 25.0827 40.5429 26.4127 40.4538 26.5609L40.446 26.557Z" fill="#121212"/>
<path d="M22.0329 26.8108C20.7269 26.8108 19.6611 27.8795 19.6611 29.1978C19.6611 30.5161 20.723 31.5848 22.0329 31.5848C23.3429 31.5848 24.4048 30.5161 24.4048 29.1978C24.4048 27.8795 23.3429 26.8108 22.0329 26.8108Z" fill="#121212"/>
</svg>
