<svg width="44" height="59" viewBox="0 0 44 59" fill="none" xmlns="http://www.w3.org/2000/svg">
<path d="M34.6499 49.9682C31.1232 53.4949 26.4771 55.2582 21.8409 55.2582C17.2047 55.2582 12.5585 53.4949 9.03184 49.9583C3.42478 44.3512 2.10723 35.8515 5.76271 28.8179L21.8508 5.19098L37.9191 28.7981C41.6142 35.8713 40.2966 44.3611 34.6598 49.9682M41.1783 26.9753C41.1486 26.9158 41.1089 26.8564 41.0693 26.797L23.3863 0.832142C23.1089 0.416071 22.6928 0.128784 22.2074 0.0396258C22.0786 0.00990645 21.9598 0 21.831 0C21.4644 0 21.1177 0.108971 20.8007 0.317007C20.5927 0.455697 20.4144 0.634013 20.2757 0.842049L2.63227 26.797C2.59264 26.8564 2.56292 26.9158 2.5233 26.9753C-0.191071 32.1365 -0.735926 38.0507 0.987797 43.6181C2.72143 49.1955 6.50569 53.7524 11.667 56.4767C16.8282 59.1911 22.7424 59.7359 28.3098 58.0122C33.8871 56.2786 38.454 52.4943 41.1684 47.3231C44.5267 40.9533 44.5267 33.3451 41.1684 26.9753" fill="#6A6A6A"/>
<path d="M10.5671 43.8359H14.0938V38.209H20.9392V35.3362H14.0938V30.9674H21.811V27.936H10.5671V43.8359Z" fill="#6A6A6A"/>
<path d="M26.2588 36.3962C26.2588 35.2371 27.1701 34.4545 28.5471 34.4545C29.9241 34.4545 30.7959 35.2173 30.7959 36.3466V36.5646H26.2588V36.3863V36.3962ZM28.6165 41.5178C27.2197 41.5178 26.2588 40.6659 26.2588 39.378V38.744H34.0155C34.0849 38.1991 34.1047 37.7137 34.1047 37.3274C34.1047 35.6433 33.5994 34.3356 32.5791 33.3846C31.5785 32.4039 30.2411 31.9185 28.5868 31.9185C26.8432 31.9185 25.4464 32.4633 24.4062 33.5332C23.376 34.6031 22.8608 36.0792 22.8608 37.9812C22.8608 39.8832 23.3661 41.3197 24.3864 42.4094C25.4167 43.4991 26.8333 44.044 28.6363 44.044C30.0926 44.044 31.3408 43.6972 32.3413 42.9939C33.3419 42.2707 33.9561 41.3395 34.1938 40.1606H30.895C30.6374 40.9631 29.7656 41.5079 28.6066 41.5079" fill="#6A6A6A"/>
</svg>
