<svg width="45" height="26" viewBox="0 0 45 26" fill="none" xmlns="http://www.w3.org/2000/svg">
<path d="M0.21392 20.8752C0.272428 21.8017 0.340078 22.8863 0.41687 24.1743C0.460751 24.9373 1.03303 25.6512 1.83752 25.951C1.89968 25.9746 1.9655 25.9873 2.03133 25.9909L2.16297 25.9982H42.9833C43.0729 25.9982 43.1479 25.9855 43.2228 25.9582C43.9907 25.6712 44.5374 24.9554 44.585 24.1743C44.6581 22.9171 44.7257 21.8526 44.7824 20.9424L44.7971 20.7063C44.925 18.7025 45.0018 17.4908 45.0018 16.5352C45.0018 15.1455 44.02 12.9818 43.5976 12.1153L43.4934 11.9046L43.8573 10.6093L43.881 10.5766C43.881 10.5766 43.892 10.5602 43.8975 10.5511C43.9505 10.4785 43.9981 10.3985 44.0438 10.3059C44.0566 10.2805 44.0694 10.2568 44.0803 10.2314C44.1169 10.1515 44.148 10.0661 44.1717 9.9789C44.1791 9.95347 44.1845 9.92985 44.19 9.90442C44.2138 9.80087 44.2284 9.70822 44.2357 9.62102V9.57015C44.2431 9.45025 44.2412 9.34852 44.2284 9.25405L43.4294 2.71227C43.4185 2.62325 43.4038 2.53242 43.3837 2.43977C43.3746 2.3998 43.3654 2.36347 43.3545 2.32532L43.3307 2.23449C43.327 2.21814 43.3216 2.19997 43.3161 2.18362C43.2941 2.11277 43.2685 2.04374 43.2429 1.97471L43.2338 1.94927C43.1991 1.86207 43.1661 1.78759 43.1296 1.71492L43.1204 1.69494C42.7676 0.995528 42.1733 0.461431 41.442 0.190749L41.4255 0.185299C41.3487 0.158049 41.2738 0.132616 41.1952 0.110816L41.1476 0.0999162C41.08 0.0817496 41.0087 0.063583 40.9373 0.0508664C40.9154 0.0490498 40.9026 0.0472331 40.8898 0.0435998C40.7125 0.0145333 40.5461 0 40.3834 0H4.61848C3.06984 0 1.76073 1.16629 1.57058 2.71045L0.771575 9.25224C0.760605 9.3467 0.756948 9.44844 0.762433 9.56652V9.62102C0.771575 9.7064 0.786202 9.79723 0.808142 9.89533C0.815456 9.9244 0.820941 9.95165 0.828255 9.9789C0.852023 10.0643 0.883106 10.1478 0.919673 10.2296C0.930644 10.255 0.943442 10.2786 0.956241 10.3041C1.00195 10.3967 1.04949 10.4767 1.10251 10.5493L1.11897 10.5748L1.13908 10.6111L1.21039 10.7728L1.49927 11.8773L1.39688 12.0844C1.23233 12.4205 1.05132 12.8619 0.822769 13.4196C0.268771 14.7658 0 15.7831 0 16.5334C0 17.5071 0.0786202 18.7479 0.208435 20.8062L0.212092 20.8752H0.21392ZM18.4977 24.7102H5.19625L5.04632 18.3301C5.04632 18.2937 5.04083 18.2574 5.03352 18.2193C5.02804 18.1938 4.89822 17.5435 4.40273 15.745L4.29486 15.3508C4.19247 14.9765 4.1047 14.655 4.01511 14.3461C3.9237 14.0082 4.00414 13.4814 4.17601 12.6839C4.22538 12.455 4.27109 12.2352 4.29486 12.0699C4.30583 11.9845 4.30217 11.9009 4.28023 11.8192L4.16139 11.3686L18.494 11.801V24.7084L18.4977 24.7102ZM40.9904 14.8911C40.8971 15.2127 40.8094 15.5306 40.707 15.9067L40.5991 16.3009C40.1054 18.0994 39.9738 18.7497 39.9683 18.777C39.961 18.8133 39.9573 18.8478 39.9573 18.8805L39.7946 24.712H19.794V11.8428L22.5256 11.9245L40.9812 11.3668L40.7179 12.3769C40.696 12.4586 40.6923 12.5422 40.7033 12.6258C40.7271 12.7911 40.7728 13.0091 40.8222 13.238C40.994 14.0373 41.0763 14.5641 40.9885 14.8911H40.9904ZM43.7037 16.5352C43.7037 17.4581 43.6269 18.6643 43.5007 20.6627C43.4404 21.6237 43.3673 22.7518 43.2905 24.0871L43.2502 24.712H41.0928L41.2555 18.9823C41.3067 18.7316 41.4511 18.0921 41.8497 16.6406L41.9576 16.2446C42.0581 15.8776 42.1441 15.5651 42.2318 15.2599C42.3397 14.8857 42.3031 14.1518 42.2794 13.8992L42.0929 11.9227L42.8754 13.7485C43.285 14.7022 43.7019 15.7795 43.7019 16.5334L43.7037 16.5352ZM2.85775 2.86669C2.96746 1.96744 3.7244 1.28983 4.61665 1.28983H40.3815C40.4711 1.28983 40.5534 1.30073 40.6357 1.31344C40.6832 1.32071 40.7307 1.32979 40.7783 1.34069C40.8313 1.35341 40.8843 1.36794 40.9355 1.38611C40.9867 1.40246 41.0343 1.42063 41.08 1.44061C41.1238 1.46059 41.1659 1.48239 41.2098 1.50419C41.261 1.53144 41.3103 1.55869 41.356 1.59139C41.3853 1.61138 41.4127 1.63318 41.442 1.65497C41.5041 1.70402 41.5517 1.74217 41.5974 1.78396C41.6175 1.80394 41.6376 1.82574 41.6577 1.84754L41.6724 1.86389C41.7162 1.91112 41.7601 1.96017 41.7985 2.01286C41.815 2.03647 41.8314 2.06009 41.8461 2.08552L41.8589 2.10551C41.8991 2.16546 41.9302 2.21632 41.9576 2.27082C41.974 2.30534 41.9887 2.33985 42.0033 2.37619L42.0252 2.43069C42.0435 2.47247 42.06 2.51244 42.0728 2.55604C42.0984 2.6396 42.1185 2.73044 42.1313 2.8249C42.1349 2.83762 42.1368 2.85215 42.1386 2.86487V2.88304L42.9705 9.68642L42.7822 9.8699C42.7676 9.8917 42.7548 9.90805 42.742 9.92258L42.6524 10.0261L22.5055 10.6329H22.4963L2.33301 10.0243L2.01853 9.71367L2.85775 2.86669ZM2.08801 13.7503L2.74622 12.1789L2.68588 13.8793C2.67491 14.1972 2.70234 14.4679 2.77182 14.7058C2.85958 15.0092 2.94551 15.3235 3.04608 15.6905L3.15395 16.0865C3.52877 17.4526 3.68784 18.1302 3.73903 18.3591L3.74634 18.4191L3.89993 24.7102H1.74793L1.71319 24.0998C1.64188 22.8844 1.57606 21.8471 1.52121 20.9551L1.50658 20.7244C1.37677 18.6825 1.29998 17.4599 1.29998 16.5316C1.29998 15.7904 1.72964 14.6077 2.08983 13.7485L2.08801 13.7503Z" fill="#121212"/>
</svg>
