<svg width="45" height="47" viewBox="0 0 45 47" fill="none" xmlns="http://www.w3.org/2000/svg">
<path d="M42.4143 43.2619C43.1655 42.9692 43.6815 42.2444 43.729 41.4155C44.1103 34.6091 45 18.6295 45 17.2368C45 15.8441 44.023 13.54 43.6019 12.6423L43.4956 12.4144L43.8561 11.0787L43.894 11.0257C43.949 10.9451 43.9984 10.8587 44.0458 10.7585C44.0591 10.729 44.0685 10.7094 44.078 10.6878C44.116 10.6014 44.1463 10.511 44.171 10.4167C44.1786 10.3892 44.1843 10.3637 44.19 10.3362C44.2127 10.2321 44.2279 10.1358 44.2355 10.0415V9.98851C44.2431 9.86475 44.2393 9.75672 44.2279 9.65654L43.4292 2.84628C43.4179 2.75396 43.4027 2.65771 43.3837 2.56146C43.3761 2.52217 43.3666 2.48485 43.3553 2.44753L43.3306 2.34931C43.3268 2.32967 43.3211 2.31003 43.3154 2.29235C43.2945 2.2177 43.268 2.14895 43.2433 2.07824L43.2338 2.04877C43.1978 1.95449 43.1637 1.87591 43.1257 1.79734C42.8127 1.14323 42.2948 0.616793 41.6688 0.308396C41.5834 0.267146 41.5094 0.233753 41.4316 0.204288L41.388 0.188574C41.3197 0.163038 41.2514 0.139466 41.1831 0.119823C41.1698 0.115894 41.1566 0.11393 41.1452 0.110001L41.0693 0.0903582C41.0219 0.0785723 40.9726 0.0648222 40.9232 0.0550006C40.8701 0.0451791 40.817 0.0373218 40.7639 0.0314289L40.7411 0.0275003C40.5969 0.00982154 40.4774 0 40.3655 0H4.6383C3.07892 0 1.75857 1.22376 1.57076 2.84432L0.772106 9.65457C0.760723 9.75279 0.756929 9.86083 0.76262 9.98458V10.0396C0.770209 10.1319 0.785385 10.2282 0.810047 10.3323C0.815738 10.3598 0.821429 10.3873 0.829017 10.4128C0.853679 10.5051 0.885929 10.5974 0.921973 10.6839C0.929561 10.7035 0.939046 10.7232 0.948532 10.7428C1.00165 10.8528 1.05097 10.9392 1.10219 11.0178L1.13824 11.0826L1.21032 11.2555L1.50057 12.4144L1.39624 12.6384C0.976987 13.538 -0.00189209 15.7852 -0.00189209 17.2329C-0.00189209 18.6806 0.971296 36.1059 1.26913 41.4115C1.31466 42.2405 1.83066 42.9673 2.58379 43.258L2.838 43.3562C3.14152 43.4741 3.63666 43.421 3.98192 43.37L4.06729 43.3582C4.13368 43.3483 4.19249 43.3405 4.22854 43.3366H4.2532L8.51777 43.3346L8.40585 43.7589C8.33376 44.0319 8.29582 44.3167 8.29582 44.6035C8.29582 45.9452 9.05274 46.9961 10.0202 46.9961H12.0254C12.991 46.9961 13.7479 45.9452 13.7479 44.6035C13.7479 44.3167 13.7119 44.0319 13.6379 43.7569L13.526 43.3346H21.5581C21.8351 43.3405 23.2161 43.3405 23.4134 43.3326H30.368L30.2561 43.7569C30.1821 44.0319 30.1461 44.3167 30.1461 44.6035C30.1461 45.9452 30.903 46.9961 31.8686 46.9961H33.8738C34.8394 46.9961 35.5963 45.9452 35.5963 44.6035C35.5963 44.3167 35.5584 44.0319 35.4863 43.7589L35.3744 43.3346H40.4964V43.2914L41.0465 43.3621C41.5113 43.4328 41.8566 43.4741 42.1582 43.3582L42.4124 43.26L42.4143 43.2619ZM2.90439 3.01128C3.01253 2.08806 3.75807 1.39269 4.6364 1.39269C17.6255 1.39269 38.8403 1.39859 40.4698 1.40252H40.4926C40.523 1.40644 40.5533 1.40841 40.5818 1.41234C40.8777 1.45948 41.149 1.57537 41.3747 1.74431C41.4487 1.79931 41.5151 1.85824 41.5815 1.92699C41.5967 1.9427 41.6081 1.95645 41.6194 1.96824C41.6783 2.03306 41.7219 2.08806 41.7617 2.14502C41.7845 2.17645 41.8035 2.20788 41.8224 2.24128L41.5568 2.43378L41.8357 2.26681C41.8623 2.31199 41.8888 2.35717 41.9135 2.40431C41.9401 2.45931 41.9609 2.51628 41.9818 2.57521L41.9932 2.60467C42.0046 2.63414 42.0159 2.66557 42.0254 2.69699C42.0577 2.807 42.0785 2.9111 42.0899 3.01325L42.9322 10.2085L42.6818 10.2949C42.6059 10.3205 42.2151 10.4521 41.9894 10.458L22.5047 11.0708H22.4953L2.60086 10.4462L2.0621 10.1732L2.90439 3.01128ZM4.22095 41.9498C4.11092 41.9537 3.9914 41.9655 3.82067 41.989C3.72392 42.0048 3.58164 42.0244 3.47541 42.0342L3.30467 42.0519L2.63691 41.7474L2.61414 41.333C2.02795 30.9221 1.34502 18.3624 1.34502 17.2348C1.34502 16.3313 1.94259 14.7853 2.29923 13.9446L2.94613 12.4203L2.91957 14.0841C2.91388 14.4023 2.94423 14.6695 3.00873 14.9032C3.09979 15.2273 3.18705 15.5612 3.28949 15.9502L3.40711 16.3961C3.7979 17.8811 3.96105 18.6099 4.01417 18.8534L4.02176 18.9182L4.54345 41.936L4.22474 41.9478L4.22095 41.9498ZM21.8275 41.9399L5.88656 41.9458L5.3478 18.657C5.29089 18.384 5.11636 17.5982 4.7028 16.0327L4.59087 15.6064C4.48464 15.2018 4.39358 14.8561 4.30062 14.5202C4.20577 14.1548 4.28924 13.5852 4.46946 12.7209C4.5112 12.5205 4.54534 12.3437 4.57001 12.1866L4.61743 11.8998L16.6846 12.2789L17.0242 19.8788C17.0735 20.9238 17.9044 21.7449 18.9174 21.7449H21.8275V41.9399ZM18.3919 20.3502L18.0353 12.3221L22.4953 12.4635L26.9666 12.3221L26.61 20.3502H18.3938H18.3919ZM40.2972 16.0307C39.8343 17.7829 39.6788 18.5372 39.6484 18.6806L39.1134 41.9419L23.1725 41.938V21.741H26.0826C27.0956 21.741 27.9265 20.9199 27.9758 19.8709L28.3135 12.2769L40.3807 11.8978L40.4281 12.1846C40.4547 12.3417 40.4869 12.5185 40.5286 12.7169C40.707 13.5812 40.7942 14.1509 40.7013 14.5044C40.6045 14.8502 40.5135 15.1959 40.4072 15.6025L40.2953 16.0288L40.2972 16.0307ZM41.5587 42.0303C41.481 42.0224 41.4013 42.0107 41.3254 41.9969L41.2078 41.9792C41.0883 41.9615 40.9403 41.9399 40.8929 41.9419H40.7904H40.4604L40.9801 18.9261C41.0333 18.6491 41.185 17.9518 41.5948 16.3961L41.72 15.9188C41.8205 15.5337 41.9059 15.2155 41.9913 14.9032C42.0558 14.6695 42.0861 14.4023 42.0804 14.0841L42.0539 12.4203L42.7008 13.9446C43.0574 14.7853 43.655 16.3313 43.655 17.2348C43.655 18.3722 42.9853 30.6432 42.365 41.3605L42.3403 41.8005L41.7105 42.044L41.5606 42.0283L41.5587 42.0303Z" fill="#121212"/>
</svg>
