<svg width="37" height="23" viewBox="0 0 37 23" fill="none" xmlns="http://www.w3.org/2000/svg">
<path d="M30.6326 7.96817L29.7215 4.96179L29.6185 4.64404H7.49985L7.4072 4.96179L6.50124 7.96817L6.388 8.35924H30.751C30.751 8.35924 30.751 8.35924 30.6326 7.96817Z" fill="#121212"/>
<path d="M36.9022 9.77182L34.0454 2.00901C33.9321 1.74993 33.4637 0.81135 32.285 0.332285C31.5386 0.0292028 30.854 0.00476074 30.7253 0.00476074H6.26965C6.09978 0.00476074 5.22471 0.0292028 4.42171 0.46916C3.57752 0.93356 3.08337 1.77437 2.99586 1.94057C2.96497 1.99435 2.93924 2.04812 2.91865 2.10678L0.0926862 9.79137C0.0412115 9.93802 -0.041148 10.2509 0.0206216 10.6664L1.76561 21.5285C1.77591 21.6018 1.7965 21.6751 1.82224 21.7435C1.89945 21.9586 2.24433 22.6772 3.36648 22.8923C3.89152 22.995 4.30331 22.9999 4.41656 22.9999H32.46C32.8357 23.0096 33.2424 22.9657 33.6336 22.8923C34.5292 22.7212 35.0183 22.1786 35.183 21.7289C35.2087 21.6604 35.2242 21.5871 35.2396 21.5138L36.9846 10.6615C37.0464 10.2753 36.9846 9.96247 36.9125 9.76693L36.9022 9.77182ZM5.33796 3.10891C5.39973 2.86937 5.65195 2.49785 6.27479 2.49785H31.4408L34.3594 10.422L34.3388 10.5686H2.66642L2.64583 10.4366L5.33796 3.11379V3.10891ZM32.7379 20.5019H4.26213L3.06792 13.0617H33.9321L32.7379 20.5019Z" fill="#121212"/>
<path d="M19.8177 15.1687H17.1874V18.6053H19.8177V15.1687Z" fill="#121212"/>
</svg>
