<svg width="70" height="61" viewBox="0 0 70 61" fill="none" xmlns="http://www.w3.org/2000/svg">
<path d="M61.5144 29.9753L35 56.1974L8.48556 29.9753C5.60611 27.1379 3.94896 23.1959 3.96071 19.1724C4.00772 10.7883 10.9302 3.93914 19.404 3.90426H19.4627C23.5057 3.90426 27.4664 5.53224 30.3224 8.38121L33.5779 11.5907C34.3536 12.3698 35.6229 12.3698 36.4221 11.5907L39.6776 8.38121C42.6629 5.56712 46.6001 4.07868 50.7018 4.14845C54.8271 4.24148 58.6585 5.91598 61.5144 8.86961C67.2263 14.7885 67.2263 24.0564 61.5144 29.9753ZM64.3704 5.5555C56.7898 -1.85183 44.4493 -1.85183 36.8805 5.5555L35.0118 7.36954L33.1783 5.56712C25.586 -1.85183 13.2572 -1.85183 5.67663 5.5555C-1.89221 13.0559 -1.89221 25.2541 5.67663 32.7545L33.5779 60.4302C33.9657 60.8139 34.4829 61 35 61C35.5171 61 36.0225 60.8023 36.4221 60.4302L64.3586 32.7894C71.8805 25.2774 71.8805 13.0559 64.3586 5.5555" fill="#6A6A6A"/>
</svg>
