<svg width="59" height="59" viewBox="0 0 59 59" fill="none" xmlns="http://www.w3.org/2000/svg">
<path d="M29.5 49.7271C25.5454 49.7271 21.5558 49.4174 17.6426 48.8055C17.4886 48.8001 17.2646 48.7673 17.0248 48.6515C16.449 48.3756 16.1059 47.7878 16.1523 47.1546C16.5916 41.082 16.8937 34.911 17.0499 28.8127C17.1963 23.0979 17.2171 17.2919 17.1122 11.5558C17.098 10.7746 17.6771 10.1054 18.4588 9.99939C22.0403 9.51646 25.6863 9.27172 29.2957 9.27172V9.27063H29.7054C33.3142 9.27063 36.9602 9.51537 40.5412 9.9983C41.324 10.1043 41.9026 10.7735 41.8878 11.5552C41.7829 17.2914 41.8037 23.0979 41.9501 28.8127C42.1063 34.9105 42.4084 41.0815 42.8477 47.1546C42.8941 47.7878 42.551 48.3756 41.9747 48.6515C41.7354 48.7673 41.5114 48.8001 41.3574 48.8055C37.4437 49.4169 33.4541 49.7271 29.5 49.7271ZM29.2957 10.0917C25.7229 10.0917 22.1141 10.3343 18.5686 10.8117C18.1988 10.862 17.9251 11.1756 17.9316 11.541C18.0365 17.2892 18.0158 23.1072 17.8694 28.834C17.7126 34.9449 17.4099 41.129 16.9696 47.2142C16.9483 47.5092 17.1095 47.7834 17.3804 47.9134C17.5033 47.973 17.6137 47.9861 17.6853 47.9872H17.7142L17.7426 47.9921C21.6224 48.5996 25.5781 48.9077 29.4995 48.9077C33.4208 48.9077 37.376 48.5996 41.2563 47.9921L41.2847 47.9877H41.3137C41.3852 47.9861 41.4961 47.9724 41.6185 47.9134C41.8906 47.7829 42.0512 47.5086 42.0299 47.2142C41.5895 41.1284 41.2869 34.9444 41.1301 28.834C40.9837 23.1072 40.9624 17.2892 41.0678 11.5405C41.0749 11.175 40.8012 10.8614 40.4308 10.8112C36.8859 10.3332 33.2771 10.0912 29.7049 10.0912V10.0103V10.0923H29.2951L29.2957 10.0917Z" fill="black"/>
<path d="M39.878 12.2687C39.8763 12.1054 39.7545 11.9682 39.5923 11.9475C36.6204 11.5662 33.2328 11.3029 29.5 11.3029C25.7672 11.3029 22.379 11.5662 19.4072 11.9475C19.2449 11.9682 19.1231 12.1054 19.1215 12.2687C19.1133 13.1543 19.1138 14.0502 19.1247 14.957C19.1657 18.4823 19.352 21.8573 19.647 25.0712C19.6628 25.2394 19.8043 25.3683 19.9737 25.3683H39.0258C39.1951 25.3683 39.3372 25.2394 39.3525 25.0712C39.6475 21.8573 39.8337 18.4823 39.8753 14.957C39.8862 14.0502 39.8867 13.1543 39.878 12.2687ZM37.6174 22.7123H21.382V13.4788H37.6174V22.7123Z" fill="black"/>
<path d="M27.6284 29.0078C28.4981 29.0078 29.2028 29.7131 29.2028 30.5822C29.2028 31.4514 28.4976 32.1567 27.6284 32.1567C26.7592 32.1567 26.054 31.4514 26.054 30.5822C26.054 29.7131 26.7592 29.0078 27.6284 29.0078Z" fill="black"/>
<path d="M27.6284 28.8396C26.6669 28.8396 25.8852 29.6214 25.8852 30.5828C25.8852 31.5443 26.6669 32.3261 27.6284 32.3261C28.5899 32.3261 29.3716 31.5443 29.3716 30.5828C29.3716 29.6214 28.5899 28.8396 27.6284 28.8396Z" fill="black"/>
<path d="M31.3716 29.0078C32.2413 29.0078 32.946 29.7131 32.946 30.5822C32.946 31.4514 32.2408 32.1567 31.3716 32.1567C30.5024 32.1567 29.7972 31.4514 29.7972 30.5822C29.7972 29.7131 30.5024 29.0078 31.3716 29.0078Z" fill="black"/>
<path d="M31.3716 28.8396C30.4101 28.8396 29.6284 29.6214 29.6284 30.5828C29.6284 31.5443 30.4101 32.3261 31.3716 32.3261C32.3331 32.3261 33.1149 31.5443 33.1149 30.5828C33.1149 29.6214 32.3331 28.8396 31.3716 28.8396Z" fill="black"/>
<path d="M29.5 32.3779C30.3697 32.3779 31.0744 33.0832 31.0744 33.9524C31.0744 34.8215 30.3692 35.5268 29.5 35.5268C28.6309 35.5268 27.9256 34.8215 27.9256 33.9524C27.9256 33.0832 28.6309 32.3779 29.5 32.3779Z" fill="black"/>
<path d="M29.5 32.2097C28.5385 32.2097 27.7568 32.9915 27.7568 33.953C27.7568 34.9144 28.5385 35.6962 29.5 35.6962C30.4615 35.6962 31.2432 34.9144 31.2432 33.953C31.2432 32.9915 30.4615 32.2097 29.5 32.2097Z" fill="black"/>
<path d="M20.1026 29.0581C20.5954 29.0581 20.9953 29.458 20.9953 29.9508C20.9953 30.4435 20.5954 30.8434 20.1026 30.8434C19.6098 30.8434 19.21 30.4435 19.21 29.9508C19.21 29.458 19.6098 29.0581 20.1026 29.0581ZM20.1026 28.8396C19.4897 28.8396 18.9914 29.3378 18.9914 29.9508C18.9914 30.5637 19.4897 31.0619 20.1026 31.0619C20.7156 31.0619 21.2138 30.5637 21.2138 29.9508C21.2138 29.3378 20.7156 28.8396 20.1026 28.8396Z" fill="black"/>
<path d="M23.5896 29.0581C24.0824 29.0581 24.4823 29.458 24.4823 29.9508C24.4823 30.4435 24.0824 30.8434 23.5896 30.8434C23.0969 30.8434 22.697 30.4435 22.697 29.9508C22.697 29.458 23.0969 29.0581 23.5896 29.0581ZM23.5896 28.8396C22.9767 28.8396 22.4785 29.3378 22.4785 29.9508C22.4785 30.5637 22.9767 31.0619 23.5896 31.0619C24.2026 31.0619 24.7008 30.5637 24.7008 29.9508C24.7008 29.3378 24.2026 28.8396 23.5896 28.8396Z" fill="black"/>
<path d="M20.1026 33.8421C20.5954 33.8421 20.9953 34.2419 20.9953 34.7347C20.9953 35.2275 20.5954 35.6273 20.1026 35.6273C19.6098 35.6273 19.21 35.2275 19.21 34.7347C19.21 34.2419 19.6098 33.8421 20.1026 33.8421ZM20.1026 33.6235C19.4897 33.6235 18.9914 34.1218 18.9914 34.7347C18.9914 35.3476 19.4897 35.8459 20.1026 35.8459C20.7156 35.8459 21.2138 35.3476 21.2138 34.7347C21.2138 34.1218 20.7156 33.6235 20.1026 33.6235Z" fill="black"/>
<path d="M23.5896 33.8421C24.0824 33.8421 24.4823 34.2419 24.4823 34.7347C24.4823 35.2275 24.0824 35.6273 23.5896 35.6273C23.0969 35.6273 22.697 35.2275 22.697 34.7347C22.697 34.2419 23.0969 33.8421 23.5896 33.8421ZM23.5896 33.6235C22.9767 33.6235 22.4785 34.1218 22.4785 34.7347C22.4785 35.3476 22.9767 35.8459 23.5896 35.8459C24.2026 35.8459 24.7008 35.3476 24.7008 34.7347C24.7008 34.1218 24.2026 33.6235 23.5896 33.6235Z" fill="black"/>
<path d="M20.1026 38.626C20.5954 38.626 20.9953 39.0259 20.9953 39.5186C20.9953 40.0114 20.5954 40.4113 20.1026 40.4113C19.6098 40.4113 19.21 40.0114 19.21 39.5186C19.21 39.0259 19.6098 38.626 20.1026 38.626ZM20.1026 38.4075C19.4897 38.4075 18.9914 38.9057 18.9914 39.5186C18.9914 40.1316 19.4897 40.6298 20.1026 40.6298C20.7156 40.6298 21.2138 40.1316 21.2138 39.5186C21.2138 38.9057 20.7156 38.4075 20.1026 38.4075Z" fill="black"/>
<path d="M23.5896 38.626C24.0824 38.626 24.4823 39.0259 24.4823 39.5186C24.4823 40.0114 24.0824 40.4113 23.5896 40.4113C23.0969 40.4113 22.697 40.0114 22.697 39.5186C22.697 39.0259 23.0969 38.626 23.5896 38.626ZM23.5896 38.4075C22.9767 38.4075 22.4785 38.9057 22.4785 39.5186C22.4785 40.1316 22.9767 40.6298 23.5896 40.6298C24.2026 40.6298 24.7008 40.1316 24.7008 39.5186C24.7008 38.9057 24.2026 38.4075 23.5896 38.4075Z" fill="black"/>
<path d="M27.7568 38.626C28.2495 38.626 28.6494 39.0259 28.6494 39.5186C28.6494 40.0114 28.2495 40.4113 27.7568 40.4113C27.264 40.4113 26.8641 40.0114 26.8641 39.5186C26.8641 39.0259 27.264 38.626 27.7568 38.626ZM27.7568 38.4075C27.1438 38.4075 26.6456 38.9057 26.6456 39.5186C26.6456 40.1316 27.1438 40.6298 27.7568 40.6298C28.3697 40.6298 28.8679 40.1316 28.8679 39.5186C28.8679 38.9057 28.3697 38.4075 27.7568 38.4075Z" fill="black"/>
<path d="M31.2432 38.626C31.736 38.626 32.1359 39.0259 32.1359 39.5186C32.1359 40.0114 31.736 40.4113 31.2432 40.4113C30.7505 40.4113 30.3506 40.0114 30.3506 39.5186C30.3506 39.0259 30.7505 38.626 31.2432 38.626ZM31.2432 38.4075C30.6303 38.4075 30.1321 38.9057 30.1321 39.5186C30.1321 40.1316 30.6303 40.6298 31.2432 40.6298C31.8562 40.6298 32.3544 40.1316 32.3544 39.5186C32.3544 38.9057 31.8562 38.4075 31.2432 38.4075Z" fill="black"/>
<path d="M27.7568 43.7512C28.2495 43.7512 28.6494 44.1511 28.6494 44.6439C28.6494 45.1366 28.2495 45.5365 27.7568 45.5365C27.264 45.5365 26.8641 45.1366 26.8641 44.6439C26.8641 44.1511 27.264 43.7512 27.7568 43.7512ZM27.7568 43.5327C27.1438 43.5327 26.6456 44.0309 26.6456 44.6439C26.6456 45.2568 27.1438 45.755 27.7568 45.755C28.3697 45.755 28.8679 45.2568 28.8679 44.6439C28.8679 44.0309 28.3697 43.5327 27.7568 43.5327Z" fill="black"/>
<path d="M31.2432 43.7512C31.736 43.7512 32.1359 44.1511 32.1359 44.6439C32.1359 45.1366 31.736 45.5365 31.2432 45.5365C30.7505 45.5365 30.3506 45.1366 30.3506 44.6439C30.3506 44.1511 30.7505 43.7512 31.2432 43.7512ZM31.2432 43.5327C30.6303 43.5327 30.1321 44.0309 30.1321 44.6439C30.1321 45.2568 30.6303 45.755 31.2432 45.755C31.8562 45.755 32.3544 45.2568 32.3544 44.6439C32.3544 44.0309 31.8562 43.5327 31.2432 43.5327Z" fill="black"/>
<path d="M35.4104 29.0581C35.9031 29.0581 36.303 29.458 36.303 29.9508C36.303 30.4435 35.9031 30.8434 35.4104 30.8434C34.9176 30.8434 34.5177 30.4435 34.5177 29.9508C34.5177 29.458 34.9176 29.0581 35.4104 29.0581ZM35.4104 28.8396C34.7974 28.8396 34.2992 29.3378 34.2992 29.9508C34.2992 30.5637 34.7974 31.0619 35.4104 31.0619C36.0233 31.0619 36.5215 30.5637 36.5215 29.9508C36.5215 29.3378 36.0233 28.8396 35.4104 28.8396Z" fill="black"/>
<path d="M38.8974 29.0581C39.3901 29.0581 39.79 29.458 39.79 29.9508C39.79 30.4435 39.3901 30.8434 38.8974 30.8434C38.4046 30.8434 38.0047 30.4435 38.0047 29.9508C38.0047 29.458 38.4046 29.0581 38.8974 29.0581ZM38.8974 28.8396C38.2844 28.8396 37.7862 29.3378 37.7862 29.9508C37.7862 30.5637 38.2844 31.0619 38.8974 31.0619C39.5103 31.0619 40.0085 30.5637 40.0085 29.9508C40.0085 29.3378 39.5103 28.8396 38.8974 28.8396Z" fill="black"/>
<path d="M35.4104 33.8421C35.9031 33.8421 36.303 34.2419 36.303 34.7347C36.303 35.2275 35.9031 35.6273 35.4104 35.6273C34.9176 35.6273 34.5177 35.2275 34.5177 34.7347C34.5177 34.2419 34.9176 33.8421 35.4104 33.8421ZM35.4104 33.6235C34.7974 33.6235 34.2992 34.1218 34.2992 34.7347C34.2992 35.3476 34.7974 35.8459 35.4104 35.8459C36.0233 35.8459 36.5215 35.3476 36.5215 34.7347C36.5215 34.1218 36.0233 33.6235 35.4104 33.6235Z" fill="black"/>
<path d="M38.8974 33.8421C39.3901 33.8421 39.79 34.2419 39.79 34.7347C39.79 35.2275 39.3901 35.6273 38.8974 35.6273C38.4046 35.6273 38.0047 35.2275 38.0047 34.7347C38.0047 34.2419 38.4046 33.8421 38.8974 33.8421ZM38.8974 33.6235C38.2844 33.6235 37.7862 34.1218 37.7862 34.7347C37.7862 35.3476 38.2844 35.8459 38.8974 35.8459C39.5103 35.8459 40.0085 35.3476 40.0085 34.7347C40.0085 34.1218 39.5103 33.6235 38.8974 33.6235Z" fill="black"/>
<path d="M35.4104 38.626C35.9031 38.626 36.303 39.0259 36.303 39.5186C36.303 40.0114 35.9031 40.4113 35.4104 40.4113C34.9176 40.4113 34.5177 40.0114 34.5177 39.5186C34.5177 39.0259 34.9176 38.626 35.4104 38.626ZM35.4104 38.4075C34.7974 38.4075 34.2992 38.9057 34.2992 39.5186C34.2992 40.1316 34.7974 40.6298 35.4104 40.6298C36.0233 40.6298 36.5215 40.1316 36.5215 39.5186C36.5215 38.9057 36.0233 38.4075 35.4104 38.4075Z" fill="black"/>
<path d="M38.8974 38.626C39.3901 38.626 39.79 39.0259 39.79 39.5186C39.79 40.0114 39.3901 40.4113 38.8974 40.4113C38.4046 40.4113 38.0047 40.0114 38.0047 39.5186C38.0047 39.0259 38.4046 38.626 38.8974 38.626ZM38.8974 38.4075C38.2844 38.4075 37.7862 38.9057 37.7862 39.5186C37.7862 40.1316 38.2844 40.6298 38.8974 40.6298C39.5103 40.6298 40.0085 40.1316 40.0085 39.5186C40.0085 38.9057 39.5103 38.4075 38.8974 38.4075Z" fill="black"/>
</svg>
