<svg width="71" height="55" viewBox="0 0 71 55" fill="none" xmlns="http://www.w3.org/2000/svg">
<path d="M35.0722 25.6286C34.9173 25.6286 34.7624 25.6524 34.6074 25.6882C31.3541 25.8431 28.7561 28.5371 28.7561 31.8271C28.7561 33.4483 29.3877 34.9264 30.4126 36.035C29.3996 37.1316 28.7561 38.6098 28.7561 40.219C28.7561 41.8282 29.3877 43.3183 30.4126 44.4268C29.3996 45.5235 28.7561 47.0016 28.7561 48.6109C28.7561 49.3857 28.911 50.1128 29.1613 50.7923H21.4151C11.8337 50.7923 4.03992 42.9964 4.03992 33.4125C4.03992 26.8325 8.69953 22.0048 11.4762 19.7042C14.7534 17.0341 18.4835 15.1149 22.44 13.0765C22.8929 12.8381 23.3576 12.5878 23.8343 12.3494C25.1929 11.6342 26.5991 10.8951 27.9338 10.0965L37.7536 4.33898C38.4924 3.89793 39.1955 3.81449 39.9702 4.06481C40.6137 4.19594 41.3049 4.72043 41.722 5.42372C42.0199 5.87669 42.1391 6.43695 42.1391 6.80647C42.1391 7.06872 42.1391 7.35481 41.9961 7.56937C41.8292 8.22499 41.3168 8.8806 40.6494 9.27397L26.3965 17.5466C25.5742 18.0592 25.1929 18.9651 25.4789 19.728C25.6934 20.6578 26.4799 21.2777 27.4095 21.2777H60.706C61.862 21.2777 62.875 22.2909 62.875 23.4472C62.875 24.6034 61.862 25.6167 60.706 25.6167H35.0841L35.0722 25.6286ZM45.5712 34.0205H35.0722C34.965 34.0205 34.8577 34.0324 34.7624 34.0562C33.6183 33.9728 32.7245 33.0191 32.7245 31.839C32.7245 30.6589 33.6064 29.753 34.7147 29.6457C34.8339 29.6696 34.953 29.6815 35.0722 29.6815H45.5712C46.7272 29.6815 47.7402 30.6947 47.7402 31.851C47.7402 33.0072 46.7272 34.0205 45.5712 34.0205ZM40.8997 42.4004H35.0722C34.953 42.4004 34.8458 42.4123 34.7385 42.4362C33.6064 42.3527 32.7126 41.3991 32.7126 40.219C32.7126 39.0389 33.5945 38.121 34.7266 38.0257C34.8339 38.0495 34.953 38.0614 35.0722 38.0614H40.8997C42.0557 38.0614 43.0686 39.0746 43.0686 40.2309C43.0686 41.3872 42.0557 42.4004 40.8997 42.4004ZM36.3473 50.7923H34.4287C33.4515 50.5658 32.7126 49.6837 32.7126 48.6109C32.7126 47.4546 33.6183 46.501 34.7504 46.4175C34.8577 46.4294 34.965 46.4533 35.0722 46.4533H36.3593C37.5152 46.4533 38.5282 47.4665 38.5282 48.6228C38.5282 49.779 37.5152 50.7923 36.3593 50.7923M51.1961 29.4192H60.5511C64.0548 29.4192 66.8076 26.8087 66.8076 23.471C66.8076 20.1333 63.9594 17.2486 60.5869 17.2486H34.7385L42.5562 12.8381C44.1531 11.9203 45.2852 10.4302 45.7381 8.63027C46.2028 6.79455 45.9645 4.98267 45.0588 3.39728C44.1412 1.79996 42.6515 0.667535 40.852 0.226485C40.2443 0.0715216 39.6365 0 39.0406 0C37.837 0 36.681 0.309927 35.6204 0.90594L25.8126 6.65151C24.1323 7.61705 22.297 8.59451 20.5333 9.53622C16.5172 11.6103 12.4058 13.7202 8.85445 16.6884C3.14613 21.4446 0 27.4285 0 33.5317C0 45.3566 9.60523 54.9644 21.4271 54.9644H36.3593C39.7795 54.8452 42.58 52.0081 42.58 48.6228C42.58 47.9791 42.4847 47.4308 42.2463 46.7036L42.1153 46.3222L42.4966 46.2268C45.2256 45.5473 47.1205 43.0799 47.1205 40.2428C47.1205 39.5991 47.0251 39.0508 46.7868 38.3237L46.6557 37.9422L47.049 37.8469C49.778 37.1674 51.6728 34.6999 51.6728 31.851C51.6728 31.1834 51.5656 30.5278 51.3511 29.896L51.1842 29.4073L51.1961 29.4192Z" fill="#6A6A6A"/>
<path d="M65.6044 49.6124C64.7821 50.4468 63.6738 50.8998 62.506 50.8998C61.3381 50.8998 60.2417 50.4468 59.4075 49.6124C58.0728 48.2773 57.7391 46.2508 58.5852 44.5582L62.506 38.8007L66.4267 44.5701C67.2728 46.2508 66.9391 48.2773 65.6044 49.6124ZM70.0019 42.5436L64.2101 34.0207C63.5904 33.079 62.3153 32.8167 61.3738 33.4485C61.1474 33.6034 60.9567 33.7942 60.8137 34.0087L55.1173 42.3887L55.0101 42.5675C52.8292 46.7157 54.4261 51.8534 58.5614 54.0229C59.8246 54.6904 61.1712 55.0003 62.506 55.0003C65.5568 55.0003 68.5122 53.3553 70.0257 50.4706C71.3247 47.9912 71.3247 45.0469 70.0257 42.5556" fill="#6A6A6A"/>
</svg>
