<svg width="46" height="70" viewBox="0 0 46 70" fill="none" xmlns="http://www.w3.org/2000/svg">
<path d="M24.9961 65.7286C15.5176 65.7286 7.81215 57.895 7.81215 48.2588C7.81215 46.1335 8.18428 44.0416 8.91761 42.0832C11.435 44.0194 14.2917 45.0431 16.8967 45.0431C19.1295 45.0431 21.1763 44.2975 22.6867 42.7731C25.4887 39.9245 25.5872 35.1732 23.3434 30.8781C23.8907 30.8225 24.4379 30.7891 24.9961 30.7891C34.4747 30.7891 42.1801 38.6226 42.1801 48.2588C42.1801 57.895 34.4747 65.7286 24.9961 65.7286ZM10.7892 26.3938C13.1315 26.3938 15.7584 27.6512 17.8161 29.7431C21.0887 33.0702 22.1066 37.8882 19.9942 40.0358C19.0748 40.9705 17.8051 41.1708 16.9076 41.1708C14.5653 41.1708 11.9385 39.9134 9.86985 37.8215C6.59723 34.4944 5.57932 29.6763 7.69175 27.5288C8.61115 26.5941 9.88079 26.3938 10.7892 26.3938ZM24.9961 26.9168C23.5951 26.9168 22.1942 27.0726 20.826 27.3508C20.7166 27.2284 20.618 27.1171 20.5086 26.9947C17.6191 24.0571 14.0071 22.5104 10.7892 22.5104C9.47582 22.5104 8.23901 22.7775 7.13354 23.2893L5.1634 21.2864C3.35744 19.4504 3.35744 16.4461 5.1634 14.6101C6.03902 13.7199 7.21016 13.2303 8.44697 13.2303C9.68378 13.2303 10.8549 13.7199 11.7305 14.6101C15.025 17.9594 20.3882 17.9594 23.6827 14.6101C25.2807 12.9855 26.1563 10.8268 26.1563 8.53459C26.1563 6.24238 25.2807 4.0837 23.6827 2.45912L21.2638 0L18.5713 2.7373L20.9902 5.18529C21.8658 6.07547 22.3583 7.26609 22.3583 8.52347C22.3583 9.78084 21.8767 10.9715 20.9902 11.8616C19.1842 13.6976 16.229 13.6976 14.4231 11.8616C12.8251 10.2371 10.7017 9.34688 8.44697 9.34688C6.19226 9.34688 4.06888 10.2371 2.47088 11.8616C-0.823627 15.2109 -0.823627 20.6633 2.47088 24.0237L4.20023 25.7818C1.78133 29.3091 2.52561 34.7949 5.99524 39.1901C4.69276 42.0053 4.01416 45.0876 4.01416 48.2477C4.01416 60.0203 13.427 69.5897 25.0071 69.5897C36.5871 69.5897 46 60.0203 46 48.2477C46 36.4751 36.5871 26.9057 25.0071 26.9057" fill="#6A6A6A"/>
</svg>
