<svg width="50" height="60" viewBox="0 0 50 60" fill="none" xmlns="http://www.w3.org/2000/svg">
<path d="M28.6911 60V54.2599L28.5347 54.1328C28.5347 54.1328 28.3054 53.9316 28.0553 53.6668C27.3674 52.936 27.4195 51.2415 27.4612 49.7483C27.5133 48.1808 27.555 46.8252 26.8776 46.1474C26.5232 45.7768 26.2731 45.4167 26.0334 45.0354C25.2934 43.8281 25.0954 42.4407 25.4497 41.1169C25.8041 39.7931 26.7108 38.6493 27.9407 38.0032C29.9313 36.9865 32.7453 37.2407 34.2774 39.6977C34.6526 40.2696 35.1112 40.545 35.6948 40.545C36.6224 40.545 36.9664 40.0578 37.2895 39.5812C37.4458 39.3694 37.5917 39.147 37.821 38.914C38.0607 38.681 38.29 38.501 38.5089 38.3316C39.0091 37.9503 39.4886 37.5796 39.4886 36.743C39.4886 35.9063 38.9987 35.5992 38.5193 35.2603C38.29 35.1014 38.0503 34.9214 37.8106 34.6884C36.8205 33.6717 36.414 32.9409 36.414 31.024C36.414 28.8 37.4354 27.9421 38.3317 27.1796C38.9466 26.6607 39.5303 26.1735 39.5303 25.358C39.5303 24.8073 39.1967 24.1401 38.6444 23.9177C37.2686 23.0069 36.4453 21.4501 36.4453 19.7556C36.4453 18.0611 37.279 16.4831 38.6965 15.5617C39.1759 15.2334 39.4677 14.6826 39.4677 14.0896C39.4677 13.4965 39.1759 12.9352 38.6965 12.6069C37.821 12.0138 37.4771 11.5372 37.1852 11.1454C36.8517 10.69 36.5599 10.2981 35.7365 10.2981C35.1633 10.2981 34.663 10.6053 34.34 11.156C33.4436 12.5857 31.9011 13.433 30.2231 13.433C28.5452 13.433 27.0652 12.6175 26.1584 11.2513C26.0646 10.6794 25.4289 10.3087 24.8452 10.3087C24.2616 10.3087 23.7717 10.6158 23.4487 11.1666C22.5523 12.5963 21.0098 13.4435 19.3318 13.4435C17.6539 13.4435 16.1114 12.5963 15.2046 11.1666C14.8815 10.6794 14.3396 10.3828 13.7559 10.3828C13.1723 10.3828 12.6199 10.6794 12.2864 11.1877C11.932 11.7914 11.4526 12.2786 10.723 12.7657C10.2436 13.0941 9.95178 13.6448 9.95178 14.2378C9.95178 14.8309 10.2436 15.3922 10.7335 15.7205C12.13 16.6313 12.9742 18.1987 12.9742 19.9038C12.9742 21.6089 12.1405 23.1763 10.723 24.0977C10.2019 24.4472 9.88924 24.9767 9.88924 25.5063C9.88924 26.0358 10.2228 26.7242 10.7751 26.9466C12.599 28.1116 13.3807 30.2509 12.7762 32.4114C12.3072 34.0741 10.8064 36.0228 8.10703 36.0228C5.96004 36.0228 4.45923 34.9743 3.65671 32.9197C3.62544 32.835 3.59418 32.7609 3.57333 32.7185C2.87504 30.378 3.6046 28.1116 5.50146 26.7983C6.02257 26.4488 6.33524 25.9087 6.33524 25.3898C6.33524 24.8708 6.00173 24.1719 5.45977 23.9495C4.08403 23.0387 3.26066 21.4818 3.26066 19.7873C3.26066 18.0928 4.09445 16.5148 5.48061 15.6146C6.00173 15.3181 6.3144 14.7674 6.3144 14.1531C6.3144 13.4753 5.94962 12.8399 5.31386 12.4798C4.48007 12.1091 3.78178 10.9865 3.53164 9.62032C3.20855 7.86227 3.67756 6.136 4.80316 5.0028C5.82455 3.96492 7.29409 3.43539 8.71152 3.57307C10.1602 3.72133 11.4422 4.53681 12.3176 5.86064C12.6303 6.33722 13.1097 6.58081 13.7142 6.58081C14.2458 6.58081 14.9128 6.24191 15.1317 5.6806C16.028 4.28264 17.5601 3.44598 19.2276 3.44598C20.8952 3.44598 22.4481 4.29323 23.3548 5.72297C23.6779 6.21013 24.2199 6.50667 24.8035 6.50667C25.3872 6.50667 25.9396 6.21013 26.2627 5.72297C27.159 4.29323 28.7015 3.44598 30.3795 3.44598C32.0575 3.44598 33.6 4.29323 34.5067 5.72297C34.8506 6.2525 35.3718 6.57022 35.8929 6.57022C36.414 6.57022 37.0914 6.23132 37.3103 5.67001C38.1754 4.31441 39.6866 3.46716 41.2604 3.43539C43.0113 3.36125 44.6059 4.35677 45.7732 6.08305C46.5861 7.6081 46.2631 9.16492 46.0025 9.96981C45.5439 11.4419 44.8352 11.9397 44.2828 12.3315C43.7826 12.681 43.2614 13.0517 43.2614 13.9201C43.2614 14.545 43.5533 15.0957 44.1056 15.4664C45.5022 16.3771 46.3464 17.9446 46.3464 19.6497C46.3464 21.3547 45.5126 22.9222 44.1056 23.8436C43.5845 24.193 43.2719 24.7226 43.2719 25.2521C43.2719 25.7816 43.6054 26.47 44.1473 26.6924C45.5231 27.6138 46.3464 29.1601 46.3464 30.8546C46.3464 32.5491 45.5126 34.1271 44.0952 35.0485C43.5741 35.4191 43.2927 36.044 43.324 36.7006C43.3657 37.3572 43.6992 37.9397 44.2515 38.2574C44.6163 38.501 44.7414 38.6175 45.0228 38.914C45.0228 38.914 45.127 38.9988 45.2104 39.1153C46.2943 40.2167 46.9301 42.4619 45.7836 44.8024C45.1166 46.1051 43.8555 46.9841 42.313 47.2489C40.7392 47.5242 39.155 47.0476 38.0711 46.0098C37.8418 45.7768 37.6751 45.5438 37.5083 45.3214C37.154 44.8236 36.7788 44.3047 35.9971 44.3047C35.0695 44.2094 34.7152 44.7389 34.3816 45.2472C34.0898 45.6815 33.7355 46.2216 32.8704 46.7511C31.922 47.3865 31.9949 48.721 32.0575 50.1401C32.12 51.4957 32.193 52.8937 31.38 53.6562C31.0673 53.9739 30.8902 54.1328 30.8797 54.1434L30.7338 54.2705V60H34.2045V55.5731C35.6115 53.8257 35.5594 51.9087 35.4968 50.0554C35.4968 49.7694 35.476 49.4729 35.476 49.187C35.6636 49.0493 35.8199 48.9116 35.9658 48.7739C37.7376 50.3943 40.1452 51.1144 42.6257 50.7438C45.2938 50.3519 47.618 48.7316 48.8686 46.4016C50.5362 43.1503 50.088 39.3059 47.7743 36.7112C50.5466 33.5869 50.5466 28.6305 47.7743 25.5063C49.15 23.96 49.9525 21.8737 49.9525 19.8403C49.9525 17.8069 49.2438 15.8053 47.8994 14.1743C48.5768 13.3906 49.1605 12.2998 49.5461 11.1348C50.7968 7.27979 49.4106 3.41421 46.0338 1.29608C42.782 -0.726734 38.957 -0.356062 36.1743 2.22805C33.0372 -0.66319 28.2846 -0.66319 25.0224 2.22805C21.8853 -0.673781 17.1223 -0.673781 13.8706 2.22805C10.525 -0.832641 5.56399 -0.737325 2.36435 2.514C0.4258 4.48386 -0.366295 7.25861 0.165242 10.1393C0.404955 11.7173 1.09283 13.1682 2.07252 14.1743C-0.678964 17.4044 -0.678964 22.255 2.07252 25.358C-0.0848926 27.7939 -0.595585 31.2146 0.717624 34.6354C2.70828 39.2423 7.26283 40.2167 10.6605 39.1576C14.1937 38.0668 17.3516 34.6566 16.4344 29.5095C16.1843 27.9951 15.486 26.5653 14.4021 25.358C15.8091 23.78 16.5699 21.789 16.5699 19.692C16.5699 18.4 16.2781 17.1291 15.7257 15.9747C16.8513 16.5466 18.0812 16.822 19.3944 16.822C21.5414 16.822 23.5529 16.0277 24.9807 14.6191C26.5232 16.0382 28.4826 16.822 30.5462 16.822C31.8178 16.822 33.0684 16.5254 34.2045 15.9641C33.6417 17.1079 33.3707 18.3576 33.3707 19.692C33.3707 21.8737 34.1523 23.9177 35.5385 25.3686C34.0481 27.0102 33.2352 29.0118 33.2352 31.024C33.2352 32.8985 33.5687 34.1377 34.0898 35.1544C32.9121 34.5719 31.5572 34.1906 30.4629 34.1906C27.0131 34.1906 24.1469 35.9698 22.8129 38.9564C21.4997 41.9006 22.0312 45.3214 24.1991 47.9267V51.8558C24.1991 53.2326 24.6055 54.4717 25.3664 55.4354V60H28.6806H28.6911Z" fill="#6A6A6A"/>
</svg>
