<svg width="60" height="60" viewBox="0 0 60 60" fill="none" xmlns="http://www.w3.org/2000/svg">
<path d="M3.39464 16.1769C3.39464 8.80528 9.3382 2.79613 16.6518 2.79613C23.9654 2.79613 29.909 8.79511 29.909 16.1769C29.909 23.5587 23.9654 29.5577 16.6518 29.5577C9.3382 29.5577 3.39464 23.5587 3.39464 16.1769ZM16.6518 32.3538C25.4866 32.3538 32.6793 25.094 32.6793 16.1769C32.6793 7.25978 25.4765 0 16.6417 0C7.80698 0 0.614258 7.25978 0.614258 16.1769C0.614258 25.094 7.80698 32.3538 16.6417 32.3538" fill="#6A6A6A"/>
<path d="M16.6422 9.76124C20.1479 9.76124 23.0088 12.6387 23.0088 16.1771C23.0088 19.7155 20.1579 22.6031 16.6422 22.6031C13.1264 22.6031 10.2755 19.7256 10.2755 16.1771C10.2755 12.6285 13.1264 9.76124 16.6422 9.76124ZM16.6422 25.8771C21.941 25.8771 26.2526 21.5253 26.2526 16.1771C26.2526 10.8289 21.941 6.47705 16.6422 6.47705C11.3433 6.47705 7.03174 10.8289 7.03174 16.1771C7.03174 21.5253 11.3433 25.8771 16.6422 25.8771Z" fill="#6A6A6A"/>
<path d="M57.2295 43.7619C57.2295 51.1335 51.2859 57.1426 43.9723 57.1426C36.6587 57.1426 30.7151 51.1437 30.7151 43.7619C30.7151 36.3801 36.6587 30.3811 43.9723 30.3811C51.2859 30.3811 57.2295 36.3801 57.2295 43.7619ZM43.9723 27.585C35.1375 27.585 27.9448 34.8447 27.9448 43.7619C27.9448 52.679 35.1375 59.9388 43.9723 59.9388C52.8071 59.9388 59.9998 52.679 59.9998 43.7619C59.9998 34.8447 52.8071 27.585 43.9723 27.585Z" fill="#6A6A6A"/>
<path d="M43.9723 37.3462C47.478 37.3462 50.3389 40.2237 50.3389 43.7722C50.3389 47.3208 47.488 50.1881 43.9723 50.1881C40.4565 50.1881 37.6056 47.3106 37.6056 43.7722C37.6056 40.2338 40.4565 37.3462 43.9723 37.3462ZM43.9723 34.062C38.6734 34.062 34.3618 38.4138 34.3618 43.7621C34.3618 49.1103 38.6734 53.4621 43.9723 53.4621C49.2711 53.4621 53.5827 49.1103 53.5827 43.7621C53.5827 38.4138 49.2711 34.062 43.9723 34.062Z" fill="#6A6A6A"/>
<path d="M40.4869 14.2144C40.4869 11.1844 42.9248 8.71361 45.9268 8.71361C48.9288 8.71361 51.3667 11.1742 51.3667 14.2144C51.3667 17.2545 48.9288 19.705 45.9268 19.705C42.9248 19.705 40.4869 17.2444 40.4869 14.2144ZM45.9268 22.5113C50.46 22.5113 54.147 18.7899 54.147 14.2144C54.147 9.63888 50.46 5.91748 45.9268 5.91748C41.3936 5.91748 37.7065 9.63888 37.7065 14.2144C37.7065 18.7899 41.3936 22.5113 45.9268 22.5113Z" fill="#6A6A6A"/>
<path d="M17.4983 47.7681C17.4983 50.7981 15.0503 53.2587 12.0483 53.2587C9.0463 53.2587 6.60844 50.7981 6.60844 47.7681C6.60844 44.7381 9.0463 42.2673 12.0483 42.2673C15.0503 42.2673 17.4983 44.7381 17.4983 47.7681ZM22.4546 46.1717H20.1174C19.916 45.1143 19.5029 44.128 18.9388 43.2434L20.5808 41.5963C21.2256 40.9455 21.2256 39.8881 20.5808 39.2373C19.9361 38.5866 18.8884 38.5866 18.2437 39.2373L16.6218 40.8743C15.7555 40.2846 14.7682 39.8576 13.7105 39.6339V37.336C13.7105 36.4209 12.965 35.6685 12.0584 35.6685C11.1517 35.6685 10.4063 36.4209 10.4063 37.336V39.6339C9.34852 39.8576 8.36128 40.2846 7.48486 40.8743L5.86297 39.2373C5.21825 38.5866 4.17057 38.5866 3.52584 39.2373C2.88112 39.8881 2.88112 40.9455 3.52584 41.5963L5.16788 43.2434C4.60374 44.1179 4.19072 45.1041 3.98924 46.1717H1.65211C0.73539 46.1717 0 46.914 0 47.8393C0 48.7645 0.73539 49.5068 1.65211 49.5068H4.01946C4.24109 50.5439 4.65411 51.52 5.22832 52.3741L3.53592 54.0823C2.89119 54.733 2.89119 55.7904 3.53592 56.4412C3.85828 56.7665 4.28138 56.9292 4.70448 56.9292C5.12758 56.9292 5.55068 56.7665 5.87305 56.4412L7.5856 54.7127C8.4318 55.2719 9.38881 55.6786 10.4163 55.8921V58.3324C10.4163 59.2576 11.1517 59.9999 12.0685 59.9999C12.9852 59.9999 13.7206 59.2475 13.7206 58.3324V55.8921C14.738 55.6786 15.695 55.2719 16.5412 54.7127L18.2538 56.4412C18.5762 56.7665 18.9993 56.9292 19.4224 56.9292C19.8455 56.9292 20.2686 56.7665 20.5909 56.4412C21.2356 55.7904 21.2356 54.733 20.5909 54.0823L18.8985 52.3741C19.4727 51.52 19.8858 50.5439 20.1074 49.5068H22.4747C23.3914 49.5068 24.1268 48.7544 24.1268 47.8393C24.1268 46.9242 23.3914 46.1717 22.4747 46.1717" fill="#6A6A6A"/>
</svg>
