<svg width="25" height="25" viewBox="0 0 25 25" fill="none" xmlns="http://www.w3.org/2000/svg">
<path d="M0 17.0964C0 21.0441 3.20168 24.2458 7.14939 24.2458H17.0964C21.0441 24.2458 24.2458 21.0441 24.2458 17.0964V7.14939C24.2458 3.20168 21.0441 0 17.0964 0H7.14939C3.20168 0 0 3.20168 0 7.14939V17.0964ZM18.6506 4.3518C19.5209 4.3518 20.2048 5.03566 20.2048 5.90602C20.2048 6.77638 19.5209 7.46023 18.6506 7.46023C17.7802 7.46023 17.0964 6.77638 17.0964 5.90602C17.0964 5.03566 17.7802 4.3518 18.6506 4.3518ZM12.1229 6.21686C15.3867 6.21686 18.0289 8.85903 18.0289 12.1229C18.0289 15.3867 15.3867 18.0289 12.1229 18.0289C8.85903 18.0289 6.21686 15.3867 6.21686 12.1229C6.21686 8.85903 8.85903 6.21686 12.1229 6.21686Z" fill="white"/>
<path d="M16.1638 12.124C16.1638 14.3558 14.3547 16.1649 12.1229 16.1649C9.89102 16.1649 8.08191 14.3558 8.08191 12.124C8.08191 9.89211 9.89102 8.08301 12.1229 8.08301C14.3547 8.08301 16.1638 9.89211 16.1638 12.124Z" fill="white"/>
</svg>
