<svg width="67" height="59" viewBox="0 0 67 59" fill="none" xmlns="http://www.w3.org/2000/svg">
<path d="M8.32488 0.000233803L5.5376 2.78955L8.32488 5.57887L11.1122 2.78955L8.32488 0.000233803Z" fill="#6A6A6A"/>
<path d="M2.78728 5.52855L0 8.31787L2.78728 11.1072L5.57457 8.31787L2.78728 5.52855Z" fill="#6A6A6A"/>
<path d="M58.6882 0.00218693L55.9009 2.7915L58.6882 5.58082L61.4754 2.7915L58.6882 0.00218693Z" fill="#6A6A6A"/>
<path d="M51.5395 18.2878L48.7759 15.5223L55.9205 8.3725L53.1569 5.60693L35.483 23.2937V27.6672H31.5519V23.2937L13.8566 5.60693L11.093 8.3725L18.2376 15.5223L15.474 18.2878L8.32947 11.1381L5.56592 13.9036L21.2903 29.6395C22.0508 30.4006 23.2827 30.4006 24.0432 29.6395C24.8037 28.8677 24.8037 27.635 24.0432 26.874L18.2376 21.0641L21.0011 18.2985L27.6101 24.9123V57.0594C27.6101 58.1313 28.4777 58.9996 29.5489 58.9996C30.62 58.9996 31.5198 58.1206 31.5198 57.0272V31.6012H35.4509V57.0165C35.4509 58.1099 36.3399 58.9889 37.4218 58.9889C38.5036 58.9889 39.3498 58.1206 39.3498 57.0594V24.9016L45.9588 18.2878L48.7224 21.0534L42.9061 26.874C42.1455 27.635 42.1455 28.857 42.9061 29.6074H42.9168C43.6773 30.3792 44.9198 30.3792 45.6803 29.6181L61.4047 13.8822L58.6412 11.1166L51.4966 18.2664L51.5395 18.2878Z" fill="#6A6A6A"/>
<path d="M64.2126 5.53344L61.4253 8.32275L64.2126 11.1121L66.9999 8.32275L64.2126 5.53344Z" fill="#6A6A6A"/>
</svg>
