<svg width="59" height="59" viewBox="0 0 59 59" fill="none" xmlns="http://www.w3.org/2000/svg">
<path d="M24.6559 22.4863C23.8139 22.4863 23.1304 23.1698 23.1304 24.0118C23.1304 24.8539 23.8139 25.5374 24.6559 25.5374C25.4979 25.5374 26.1814 24.8539 26.1814 24.0118C26.1814 23.1698 25.4979 22.4863 24.6559 22.4863Z" fill="#6A6A6A"/>
<path d="M34.7501 26.7563C33.9081 26.7563 33.2246 27.4399 33.2246 28.2819C33.2246 29.1239 33.9081 29.8074 34.7501 29.8074C35.5921 29.8074 36.2757 29.1239 36.2757 28.2819C36.2757 27.4399 35.5921 26.7563 34.7501 26.7563Z" fill="#6A6A6A"/>
<path d="M27.8556 32.8384C27.0136 32.8384 26.3301 33.5219 26.3301 34.3639C26.3301 35.2059 27.0136 35.8894 27.8556 35.8894C28.6976 35.8894 29.3811 35.2059 29.3811 34.3639C29.3811 33.5219 28.6976 32.8384 27.8556 32.8384Z" fill="#6A6A6A"/>
<path d="M7.2908 29.5C7.2908 30.6689 6.33983 31.6199 5.16101 31.6199C3.9822 31.6199 3.04114 30.6689 3.04114 29.5C3.04114 28.3311 3.99211 27.3801 5.16101 27.3801C6.32992 27.3801 7.2908 28.3311 7.2908 29.5ZM29.4901 55.949C28.3212 55.949 27.3702 54.998 27.3702 53.8291C27.3702 52.6602 28.3212 51.7092 29.4901 51.7092C30.659 51.7092 31.61 52.6602 31.61 53.8291C31.61 54.998 30.659 55.949 29.4901 55.949ZM29.4901 3.05104C30.659 3.05104 31.61 4.00201 31.61 5.17092C31.61 6.33982 30.659 7.2908 29.4901 7.2908C28.3212 7.2908 27.3702 6.33982 27.3702 5.17092C27.3702 4.00201 28.3212 3.05104 29.4901 3.05104ZM29.4901 42.5759C22.2785 42.5759 16.4241 36.7116 16.4241 29.5099C16.4241 22.3083 22.2885 16.4439 29.4901 16.4439C36.6917 16.4439 42.5561 22.3083 42.5561 29.5099C42.5561 36.7116 36.6917 42.5759 29.4901 42.5759ZM45.1911 10.8074C45.6071 10.3914 46.152 10.1833 46.6869 10.1833C47.2218 10.1833 47.7765 10.3914 48.1926 10.8074C49.0247 11.6395 49.0247 12.9768 48.1926 13.8089C47.3902 14.6113 45.9935 14.6113 45.1911 13.8089C44.359 12.9768 44.359 11.6395 45.1911 10.8074ZM13.7891 13.8089C12.9867 14.6113 11.59 14.6113 10.7876 13.8089C9.95551 12.9768 9.95551 11.6395 10.7876 10.8074C11.2037 10.3914 11.7485 10.1833 12.2933 10.1833C12.8381 10.1833 13.383 10.3914 13.799 10.8074C14.6311 11.6395 14.6311 12.9768 13.799 13.8089M13.799 48.2124C12.9966 49.0148 11.5999 49.0148 10.7975 48.2124C10.4013 47.8161 10.1734 47.2812 10.1734 46.7067C10.1734 46.1321 10.3914 45.6071 10.7975 45.2109C11.2136 44.7948 11.7584 44.5868 12.3032 44.5868C12.8481 44.5868 13.3929 44.7948 13.8089 45.2109C14.2052 45.6071 14.433 46.142 14.433 46.7067C14.433 47.2713 14.2151 47.8062 13.8089 48.2124M44.5868 46.7067C44.5868 46.142 44.8047 45.6071 45.2109 45.2109C45.6269 44.7948 46.1718 44.5868 46.7067 44.5868C47.2416 44.5868 47.7963 44.7948 48.2124 45.2109C48.6185 45.6071 48.8365 46.142 48.8365 46.7067C48.8365 47.2713 48.6185 47.8062 48.2124 48.2124C47.41 49.0148 46.0133 49.0148 45.2109 48.2124C44.8047 47.8161 44.5868 47.2812 44.5868 46.7067ZM53.839 27.3801C55.0079 27.3801 55.9589 28.3311 55.9589 29.5C55.9589 30.6689 55.0079 31.6199 53.839 31.6199C52.6701 31.6199 51.7191 30.6689 51.7191 29.5C51.7191 28.3311 52.6701 27.3801 53.839 27.3801ZM57.4943 25.8447C56.5136 24.864 55.2159 24.3291 53.839 24.3291C51.5606 24.3291 49.5596 25.815 48.8959 27.9745H45.5675C45.2604 24.755 44.0123 21.7436 41.9419 19.2374L44.2995 16.8798C46.2906 17.9397 48.7572 17.5831 50.3719 15.9585C51.3427 14.9877 51.8875 13.6802 51.8875 12.2933C51.8875 10.9065 51.3526 9.6088 50.3719 8.63801C48.3511 6.61719 45.0722 6.61719 43.0514 8.63801C41.4367 10.2527 41.0801 12.7193 42.1301 14.7104L39.7725 17.068C37.2663 14.9877 34.2549 13.7396 31.0354 13.4424V10.114C33.1949 9.4503 34.6808 7.44929 34.6808 5.17092C34.6808 2.318 32.3628 0 29.5099 0C26.657 0 24.339 2.318 24.339 5.17092C24.339 7.44929 25.8249 9.4503 27.9844 10.114V13.4424C24.7649 13.7495 21.7436 14.9976 19.2473 17.068L16.8897 14.7104C17.9397 12.7094 17.5831 10.2428 15.9684 8.63801C13.9476 6.61719 10.6687 6.61719 8.64792 8.63801C6.6271 10.6588 6.6271 13.9377 8.64792 15.9585C10.2626 17.5732 12.7292 17.9397 14.7203 16.8798L17.0779 19.2374C14.9977 21.7436 13.7495 24.755 13.4523 27.9745H10.1239C9.46021 25.815 7.4592 24.3291 5.17092 24.3291C2.318 24.3291 0 26.6471 0 29.5C0 32.3529 2.318 34.6709 5.17092 34.6709C7.4493 34.6709 9.4503 33.185 10.1239 31.0255H13.4523C13.7594 34.245 15.0076 37.2564 17.0779 39.7626L14.7203 42.1202C12.7292 41.0603 10.2527 41.4169 8.64792 43.0415C6.6271 45.0623 6.6271 48.3412 8.64792 50.362C9.6187 51.3328 10.9263 51.8776 12.3032 51.8776C13.6802 51.8776 14.9877 51.3328 15.9684 50.362C17.5831 48.7473 17.9397 46.2807 16.8798 44.2896L19.2473 41.932C21.7535 44.0023 24.7649 45.2505 27.9844 45.5576V48.886C25.8249 49.5497 24.339 51.5507 24.339 53.8291C24.339 56.682 26.657 59 29.5099 59C32.3628 59 34.6808 56.682 34.6808 53.8291C34.6808 51.5507 33.1949 49.5497 31.0354 48.886V45.5576C34.2648 45.2505 37.2762 44.0023 39.7824 41.932L42.14 44.2896C41.0801 46.2906 41.4466 48.7572 43.0613 50.362C45.0821 52.3828 48.361 52.3828 50.3818 50.362C52.4026 48.3412 52.4026 45.0623 50.3818 43.0415C48.7671 41.4268 46.3005 41.0603 44.2995 42.1202L41.9419 39.7626C44.0222 37.2564 45.2703 34.245 45.5675 31.0255H48.8959C49.5596 33.185 51.5606 34.6709 53.839 34.6709C56.6919 34.6709 59.0099 32.3529 59.0099 29.5C59.0099 28.1231 58.475 26.8254 57.4943 25.8447Z" fill="#6A6A6A"/>
</svg>
