<svg width="69" height="31" viewBox="0 0 69 31" fill="none" xmlns="http://www.w3.org/2000/svg">
<path d="M57.1465 23.5879C57.0696 23.5879 49.4377 23.5 45.155 18.8549C41.8935 15.319 38.1599 13.4521 34.3384 13.4521C30.5169 13.4521 26.7833 15.319 23.5219 18.8549C19.2392 23.511 11.6072 23.5879 11.5303 23.5879H0V27.4642H11.5303C11.9147 27.4642 20.9193 27.3984 26.366 21.4795C28.8697 18.7561 31.626 17.3176 34.3274 17.3176C37.0288 17.3176 39.7961 18.7561 42.2998 21.4795C47.7465 27.3984 56.7622 27.4642 57.1355 27.4642H68.6659V23.5879H57.1355H57.1465Z" fill="#6A6A6A"/>
<path d="M34.3382 9.23524C35.4034 9.23524 36.2819 8.36773 36.2819 7.29156V1.94368C36.2819 0.86752 35.4144 0 34.3382 0C33.2621 0 32.3945 0.86752 32.3945 1.94368V7.30254C32.3945 8.36773 33.2621 9.24623 34.3382 9.24623" fill="#6A6A6A"/>
<path d="M22.0831 12.5735C22.4565 12.9469 22.9616 13.1446 23.4558 13.1446C23.9499 13.1446 24.4441 12.9579 24.8284 12.5735C25.5861 11.8158 25.5861 10.5859 24.8284 9.82822L21.5011 6.5009C20.7434 5.74319 19.5135 5.74319 18.7558 6.5009C17.9981 7.25861 17.9981 8.47752 18.7558 9.23523L22.0941 12.5735H22.0831Z" fill="#6A6A6A"/>
<path d="M45.6489 13.1448C46.1431 13.1448 46.6373 12.9581 47.0216 12.5738L50.3599 9.23547C51.1176 8.47776 51.1176 7.24786 50.3599 6.49016C49.6022 5.73245 48.3723 5.73245 47.6146 6.49016L44.2763 9.82846C43.5186 10.5862 43.5186 11.8161 44.2763 12.5738C44.6606 12.9471 45.1548 13.1448 45.6489 13.1448Z" fill="#6A6A6A"/>
<path d="M34.3381 23.4888C32.2627 23.4888 30.5825 25.1689 30.5825 27.2444C30.5825 29.3198 32.2627 31 34.3381 31C36.4136 31 38.0937 29.3198 38.0937 27.2444C38.0937 25.1689 36.4136 23.4888 34.3381 23.4888Z" fill="#6A6A6A"/>
</svg>
