<svg width="60" height="59" viewBox="0 0 60 59" fill="none" xmlns="http://www.w3.org/2000/svg">
<path d="M17.9808 55.8665C9.77174 55.8665 3.11577 49.173 3.11577 40.9177C3.11577 32.6623 9.77174 25.9688 17.9808 25.9688C26.1898 25.9688 32.8458 32.6623 32.8458 40.9177C32.8361 49.173 26.1898 55.8568 17.9808 55.8665ZM17.9808 22.8451C8.04504 22.8451 0 30.9356 0 40.9177C0 50.8997 8.04504 58.9999 17.9808 58.9999C27.9165 58.9999 35.9615 50.9094 35.9615 40.9177C35.9615 30.9259 27.9165 22.8354 17.9808 22.8354" fill="#6A6A6A"/>
<path d="M17.9808 55.8665C9.77174 55.8665 3.11577 49.173 3.11577 40.9177C3.11577 32.6623 9.77174 25.9688 17.9808 25.9688C26.1898 25.9688 32.8458 32.6623 32.8458 40.9177C32.8361 49.173 26.1898 55.8568 17.9808 55.8665ZM17.9808 22.8451C8.04504 22.8451 0 30.9356 0 40.9177C0 50.8997 8.04504 58.9999 17.9808 58.9999C27.9165 58.9999 35.9615 50.9094 35.9615 40.9177C35.9615 30.9259 27.9165 22.8354 17.9808 22.8354V22.8451Z" fill="#6A6A6A"/>
<path d="M48.0287 34.9711C42.9933 34.9711 38.9226 30.8676 38.9226 25.8135C38.9226 20.7594 43.003 16.656 48.0287 16.656C53.0545 16.656 57.1349 20.7594 57.1349 25.8135C57.1349 30.8676 53.0545 34.9711 48.0287 34.9711ZM48.0287 13.7749C41.421 13.7749 36.0576 19.1685 36.0576 25.8135C36.0576 32.4586 41.421 37.8522 48.0287 37.8522C54.6365 37.8522 59.9998 32.4586 59.9998 25.8135C59.9998 19.1685 54.6365 13.7749 48.0287 13.7749Z" fill="#6A6A6A"/>
<path d="M48.0287 34.9711C42.9933 34.9711 38.9226 30.8676 38.9226 25.8135C38.9226 20.7594 43.003 16.656 48.0287 16.656C53.0545 16.656 57.1349 20.7594 57.1349 25.8135C57.1349 30.8676 53.0545 34.9711 48.0287 34.9711ZM48.0287 13.7749C41.421 13.7749 36.0576 19.1685 36.0576 25.8135C36.0576 32.4586 41.421 37.8522 48.0287 37.8522C54.6365 37.8522 59.9998 32.4586 59.9998 25.8135C59.9998 19.1685 54.6365 13.7749 48.0287 13.7749Z" fill="#6A6A6A"/>
<path d="M26.9907 2.87142C30.367 2.87142 33.1065 5.62644 33.1065 9.02171C33.1065 12.417 30.367 15.1623 26.9907 15.1623C23.6145 15.1623 20.875 12.417 20.875 9.02171C20.8846 5.63614 23.6145 2.88113 26.9907 2.87142ZM26.9907 18.0337C31.9393 18.0337 35.9522 13.9982 35.9522 9.02171C35.9522 4.04522 31.9393 0 26.9907 0C22.0422 0 18.0293 4.03552 18.0293 9.012C18.0293 13.9885 22.0422 18.024 26.9907 18.024" fill="#6A6A6A"/>
<path d="M26.9907 2.87142C30.367 2.87142 33.1065 5.62644 33.1065 9.02171C33.1065 12.417 30.367 15.1623 26.9907 15.1623C23.6145 15.1623 20.875 12.417 20.875 9.02171C20.8846 5.63614 23.6145 2.88113 26.9907 2.87142ZM26.9907 18.0337C31.9393 18.0337 35.9522 13.9982 35.9522 9.02171C35.9522 4.04522 31.9393 0 26.9907 0C22.0422 0 18.0293 4.03552 18.0293 9.012C18.0293 13.9885 22.0422 18.024 26.9907 18.024V18.0337Z" fill="#6A6A6A"/>
<path d="M26.9515 39.4143H19.4756V31.8962C19.4756 31.0716 18.81 30.3926 17.9804 30.3926C17.1508 30.3926 16.4853 31.0619 16.4853 31.8962V39.4143H9.00934C8.1894 39.4143 7.51416 40.0836 7.51416 40.9179C7.51416 41.7522 8.17976 42.4215 9.00934 42.4215H16.4853V49.9396C16.4853 50.7642 17.1508 51.4432 17.9804 51.4432C18.81 51.4432 19.4756 50.7739 19.4756 49.9396V42.4215H26.9515C27.7715 42.4215 28.4467 41.7522 28.4467 40.9179C28.4467 40.0836 27.7811 39.4143 26.9515 39.4143Z" fill="#6A6A6A"/>
<path d="M26.9515 39.4143H19.4756V31.8962C19.4756 31.0716 18.81 30.3926 17.9804 30.3926C17.1508 30.3926 16.4853 31.0619 16.4853 31.8962V39.4143H9.00934C8.1894 39.4143 7.51416 40.0836 7.51416 40.9179C7.51416 41.7522 8.17976 42.4215 9.00934 42.4215H16.4853V49.9396C16.4853 50.7642 17.1508 51.4432 17.9804 51.4432C18.81 51.4432 19.4756 50.7739 19.4756 49.9396V42.4215H26.9515C27.7715 42.4215 28.4467 41.7522 28.4467 40.9179C28.4467 40.0836 27.7811 39.4143 26.9515 39.4143Z" fill="#6A6A6A"/>
<path d="M48.0296 30.8289C47.7402 30.8289 47.5087 30.5961 47.5087 30.3051V26.3375H43.5634C43.274 26.3375 43.0425 26.1047 43.0425 25.8136C43.0425 25.5226 43.274 25.2898 43.5634 25.2898H47.5087V21.3222C47.5087 21.0312 47.7402 20.7983 48.0296 20.7983C48.319 20.7983 48.5505 21.0312 48.5505 21.3222V25.2898H52.4959C52.7853 25.2898 53.0168 25.5226 53.0168 25.8136C53.0168 26.1047 52.7853 26.3375 52.4959 26.3375H48.5505V30.3051C48.5505 30.5961 48.319 30.8289 48.0296 30.8289Z" fill="#6A6A6A"/>
<path d="M26.99 12.5233C26.7006 12.5233 26.4691 12.2905 26.4691 11.9995V9.53552H24.0189C23.7296 9.53552 23.498 9.3027 23.498 9.01167C23.498 8.72065 23.7296 8.48783 24.0189 8.48783H26.4691V6.02384C26.4691 5.73282 26.7006 5.5 26.99 5.5C27.2794 5.5 27.5109 5.73282 27.5109 6.02384V8.48783H29.9611C30.2505 8.48783 30.482 8.72065 30.482 9.01167C30.482 9.3027 30.2505 9.53552 29.9611 9.53552H27.5109V11.9995C27.5109 12.2905 27.2794 12.5233 26.99 12.5233Z" fill="#6A6A6A"/>
</svg>
