<svg width="25" height="23" viewBox="0 0 25 23" fill="none" xmlns="http://www.w3.org/2000/svg">
<path d="M20.1443 0H4.85569C2.18409 0 0 2.00936 0 4.46724V18.5328C0 20.9906 2.18409 23 4.85569 23H20.1443C22.8159 23 25 20.9906 25 18.5328V4.46724C25 2.00936 22.8159 0 20.1443 0ZM7.96932 18.5507C6.92278 18.5507 5.86974 18.5507 4.82319 18.5507C4.78419 18.5507 4.75169 18.5507 4.70619 18.5447V9.05408H8.12533C8.12533 9.10192 8.13183 9.14977 8.13183 9.19163C8.13183 11.3086 8.13183 13.4256 8.13183 15.5426C8.13183 16.4935 8.13183 17.4444 8.13183 18.3952C8.13183 18.5088 8.10582 18.5507 7.96932 18.5507ZM8.34633 6.32111C8.25533 6.98492 7.74831 7.51118 7.01378 7.67863C6.81877 7.72049 6.61076 7.73843 6.40926 7.76235C5.77873 7.73843 5.23271 7.55902 4.83619 7.08658C4.17967 6.29121 4.40718 4.81409 5.92174 4.5091C6.43526 4.40744 6.94228 4.43734 7.4168 4.66459C8.07982 4.97556 8.43734 5.62741 8.34633 6.32111ZM20.5018 18.5387H17.0762C17.0762 18.467 17.0762 18.4012 17.0762 18.3354C17.0762 16.7207 17.0762 15.1061 17.0762 13.4914C17.0762 13.025 17.0307 12.5585 16.8032 12.1279C16.5432 11.6316 16.1141 11.3744 15.5161 11.3266C14.2551 11.2129 13.462 12.2236 13.462 13.0309C13.4685 14.3586 13.462 15.6862 13.462 17.0138C13.462 17.4862 13.462 17.9587 13.462 18.4251C13.462 18.5029 13.462 18.5567 13.345 18.5567C12.2725 18.5567 11.1999 18.5567 10.1274 18.5567C10.1014 18.5567 10.0689 18.5567 10.0364 18.5507V9.06604H13.462V10.3757C13.514 10.3219 13.54 10.298 13.5595 10.2741C14.3461 9.19163 15.4706 8.76703 16.8487 8.83879C17.5637 8.87467 18.2332 9.0481 18.8248 9.42486C19.5333 9.87338 19.9688 10.5073 20.2288 11.2488C20.4238 11.799 20.5083 12.3731 20.5083 12.9532C20.5083 14.7832 20.5083 16.6131 20.5083 18.4431C20.5083 18.4789 20.5083 18.5148 20.5018 18.5567V18.5387Z" fill="white"/>
</svg>
