<svg width="39" height="59" viewBox="0 0 39 59" fill="none" xmlns="http://www.w3.org/2000/svg">
<path d="M3.45423 13.3015C5.34372 14.5692 6.68211 16.56 7.11512 18.8281C7.22337 19.4026 7.65638 19.8482 8.22717 19.9671C10.5497 20.4524 12.2325 22.5422 12.2325 24.9292C12.2325 25.6918 12.0652 26.4247 11.7503 27.0982C11.4649 27.7123 11.642 28.4551 12.1931 28.8612C13.4823 29.8219 14.2302 31.3075 14.2302 32.9318C14.2302 35.7249 11.9668 38.0029 9.1916 38.0029C9.06366 38.0029 8.92589 38.0029 8.76843 37.983C8.00082 37.9236 7.3021 38.4981 7.23322 39.2706C6.97735 41.8655 5.58975 44.1435 3.46407 45.5598V13.3015H3.45423ZM17.0645 32.9318C17.0645 30.8222 16.2181 28.7819 14.7223 27.2864C14.9585 26.5238 15.0766 25.7314 15.0766 24.9292C15.0766 21.5419 12.882 18.4914 9.70333 17.4019C8.80779 14.0839 6.52466 11.4098 3.44439 10.0133V0H0V58.9901H3.45423V48.8283C6.72148 47.3327 9.10303 44.3911 9.86079 40.8256C13.9252 40.4789 17.0645 37.0718 17.0645 32.9219" fill="#6A6A6A"/>
<path d="M12.2323 7.58645C12.2323 7.00209 12.7046 6.51678 13.2951 6.51678C13.8856 6.51678 14.3579 6.99219 14.3579 7.58645C14.3579 8.18071 13.8856 8.65611 13.2951 8.65611C12.7046 8.65611 12.2323 8.18071 12.2323 7.58645ZM13.2951 11.5185C15.4503 11.5185 17.202 9.75549 17.202 7.58645C17.202 5.4174 15.4503 3.64453 13.2951 3.64453C11.1399 3.64453 9.38818 5.4075 9.38818 7.58645C9.38818 9.7654 11.1399 11.5185 13.2951 11.5185Z" fill="#6A6A6A"/>
<path d="M20.0462 14.5894C20.0462 14.005 20.5186 13.5197 21.1091 13.5197C21.6995 13.5197 22.1719 13.9951 22.1719 14.5894C22.1719 15.1836 21.6995 15.659 21.1091 15.659C20.5186 15.659 20.0462 15.1836 20.0462 14.5894ZM21.1091 18.5214C23.2643 18.5214 25.016 16.7584 25.016 14.5894C25.016 12.4203 23.2643 10.6475 21.1091 10.6475C18.9539 10.6475 17.2021 12.4104 17.2021 14.5894C17.2021 16.7683 18.9539 18.5214 21.1091 18.5214Z" fill="#6A6A6A"/>
<path d="M19.1896 44.9356C19.1896 45.5199 18.7172 46.0052 18.1267 46.0052C17.5363 46.0052 17.0639 45.5298 17.0639 44.9356C17.0639 44.3413 17.5363 43.8659 18.1267 43.8659C18.7172 43.8659 19.1896 44.3413 19.1896 44.9356ZM18.1267 40.9937C15.9715 40.9937 14.21 42.7566 14.21 44.9356C14.21 47.1145 15.9617 48.8676 18.1267 48.8676C20.2918 48.8676 22.0336 47.1046 22.0336 44.9356C22.0336 42.7665 20.2819 40.9937 18.1267 40.9937Z" fill="#6A6A6A"/>
<path d="M27.4857 27.0982C27.1609 26.4148 27.0034 25.6918 27.0034 24.9292C27.0034 22.5323 28.6863 20.4524 31.0088 19.9671C31.5796 19.8482 32.0126 19.4026 32.1208 18.8281C32.5243 16.6492 33.784 14.7277 35.5455 13.4501V45.4014C33.5478 43.9851 32.2488 41.7764 32.0126 39.2706C31.9437 38.5377 31.3139 37.9731 30.5955 37.9731C30.5561 37.9731 30.5167 37.9731 30.4774 37.9731C30.3199 37.983 30.1821 37.993 30.0542 37.993C27.279 37.993 25.0254 35.715 25.0254 32.9219C25.0254 31.3075 25.7635 29.8219 27.0527 28.8513C27.5939 28.4452 27.7809 27.7024 27.4955 27.0883M35.5455 0V10.1321C32.5932 11.5583 30.3986 14.1731 29.5228 17.4019C26.3441 18.4815 24.1495 21.5419 24.1495 24.9292C24.1495 25.7413 24.2676 26.5337 24.5038 27.2864C23.0178 28.772 22.1616 30.8222 22.1616 32.9318C22.1616 37.0818 25.3009 40.4987 29.3752 40.8454C30.1132 44.3218 32.4062 47.2139 35.5455 48.7391V59H38.9998V0H35.5455Z" fill="#6A6A6A"/>
</svg>
