<svg width="58" height="42" viewBox="0 0 58 42" fill="none" xmlns="http://www.w3.org/2000/svg">
<path d="M32.3932 2.81198V16.4423C32.3834 28.5885 22.5107 38.4792 10.3985 38.4987H2.8041V24.058C2.8041 12.3219 12.2874 2.81198 23.9906 2.81198H32.3834H32.3932ZM35.1972 18.6196V2.81198H55.1862V4.63781C55.1667 14.0111 47.5625 21.6366 38.2155 21.6561C36.5506 21.6561 35.1972 20.2892 35.1972 18.6294M34.2625 23.1305C34.282 23.0719 34.2918 23.0133 34.3112 22.9547C34.7981 23.4039 35.3822 23.7651 35.9956 24.019V24.8684L34.2723 23.1305H34.2625ZM38.7997 41.3205V35.1009C38.7997 34.7299 38.6537 34.3784 38.3908 34.105L32.3445 28.0514C32.6755 27.4266 32.9773 26.7821 33.25 26.128L36.4046 29.2329C36.6674 29.4965 37.0082 29.6625 37.3977 29.6429C37.5827 29.6429 37.7774 29.6039 37.9332 29.5355C38.459 29.3207 38.7997 28.813 38.7997 28.2467V24.4877C39.4618 24.4681 40.1336 24.4193 40.7957 24.3314V41.34H43.5998V23.7261C52.0705 21.3242 57.9805 13.5131 58 4.67687V0H23.9906C10.7393 0 0 10.7695 0 24.058V41.3107H10.3985C18.5966 41.3009 26.2105 37.2587 30.8256 30.4924L35.9859 35.6379V41.3205H38.79H38.7997Z" fill="#6A6A6A"/>
</svg>
