<svg width="16" height="16" viewBox="0 0 16 16" fill="none" xmlns="http://www.w3.org/2000/svg">
<g clip-path="url(#clip0_68_65)">
<path d="M16 1.42811V14.5701C16 14.9486 15.8501 15.3125 15.5813 15.5794C15.3143 15.8464 14.9504 15.9982 14.5719 15.9982H7.14423C6.35429 15.9982 5.71611 15.3582 5.71611 14.5701V11.9991C5.71611 11.6827 5.97211 11.4286 6.28663 11.4286C6.60114 11.4286 6.85714 11.6846 6.85714 11.9991V14.5701C6.85714 14.645 6.8864 14.7182 6.94126 14.773C6.99611 14.8279 7.06743 14.8571 7.14423 14.8571H14.5719C14.6469 14.8571 14.72 14.8279 14.7749 14.773C14.8297 14.7182 14.859 14.6469 14.859 14.5701V1.42811C14.859 1.35314 14.8297 1.28 14.7749 1.22514C14.72 1.17029 14.6487 1.14103 14.5719 1.14103H7.14423C6.98697 1.14103 6.85897 1.26903 6.85897 1.42629V3.99726C6.85897 4.3136 6.60297 4.56777 6.28846 4.56777C5.97394 4.56777 5.71794 4.31177 5.71794 3.99726V1.42811C5.71794 0.638171 6.35794 0 7.14606 0H14.5737C14.9522 0 15.3161 0.149943 15.5831 0.418743C15.8501 0.685714 16.0018 1.0496 16.0018 1.42811H16ZM8.46811 10.4229C8.36023 10.5307 8.29989 10.6752 8.29989 10.827C8.29989 10.9787 8.3584 11.1232 8.46629 11.2311C8.68754 11.456 9.05143 11.456 9.27451 11.2347L12.1033 8.40594C12.2112 8.29806 12.2734 8.15177 12.2734 8C12.2734 7.84823 12.2112 7.70194 12.1033 7.59406L9.27451 4.76526C9.05143 4.544 8.6912 4.544 8.46811 4.76526C8.36023 4.87314 8.29806 5.01943 8.29806 5.1712C8.29806 5.32297 8.36023 5.46926 8.46811 5.57714L10.3186 7.42766H0.570514C0.254171 7.42766 0 7.68366 0 7.99817C0 8.31269 0.256 8.56869 0.570514 8.56869H10.3186L8.46629 10.421L8.46811 10.4229Z" fill="white"/>
</g>
<defs>
<clipPath id="clip0_68_65">
<rect width="16" height="16" fill="white"/>
</clipPath>
</defs>
</svg>
