<svg width="74" height="35" viewBox="0 0 74 35" fill="none" xmlns="http://www.w3.org/2000/svg">
<path d="M69.0759 8.19823C67.7641 10.9505 64.4614 12.1334 61.7092 10.8217C57.0128 8.59643 51.3677 10.5991 49.1308 15.3073C47.8308 18.0595 44.528 19.2424 41.7758 17.9424C37.0794 15.7055 31.4343 17.7199 29.1974 22.428L29.1739 22.4631C27.0424 27.2298 22.2992 30.31 17.0991 30.31C14.2766 30.31 11.6649 29.4082 9.50993 27.8974C9.0766 24.6649 9.86129 21.4442 11.7469 18.7739C13.7379 15.9748 16.6892 14.1127 20.1208 13.5388L41.3307 9.53337C42.3965 9.33427 43.0875 8.31535 42.8884 7.24958C42.6893 6.18381 41.6587 5.49282 40.6046 5.69192L19.4298 9.69734C15.0145 10.4469 11.1496 12.8712 8.56128 16.5136C7.01533 18.6802 6.05497 21.128 5.66848 23.6929C4.54416 21.7604 3.90001 19.5118 3.90001 17.1226C3.90001 9.84959 9.81444 3.92345 17.0991 3.92345H66.1596C67.8578 3.92345 68.8065 4.62615 69.2164 6.20724C69.3921 6.89823 69.3335 7.60093 69.0641 8.20994M72.9993 5.22345C72.1326 1.90903 69.638 1.33722e-05 66.1479 1.33722e-05H17.1109C7.67119 -0.0116984 0 7.6712 0 17.0992C0 26.5271 7.67119 34.21 17.1109 34.21C23.8568 34.21 29.9938 30.228 32.7577 24.0676C34.0695 21.3271 37.3605 20.1559 40.1127 21.4559C44.8091 23.6812 50.4542 21.6784 52.6794 16.9703C53.9911 14.2181 57.2938 13.0352 60.0461 14.3352C64.7425 16.5721 70.3876 14.5577 72.6362 9.81445C73.2921 8.37391 73.4326 6.72255 73.0227 5.18831" fill="#6A6A6A"/>
</svg>
