<svg width="63" height="57" viewBox="0 0 63 57" fill="none" xmlns="http://www.w3.org/2000/svg">
<path d="M47.36 33.21C47.96 32.6 47.96 31.59 47.36 30.98C45.9 29.49 45.58 27.25 46.56 25.41C47.05 24.48 46.54 23.86 46 23.19C45.44 22.49 44.74 21.63 44.74 20.02C44.74 17.73 46.42 15.26 50.11 15.26C52.89 15.26 59.35 16.47 59.35 27.65C59.35 32.75 58.23 41.31 50.77 41.31H50.75C49.49 41.31 48.31 40.83 47.41 39.95C45.53 38.11 45.51 35.09 47.34 33.21M57.98 14.95C55.69 12.83 52.64 11.81 49.42 12.06C48.05 12.07 46.69 12.44 45.51 13.12C41.71 15.31 40.41 20.19 42.61 23.99L43.22 24.95C42.97 25.5 42.81 26.06 42.7 26.62C41.34 26.55 39.33 26.21 37.85 24.9C36.47 23.68 35.77 21.78 35.77 19.25V0H32.5V19.27C32.5 22.79 33.58 25.52 35.7 27.39C36.09 27.74 36.52 28.02 36.95 28.29C36.52 28.55 36.1 28.85 35.7 29.2C33.57 31.07 32.5 33.8 32.5 37.32V56.59H35.77V37.32C35.77 34.79 36.47 32.89 37.85 31.67C39.41 30.29 41.57 29.98 42.92 29.94C43.18 30.73 43.59 31.48 44.15 32.13C43.27 33.45 42.81 34.97 42.81 36.55C42.81 41.59 47.13 44.6 51.31 44.6C54.26 44.6 56.97 43.21 58.95 40.68C61.29 37.69 62.52 33.19 62.52 27.65C62.52 22.11 60.95 17.7 57.98 14.96" fill="#6A6A6A"/>
<path d="M15.98 25.41C16.96 27.25 16.64 29.49 15.18 30.98C14.58 31.59 14.58 32.6 15.18 33.21C17.02 35.09 16.99 38.11 15.11 39.94C14.22 40.82 13.03 41.3 11.78 41.3H11.76C4.3 41.3 3.18 32.74 3.18 27.64C3.18 16.45 9.64 15.25 12.42 15.25C16.11 15.25 17.79 17.72 17.79 20.01C17.79 21.61 17.09 22.48 16.53 23.18C15.99 23.85 15.48 24.48 15.97 25.4M26.75 19.25C26.75 21.78 26.05 23.68 24.67 24.9C23.19 26.21 21.18 26.55 19.82 26.62C19.71 26.06 19.55 25.5 19.3 24.95L19.91 23.98C22.1 20.18 20.8 15.31 17 13.12C15.81 12.43 14.45 12.06 13.11 12.06C9.87 11.8 6.82 12.83 4.53 14.94C1.57 17.7 0 22.09 0 27.65C0 33.21 1.24 37.7 3.57 40.68C5.55 43.21 8.26 44.6 11.21 44.6C15.39 44.6 19.72 41.59 19.72 36.55C19.72 34.97 19.26 33.44 18.38 32.13C18.95 31.48 19.35 30.73 19.61 29.94C20.97 29.98 23.12 30.29 24.68 31.67C26.06 32.89 26.76 34.79 26.76 37.32V56.58H30.03V37.32C30.03 33.8 28.95 31.06 26.83 29.2C26.43 28.85 26.01 28.56 25.59 28.29C26.02 28.03 26.44 27.74 26.83 27.39C28.95 25.52 30.03 22.79 30.03 19.27V0H26.76V19.27L26.75 19.25Z" fill="#6A6A6A"/>
</svg>
