<svg width="25" height="27" viewBox="0 0 25 27" fill="none" xmlns="http://www.w3.org/2000/svg">
<path d="M15.7374 1.05071C22.4166 2.91709 26.3719 10.0378 24.5608 16.9336C22.7788 23.7395 15.8751 27.8695 9.35534 26.0481C2.59655 24.1593 -1.37325 17.091 0.437787 10.1652C2.23434 3.29936 9.10904 -0.800671 15.7374 1.05071ZM15.8389 19.9468C16.585 18.4927 17.1645 17.0011 17.5919 15.4195L17.2877 15.3371C14.687 14.6175 12.0791 13.898 9.47849 13.1709C9.37707 13.1409 9.26841 13.1109 9.17424 13.066C8.74683 12.8561 8.93518 12.1815 9.40605 12.2415C9.49298 12.2565 9.58715 12.2789 9.67408 12.3089C12.3906 13.0585 15.1 13.8155 17.8165 14.5651C18.2077 12.9535 18.425 11.3645 18.483 9.72298C15.2738 9.22079 12.1878 8.32882 9.1525 7.13704C7.52257 10.3526 6.64603 13.7406 6.50114 17.3609C9.7103 17.9006 12.8036 18.755 15.8316 19.9543L15.8389 19.9468ZM6.45768 18.2528C6.55185 19.1373 6.60981 19.9693 6.7402 20.7863C6.93579 21.9931 7.27627 23.1474 8.0369 24.1218C8.73234 25.0138 9.62337 25.4485 10.7245 25.1637C11.2098 25.0362 11.7024 24.8189 12.1226 24.5415C13.5497 23.6046 14.5204 22.218 15.4115 20.7413C12.521 19.5795 9.56542 18.785 6.45768 18.2603V18.2528ZM18.5047 8.82353C18.4685 8.29135 18.4468 7.79665 18.396 7.30194C18.2656 6.02771 18.0121 4.78346 17.4036 3.64415C16.585 1.98765 14.9696 1.32055 13.3541 2.24249C11.6662 3.16444 10.5868 4.69352 9.57991 6.33503C12.4776 7.47434 15.4259 8.29884 18.4975 8.81603L18.5047 8.82353ZM16.6792 20.2616C16.7226 20.2916 16.7371 20.3141 16.7589 20.3216C17.9904 20.9062 19.2146 21.4909 20.4461 22.083C20.5765 22.143 20.649 22.1205 20.7432 22.0231C21.6777 21.0412 22.4455 19.9318 23.0106 18.6801C23.2424 18.1704 23.4235 17.6307 23.6336 17.091L18.4395 15.6519C17.9904 17.2484 17.4181 18.785 16.6864 20.2616H16.6792ZM1.19842 10.8698C1.17669 10.9148 1.1622 10.9298 1.1622 10.9522C0.75653 12.8561 0.79275 14.7525 1.27811 16.6413C1.32157 16.7987 1.40126 16.8287 1.53165 16.8437C2.43717 16.9111 3.34269 16.9861 4.24821 17.0686C4.70459 17.106 5.15373 17.1735 5.63909 17.226C5.70429 15.547 5.96508 13.913 6.34177 12.3014C4.61042 11.8217 2.90804 11.3495 1.19842 10.8773V10.8698ZM8.33391 6.79975C8.29045 6.76976 8.26872 6.75477 8.25423 6.74728C7.02997 6.17013 5.80571 5.59297 4.58869 5.00833C4.45829 4.94836 4.37861 4.95586 4.26995 5.06079C3.3934 5.97524 2.6545 7.00962 2.11119 8.17142C1.84315 8.74857 1.62583 9.35571 1.37228 9.97034C3.13986 10.4575 4.84948 10.9298 6.58083 11.4095C7.02997 9.81293 7.59501 8.27636 8.34116 6.79975H8.33391ZM18.6713 14.7599C20.4027 15.2397 22.1123 15.7119 23.8219 16.1841C23.8364 16.1541 23.8509 16.1391 23.8509 16.1241C24.2566 14.2203 24.2131 12.3239 23.735 10.4351C23.6915 10.2702 23.6118 10.2552 23.4742 10.2402C22.5687 10.1652 21.6632 10.0903 20.7504 10.0078C20.294 9.96284 19.8449 9.90287 19.3668 9.85041C19.2943 11.5219 19.048 13.1409 18.6641 14.7525L18.6713 14.7599ZM1.64756 17.7207C1.9663 19.6545 5.25515 23.5821 6.87784 24.0394C6.675 23.5372 6.4287 23.0125 6.2476 22.4728C5.79846 21.1386 5.64633 19.7519 5.63184 18.3428C5.63184 18.1704 5.58114 18.1104 5.41452 18.0954C5.01609 18.058 4.62491 17.9905 4.22648 17.953C3.37167 17.8706 2.50961 17.8031 1.64756 17.7207ZM23.4018 9.3707C22.8874 7.97654 22.192 6.76227 21.2792 5.66793C20.3809 4.59608 18.6061 3.12696 18.0918 3.05201C18.6061 3.94397 18.9394 4.90339 19.0987 5.91528C19.2581 6.91967 19.345 7.93156 19.4682 8.95845C19.6927 8.98843 19.9535 9.0409 20.2216 9.07088C21.2647 9.17581 22.3079 9.26576 23.409 9.3632L23.4018 9.3707ZM12.2675 25.5384C14.0133 25.9732 18.9031 24.2043 19.8956 22.7726C18.6858 22.203 17.4905 21.6333 16.2808 21.0636C15.2231 22.8626 14.0351 24.4741 12.2675 25.5384ZM12.7384 1.54541C9.88416 1.50794 7.35595 2.41489 5.08129 4.30375C6.33453 4.89589 7.53706 5.46555 8.74683 6.03521C9.79724 4.24379 10.9925 2.63226 12.7384 1.54541Z" fill="white"/>
</svg>
