<svg width="34" height="23" viewBox="0 0 34 23" fill="none" xmlns="http://www.w3.org/2000/svg">
<path fill-rule="evenodd" clip-rule="evenodd" d="M4.95589 0.427143C2.32308 0.624286 0.332408 2.69429 0.203977 5.24254C0.0982113 7.34175 0 9.75857 0 11.427C0 13.0954 0.101989 15.567 0.207755 17.6844C0.336185 20.1998 2.27775 22.2552 4.87279 22.4852C7.74736 22.7408 11.9025 23 16.9981 23C22.0938 23 26.2262 22.7444 29.1008 22.4889C31.7071 22.2552 33.6525 20.1889 33.7809 17.6625C33.8905 15.4356 34 12.8837 34 11.427C34 9.97032 33.8942 7.47683 33.7847 5.26444C33.66 2.70524 31.6656 0.624286 29.0252 0.423492C26.196 0.208095 22.1202 0 17.0019 0C11.8836 0 7.78136 0.211746 4.95589 0.427143ZM13.5985 6.55317L22.362 11.4306L13.5985 16.3081V6.55317Z" fill="white"/>
</svg>
