<svg width="149" height="65" viewBox="0 0 149 65" fill="none" xmlns="http://www.w3.org/2000/svg">
<path d="M145 4.5L85 64.5H0.5" stroke="#EE2737"/>


<path d="M1.65 60V49.065H6.645C8.655 49.065 9.54 50.175 9.54 51.84C9.54 52.995 8.985 53.925 7.965 54.315V54.435C9.225 54.75 9.81 55.755 9.81 57.135C9.81 58.86 8.625 60 6.51 60H1.65ZM2.625 53.985H6.72C7.815 53.985 8.535 53.385 8.535 52.365V51.555C8.535 50.625 7.905 49.98 6.705 49.98H2.625V53.985ZM2.625 59.085H6.57C7.89 59.085 8.775 58.44 8.775 57.465V56.58C8.775 55.5 7.995 54.9 6.84 54.9H2.625V59.085ZM11.4434 57.78C11.4434 56.25 12.5234 55.395 14.2634 55.395H16.6934V54.75C16.6934 53.355 15.8684 52.875 14.7284 52.875C13.4084 52.875 12.7484 53.505 12.6884 54.495H11.7584C11.8334 53.025 12.9584 52.095 14.7734 52.095C17.6234 52.095 17.6234 54.36 17.6234 54.765V59.265H18.8534V60H17.6384C16.9334 60 16.7534 59.655 16.7534 59.13V58.68H16.6634C16.3034 59.565 15.2534 60.15 13.9334 60.15C12.3434 60.15 11.4434 59.205 11.4434 57.78ZM12.4184 57.45V57.99C12.4184 58.89 13.0784 59.34 14.0534 59.34C15.6884 59.34 16.6934 58.215 16.6934 56.655V56.19H14.2634C13.0784 56.19 12.4184 56.715 12.4184 57.45ZM20.6295 60V52.245H21.4545L21.5895 53.7H21.6795C22.1595 52.71 23.1495 52.095 24.3195 52.095C25.9695 52.095 27.0195 53.28 27.0195 55.185V60H26.0745V55.275C26.0745 53.715 25.3545 52.995 24.0945 52.995C22.6095 52.995 21.5745 54.18 21.5745 55.95V60H20.6295ZM32.3497 60.15C30.2947 60.15 29.0947 58.725 29.0947 56.19C29.0947 53.655 30.2947 52.23 32.3497 52.23C33.6697 52.23 34.6747 52.785 35.1847 53.73H35.2747V49.065H36.2197V60H35.3497L35.2747 58.65H35.1847C34.6747 59.595 33.6697 60.15 32.3497 60.15ZM32.5297 59.34C34.1497 59.34 35.2747 58.29 35.2747 56.73V55.65C35.2747 54.09 34.1497 53.04 32.5297 53.04C31.0147 53.04 30.0697 53.97 30.0697 55.35V57.03C30.0697 58.41 31.0147 59.34 32.5297 59.34ZM45.2661 52.245V60H44.4861L44.3361 58.56H44.2311C43.8111 59.49 42.7911 60.15 41.5461 60.15C40.0161 60.15 38.9811 59.145 38.9811 57.225V52.245H39.9261V57.12C39.9261 58.62 40.5861 59.325 41.7861 59.325C43.3311 59.325 44.3211 58.095 44.3211 56.295V52.245H45.2661ZM48.1392 60V52.245H48.9642L49.0992 53.7H49.1892C49.6692 52.71 50.6592 52.095 51.8292 52.095C53.4792 52.095 54.5292 53.28 54.5292 55.185V60H53.5842V55.275C53.5842 53.715 52.8642 52.995 51.6042 52.995C50.1192 52.995 49.0842 54.18 49.0842 55.95V60H48.1392ZM61.0745 58.62C62.4845 58.62 63.3245 59.325 63.3245 60.465C63.3245 61.935 61.9445 62.655 59.7395 62.655C57.5195 62.655 56.4845 61.905 56.4845 60.78C56.4845 59.955 56.9645 59.43 57.6845 59.205V59.115C57.2495 58.965 56.9495 58.56 56.9495 58.095C56.9495 57.525 57.3545 57.015 57.9395 56.865V56.775C57.2195 56.325 56.8295 55.56 56.8295 54.675C56.8295 53.13 57.9995 52.095 59.6495 52.095C60.1895 52.095 60.6995 52.2 61.0745 52.38V52.14C61.0745 51.555 61.4345 51.33 61.9745 51.33H63.2795V52.14H61.7945V52.905C62.1845 53.31 62.4695 53.955 62.4695 54.705C62.4695 56.235 61.3145 57.255 59.7245 57.255C59.3045 57.255 58.9445 57.195 58.6295 57.12C58.1045 57.18 57.8195 57.51 57.8195 57.9C57.8195 58.62 58.5695 58.62 58.8995 58.62H61.0745ZM57.7745 54.99C57.7745 55.92 58.5245 56.535 59.6495 56.535C60.7745 56.535 61.5245 55.92 61.5245 54.99V54.39C61.5245 53.46 60.7745 52.83 59.6495 52.83C58.5245 52.83 57.7745 53.46 57.7745 54.39V54.99ZM59.7845 61.905C61.6595 61.905 62.3945 61.35 62.3945 60.525C62.3945 59.46 61.2695 59.46 61.0595 59.46H58.7945C57.8195 59.46 57.3695 59.94 57.3695 60.615C57.3695 61.515 58.1495 61.905 59.7845 61.905Z" fill="#EE2737"/>
</svg>
