<svg width="131" height="77" viewBox="0 0 131 77" fill="none" xmlns="http://www.w3.org/2000/svg">
<path d="M4 73.5L59 18.5H130.5" stroke="#EE2737"/>


<path d="M60.735 9.615C60.735 5.955 62.835 3.93 65.805 3.93C68.145 3.93 69.96 5.25 70.35 7.215H69.33C69.045 5.79 67.65 4.845 65.835 4.845C63.51 4.845 61.77 6.39 61.77 8.76V10.47C61.77 12.675 63.33 14.265 65.655 14.265C67.98 14.265 69.54 12.645 69.54 10.2H65.325V9.285H70.68V15H69.87L69.72 12.93H69.615C68.79 14.445 67.26 15.15 65.55 15.15C62.49 15.15 60.735 12.945 60.735 9.615ZM72.7617 11.13C72.7617 8.55 74.2767 7.095 76.4217 7.095C78.5667 7.095 80.0817 8.55 80.0817 11.13C80.0817 13.545 78.7467 15.15 76.4217 15.15C74.0967 15.15 72.7617 13.545 72.7617 11.13ZM73.7367 11.76C73.7367 13.44 74.9817 14.34 76.4217 14.34C77.8617 14.34 79.1067 13.44 79.1067 11.76V10.56C79.1067 8.985 77.9517 7.92 76.4217 7.92C74.8917 7.92 73.7367 8.985 73.7367 10.56V11.76ZM83.1851 7.245H85.9001V8.055H83.2151V15H82.2701V8.115C82.2701 7.695 82.4351 7.245 83.1851 7.245ZM86.4141 11.13C86.4141 8.55 87.9291 7.095 90.0741 7.095C92.2191 7.095 93.7341 8.55 93.7341 11.13C93.7341 13.545 92.3991 15.15 90.0741 15.15C87.7491 15.15 86.4141 13.545 86.4141 11.13ZM87.3891 11.76C87.3891 13.44 88.6341 14.34 90.0741 14.34C91.5141 14.34 92.7591 13.44 92.7591 11.76V10.56C92.7591 8.985 91.6041 7.92 90.0741 7.92C88.5441 7.92 87.3891 8.985 87.3891 10.56V11.76ZM95.9224 15V7.245H96.7474L96.8824 8.7H96.9724C97.4524 7.71 98.4424 7.095 99.6124 7.095C101.262 7.095 102.312 8.28 102.312 10.185V15H101.367V10.275C101.367 8.715 100.647 7.995 99.3874 7.995C97.9024 7.995 96.8674 9.18 96.8674 10.95V15H95.9224ZM105.998 14.175H107.678V15H105.983C105.323 15 105.068 14.655 105.068 14.145V8.055H103.643V7.245H105.068V4.62H105.998V7.245H107.663V8.055H105.998V14.175ZM109.104 12.78C109.104 11.25 110.184 10.395 111.924 10.395H114.354V9.75C114.354 8.355 113.529 7.875 112.389 7.875C111.069 7.875 110.409 8.505 110.349 9.495H109.419C109.494 8.025 110.619 7.095 112.434 7.095C115.284 7.095 115.284 9.36 115.284 9.765V14.265H116.514V15H115.299C114.594 15 114.414 14.655 114.414 14.13V13.68H114.324C113.964 14.565 112.914 15.15 111.594 15.15C110.004 15.15 109.104 14.205 109.104 12.78ZM110.079 12.45V12.99C110.079 13.89 110.739 14.34 111.714 14.34C113.349 14.34 114.354 13.215 114.354 11.655V11.19H111.924C110.739 11.19 110.079 11.715 110.079 12.45ZM118.291 15V4.065H119.221V15H118.291ZM121.263 11.13C121.263 8.55 122.778 7.095 124.923 7.095C127.068 7.095 128.583 8.55 128.583 11.13C128.583 13.545 127.248 15.15 124.923 15.15C122.598 15.15 121.263 13.545 121.263 11.13ZM122.238 11.76C122.238 13.44 123.483 14.34 124.923 14.34C126.363 14.34 127.608 13.44 127.608 11.76V10.56C127.608 8.985 126.453 7.92 124.923 7.92C123.393 7.92 122.238 8.985 122.238 10.56V11.76Z" fill="#EE2737"/>
</svg>
