<svg width="129" height="23" viewBox="0 0 129 23" fill="none" xmlns="http://www.w3.org/2000/svg">
<path d="M4 19H129" stroke="#EE2737"/>


<path d="M22.65 15V4.065H27.255C29.565 4.065 30.585 5.415 30.585 7.425C30.585 9.615 29.445 10.845 27.255 10.845H23.625V15H22.65ZM23.625 9.945H27.3C28.74 9.945 29.55 9.165 29.55 7.995V6.795C29.55 5.655 28.74 5.01 27.51 5.01H23.625V9.945ZM31.5938 12.78C31.5938 11.25 32.6738 10.395 34.4138 10.395H36.8438V9.75C36.8438 8.355 36.0188 7.875 34.8788 7.875C33.5588 7.875 32.8988 8.505 32.8388 9.495H31.9088C31.9838 8.025 33.1088 7.095 34.9238 7.095C37.7738 7.095 37.7738 9.36 37.7738 9.765V14.265H39.0038V15H37.7888C37.0838 15 36.9038 14.655 36.9038 14.13V13.68H36.8138C36.4538 14.565 35.4038 15.15 34.0838 15.15C32.4938 15.15 31.5938 14.205 31.5938 12.78ZM32.5688 12.45V12.99C32.5688 13.89 33.2288 14.34 34.2038 14.34C35.8388 14.34 36.8438 13.215 36.8438 11.655V11.19H34.4138C33.2288 11.19 32.5688 11.715 32.5688 12.45ZM40.7798 15V7.245H41.6048L41.7398 8.7H41.8298C42.3098 7.71 43.2998 7.095 44.4698 7.095C46.1198 7.095 47.1698 8.28 47.1698 10.185V15H46.2248V10.275C46.2248 8.715 45.5048 7.995 44.2448 7.995C42.7598 7.995 41.7248 9.18 41.7248 10.95V15H40.7798ZM53.7151 13.62C55.1251 13.62 55.9651 14.325 55.9651 15.465C55.9651 16.935 54.5851 17.655 52.3801 17.655C50.1601 17.655 49.1251 16.905 49.1251 15.78C49.1251 14.955 49.6051 14.43 50.3251 14.205V14.115C49.8901 13.965 49.5901 13.56 49.5901 13.095C49.5901 12.525 49.9951 12.015 50.5801 11.865V11.775C49.8601 11.325 49.4701 10.56 49.4701 9.675C49.4701 8.13 50.6401 7.095 52.2901 7.095C52.8301 7.095 53.3401 7.2 53.7151 7.38V7.14C53.7151 6.555 54.0751 6.33 54.6151 6.33H55.9201V7.14H54.4351V7.905C54.8251 8.31 55.1101 8.955 55.1101 9.705C55.1101 11.235 53.9551 12.255 52.3651 12.255C51.9451 12.255 51.5851 12.195 51.2701 12.12C50.7451 12.18 50.4601 12.51 50.4601 12.9C50.4601 13.62 51.2101 13.62 51.5401 13.62H53.7151ZM50.4151 9.99C50.4151 10.92 51.1651 11.535 52.2901 11.535C53.4151 11.535 54.1651 10.92 54.1651 9.99V9.39C54.1651 8.46 53.4151 7.83 52.2901 7.83C51.1651 7.83 50.4151 8.46 50.4151 9.39V9.99ZM52.4251 16.905C54.3001 16.905 55.0351 16.35 55.0351 15.525C55.0351 14.46 53.9101 14.46 53.7001 14.46H51.4351C50.4601 14.46 50.0101 14.94 50.0101 15.615C50.0101 16.515 50.7901 16.905 52.4251 16.905ZM62.932 15L60.187 10.935L58.717 12.405V15H57.772V4.065H58.717V11.22L62.632 7.245H63.877L60.847 10.275L64.027 15H62.932ZM65.0361 12.78C65.0361 11.25 66.1161 10.395 67.8561 10.395H70.2861V9.75C70.2861 8.355 69.4611 7.875 68.3211 7.875C67.0011 7.875 66.3411 8.505 66.2811 9.495H65.3511C65.4261 8.025 66.5511 7.095 68.3661 7.095C71.2161 7.095 71.2161 9.36 71.2161 9.765V14.265H72.4461V15H71.2311C70.5261 15 70.3461 14.655 70.3461 14.13V13.68H70.2561C69.8961 14.565 68.8461 15.15 67.5261 15.15C65.9361 15.15 65.0361 14.205 65.0361 12.78ZM66.0111 12.45V12.99C66.0111 13.89 66.6711 14.34 67.6461 14.34C69.2811 14.34 70.2861 13.215 70.2861 11.655V11.19H67.8561C66.6711 11.19 66.0111 11.715 66.0111 12.45ZM74.2222 15V4.065H75.1522V15H74.2222ZM81.8443 15V4.065H86.4493C88.7593 4.065 89.7793 5.415 89.7793 7.425C89.7793 9.615 88.6393 10.845 86.4493 10.845H82.8193V15H81.8443ZM82.8193 9.945H86.4943C87.9343 9.945 88.7443 9.165 88.7443 7.995V6.795C88.7443 5.655 87.9343 5.01 86.7043 5.01H82.8193V9.945ZM91.6978 5.595V4.065H92.6278V5.595H91.6978ZM91.6978 15V7.245H92.6278V15H91.6978ZM95.5064 15V7.245H96.3314L96.4664 8.7H96.5564C97.0364 7.71 98.0264 7.095 99.1964 7.095C100.846 7.095 101.896 8.28 101.896 10.185V15H100.951V10.275C100.951 8.715 100.231 7.995 98.9714 7.995C97.4864 7.995 96.4514 9.18 96.4514 10.95V15H95.5064ZM103.972 12.78C103.972 11.25 105.052 10.395 106.792 10.395H109.222V9.75C109.222 8.355 108.397 7.875 107.257 7.875C105.937 7.875 105.277 8.505 105.217 9.495H104.287C104.362 8.025 105.487 7.095 107.302 7.095C110.152 7.095 110.152 9.36 110.152 9.765V14.265H111.382V15H110.167C109.462 15 109.282 14.655 109.282 14.13V13.68H109.192C108.832 14.565 107.782 15.15 106.462 15.15C104.872 15.15 103.972 14.205 103.972 12.78ZM104.947 12.45V12.99C104.947 13.89 105.607 14.34 106.582 14.34C108.217 14.34 109.222 13.215 109.222 11.655V11.19H106.792C105.607 11.19 104.947 11.715 104.947 12.45ZM113.158 15V7.245H113.983L114.118 8.7H114.208C114.688 7.71 115.678 7.095 116.848 7.095C118.498 7.095 119.548 8.28 119.548 10.185V15H118.603V10.275C118.603 8.715 117.883 7.995 116.623 7.995C115.138 7.995 114.103 9.18 114.103 10.95V15H113.158ZM126.093 13.62C127.503 13.62 128.343 14.325 128.343 15.465C128.343 16.935 126.963 17.655 124.758 17.655C122.538 17.655 121.503 16.905 121.503 15.78C121.503 14.955 121.983 14.43 122.703 14.205V14.115C122.268 13.965 121.968 13.56 121.968 13.095C121.968 12.525 122.373 12.015 122.958 11.865V11.775C122.238 11.325 121.848 10.56 121.848 9.675C121.848 8.13 123.018 7.095 124.668 7.095C125.208 7.095 125.718 7.2 126.093 7.38V7.14C126.093 6.555 126.453 6.33 126.993 6.33H128.298V7.14H126.813V7.905C127.203 8.31 127.488 8.955 127.488 9.705C127.488 11.235 126.333 12.255 124.743 12.255C124.323 12.255 123.963 12.195 123.648 12.12C123.123 12.18 122.838 12.51 122.838 12.9C122.838 13.62 123.588 13.62 123.918 13.62H126.093ZM122.793 9.99C122.793 10.92 123.543 11.535 124.668 11.535C125.793 11.535 126.543 10.92 126.543 9.99V9.39C126.543 8.46 125.793 7.83 124.668 7.83C123.543 7.83 122.793 8.46 122.793 9.39V9.99ZM124.803 16.905C126.678 16.905 127.413 16.35 127.413 15.525C127.413 14.46 126.288 14.46 126.078 14.46H123.813C122.838 14.46 122.388 14.94 122.388 15.615C122.388 16.515 123.168 16.905 124.803 16.905Z" fill="#EE2737"/>
</svg>
