<svg width="98" height="48" viewBox="0 0 98 48" fill="none" xmlns="http://www.w3.org/2000/svg">
<path d="M4 44.5L30.5 18H97.5" stroke="#EE2737"/>


<path d="M35.65 15V4.065H37.045L40.765 12.615H40.84L44.59 4.065H45.97V15H44.995V8.61L45.115 5.325H45.025L40.81 14.79L36.595 5.325H36.505L36.625 8.61V15H35.65ZM48.373 12.78C48.373 11.25 49.453 10.395 51.193 10.395H53.623V9.75C53.623 8.355 52.798 7.875 51.658 7.875C50.338 7.875 49.678 8.505 49.618 9.495H48.688C48.763 8.025 49.888 7.095 51.703 7.095C54.553 7.095 54.553 9.36 54.553 9.765V14.265H55.783V15H54.568C53.863 15 53.683 14.655 53.683 14.13V13.68H53.593C53.233 14.565 52.183 15.15 50.863 15.15C49.273 15.15 48.373 14.205 48.373 12.78ZM49.348 12.45V12.99C49.348 13.89 50.008 14.34 50.983 14.34C52.618 14.34 53.623 13.215 53.623 11.655V11.19H51.193C50.008 11.19 49.348 11.715 49.348 12.45ZM58.6259 14.175H60.3059V15H58.6109C57.9509 15 57.6959 14.655 57.6959 14.145V8.055H56.2709V7.245H57.6959V4.62H58.6259V7.245H60.2909V8.055H58.6259V14.175ZM61.7324 12.78C61.7324 11.25 62.8124 10.395 64.5524 10.395H66.9824V9.75C66.9824 8.355 66.1574 7.875 65.0174 7.875C63.6974 7.875 63.0374 8.505 62.9774 9.495H62.0474C62.1224 8.025 63.2474 7.095 65.0624 7.095C67.9124 7.095 67.9124 9.36 67.9124 9.765V14.265H69.1424V15H67.9274C67.2224 15 67.0424 14.655 67.0424 14.13V13.68H66.9524C66.5924 14.565 65.5424 15.15 64.2224 15.15C62.6324 15.15 61.7324 14.205 61.7324 12.78ZM62.7074 12.45V12.99C62.7074 13.89 63.3674 14.34 64.3424 14.34C65.9774 14.34 66.9824 13.215 66.9824 11.655V11.19H64.5524C63.3674 11.19 62.7074 11.715 62.7074 12.45ZM71.8335 7.245H74.5485V8.055H71.8635V15H70.9185V8.115C70.9185 7.695 71.0835 7.245 71.8335 7.245ZM75.0625 12.78C75.0625 11.25 76.1425 10.395 77.8825 10.395H80.3125V9.75C80.3125 8.355 79.4875 7.875 78.3475 7.875C77.0275 7.875 76.3675 8.505 76.3075 9.495H75.3775C75.4525 8.025 76.5775 7.095 78.3925 7.095C81.2425 7.095 81.2425 9.36 81.2425 9.765V14.265H82.4725V15H81.2575C80.5525 15 80.3725 14.655 80.3725 14.13V13.68H80.2825C79.9225 14.565 78.8725 15.15 77.5525 15.15C75.9625 15.15 75.0625 14.205 75.0625 12.78ZM76.0375 12.45V12.99C76.0375 13.89 76.6975 14.34 77.6725 14.34C79.3075 14.34 80.3125 13.215 80.3125 11.655V11.19H77.8825C76.6975 11.19 76.0375 11.715 76.0375 12.45ZM84.2486 15V7.245H85.0586L85.1936 8.7H85.2986C85.7936 7.545 86.7236 7.095 87.7586 7.095C88.9586 7.095 89.7836 7.86 90.0386 8.82H90.1436C90.6086 7.65 91.5836 7.095 92.7386 7.095C94.3136 7.095 95.3336 8.145 95.3336 10.095V15H94.3886V10.23C94.3886 8.565 93.6386 7.92 92.4986 7.92C91.0736 7.92 90.2786 9.135 90.2786 10.965V15H89.3336V10.29C89.3336 8.685 88.6736 7.92 87.4886 7.92C86.1086 7.92 85.1936 9.135 85.1936 10.965V15H84.2486Z" fill="#EE2737"/>
</svg>
