<svg width="111" height="72" viewBox="0 0 111 72" fill="none" xmlns="http://www.w3.org/2000/svg">
<path d="M4 68.5L53.5 19H111" stroke="#EE2737"/>
<circle cx="4" cy="68" r="4" fill="#EE2737"/>
<path d="M72.24 4.065H73.185V14.115C73.185 14.34 73.17 15 72.285 15H69.24V14.085H72.24V4.065ZM75.5068 12.78C75.5068 11.25 76.5868 10.395 78.3268 10.395H80.7568V9.75C80.7568 8.355 79.9318 7.875 78.7918 7.875C77.4718 7.875 76.8118 8.505 76.7518 9.495H75.8218C75.8968 8.025 77.0218 7.095 78.8368 7.095C81.6868 7.095 81.6868 9.36 81.6868 9.765V14.265H82.9168V15H81.7018C80.9968 15 80.8168 14.655 80.8168 14.13V13.68H80.7268C80.3668 14.565 79.3168 15.15 77.9968 15.15C76.4068 15.15 75.5068 14.205 75.5068 12.78ZM76.4818 12.45V12.99C76.4818 13.89 77.1418 14.34 78.1168 14.34C79.7518 14.34 80.7568 13.215 80.7568 11.655V11.19H78.3268C77.1418 11.19 76.4818 11.715 76.4818 12.45ZM84.6929 15V7.245H85.5029L85.6379 8.7H85.7429C86.2379 7.545 87.1679 7.095 88.2029 7.095C89.4029 7.095 90.2279 7.86 90.4829 8.82H90.5879C91.0529 7.65 92.0279 7.095 93.1829 7.095C94.7579 7.095 95.7779 8.145 95.7779 10.095V15H94.8329V10.23C94.8329 8.565 94.0829 7.92 92.9429 7.92C91.5179 7.92 90.7229 9.135 90.7229 10.965V15H89.7779V10.29C89.7779 8.685 89.1179 7.92 87.9329 7.92C86.5529 7.92 85.6379 9.135 85.6379 10.965V15H84.6929ZM98.5357 15V4.065H99.4807V8.76H99.5707C100.006 7.755 101.116 7.095 102.331 7.095C104.626 7.095 105.661 8.73 105.661 11.16C105.661 13.725 104.461 15.15 102.226 15.15C101.086 15.15 100.036 14.58 99.5707 13.65H99.4807L99.4357 15H98.5357ZM99.4807 11.73C99.4807 13.185 100.651 14.34 102.226 14.34C103.741 14.34 104.686 13.41 104.686 12.03V10.29C104.686 8.865 103.741 7.92 102.226 7.92C100.636 7.92 99.4807 9.045 99.4807 10.59V11.73ZM107.852 5.595V4.065H108.782V5.595H107.852ZM107.852 15V7.245H108.782V15H107.852Z" fill="#EE2737"/>
</svg>
