<svg width="113" height="50" viewBox="0 0 113 50" fill="none" xmlns="http://www.w3.org/2000/svg">
<path d="M5 47L32.3846 19H112.5" stroke="#EE2737"/>


<path d="M33.65 15V4.065H38.645C40.655 4.065 41.54 5.175 41.54 6.84C41.54 7.995 40.985 8.925 39.965 9.315V9.435C41.225 9.75 41.81 10.755 41.81 12.135C41.81 13.86 40.625 15 38.51 15H33.65ZM34.625 8.985H38.72C39.815 8.985 40.535 8.385 40.535 7.365V6.555C40.535 5.625 39.905 4.98 38.705 4.98H34.625V8.985ZM34.625 14.085H38.57C39.89 14.085 40.775 13.44 40.775 12.465V11.58C40.775 10.5 39.995 9.9 38.84 9.9H34.625V14.085ZM43.4434 12.78C43.4434 11.25 44.5234 10.395 46.2634 10.395H48.6934V9.75C48.6934 8.355 47.8684 7.875 46.7284 7.875C45.4084 7.875 44.7484 8.505 44.6884 9.495H43.7584C43.8334 8.025 44.9584 7.095 46.7734 7.095C49.6234 7.095 49.6234 9.36 49.6234 9.765V14.265H50.8534V15H49.6384C48.9334 15 48.7534 14.655 48.7534 14.13V13.68H48.6634C48.3034 14.565 47.2534 15.15 45.9334 15.15C44.3434 15.15 43.4434 14.205 43.4434 12.78ZM44.4184 12.45V12.99C44.4184 13.89 45.0784 14.34 46.0534 14.34C47.6884 14.34 48.6934 13.215 48.6934 11.655V11.19H46.2634C45.0784 11.19 44.4184 11.715 44.4184 12.45ZM52.6295 15V4.065H53.5595V15H52.6295ZM56.438 5.595V4.065H57.368V5.595H56.438ZM56.438 15V7.245H57.368V15H56.438ZM65.4066 15L62.6616 10.935L61.1916 12.405V15H60.2466V4.065H61.1916V11.22L65.1066 7.245H66.3516L63.3216 10.275L66.5016 15H65.4066ZM68.2007 17.505V7.245H69.0707L69.1457 8.595H69.2357C69.7457 7.65 70.7507 7.095 72.0707 7.095C74.1257 7.095 75.3257 8.52 75.3257 11.055C75.3257 13.59 74.1257 15.015 72.0707 15.015C70.7507 15.015 69.7457 14.46 69.2357 13.515H69.1457V17.505H68.2007ZM71.8907 14.205C73.4057 14.205 74.3507 13.275 74.3507 11.895V10.215C74.3507 8.835 73.4057 7.905 71.8907 7.905C70.2707 7.905 69.1457 8.955 69.1457 10.515V11.595C69.1457 13.155 70.2707 14.205 71.8907 14.205ZM76.8271 12.78C76.8271 11.25 77.9071 10.395 79.6471 10.395H82.0771V9.75C82.0771 8.355 81.2521 7.875 80.1121 7.875C78.7921 7.875 78.1321 8.505 78.0721 9.495H77.1421C77.2171 8.025 78.3421 7.095 80.1571 7.095C83.0071 7.095 83.0071 9.36 83.0071 9.765V14.265H84.2371V15H83.0221C82.3171 15 82.1371 14.655 82.1371 14.13V13.68H82.0471C81.6871 14.565 80.6371 15.15 79.3171 15.15C77.7271 15.15 76.8271 14.205 76.8271 12.78ZM77.8021 12.45V12.99C77.8021 13.89 78.4621 14.34 79.4371 14.34C81.0721 14.34 82.0771 13.215 82.0771 11.655V11.19H79.6471C78.4621 11.19 77.8021 11.715 77.8021 12.45ZM86.0132 17.505V7.245H86.8832L86.9582 8.595H87.0482C87.5582 7.65 88.5632 7.095 89.8832 7.095C91.9382 7.095 93.1382 8.52 93.1382 11.055C93.1382 13.59 91.9382 15.015 89.8832 15.015C88.5632 15.015 87.5582 14.46 87.0482 13.515H86.9582V17.505H86.0132ZM89.7032 14.205C91.2182 14.205 92.1632 13.275 92.1632 11.895V10.215C92.1632 8.835 91.2182 7.905 89.7032 7.905C88.0832 7.905 86.9582 8.955 86.9582 10.515V11.595C86.9582 13.155 88.0832 14.205 89.7032 14.205ZM94.6396 12.78C94.6396 11.25 95.7196 10.395 97.4596 10.395H99.8896V9.75C99.8896 8.355 99.0646 7.875 97.9246 7.875C96.6046 7.875 95.9446 8.505 95.8846 9.495H94.9546C95.0296 8.025 96.1546 7.095 97.9696 7.095C100.82 7.095 100.82 9.36 100.82 9.765V14.265H102.05V15H100.835C100.13 15 99.9496 14.655 99.9496 14.13V13.68H99.8596C99.4996 14.565 98.4496 15.15 97.1296 15.15C95.5396 15.15 94.6396 14.205 94.6396 12.78ZM95.6146 12.45V12.99C95.6146 13.89 96.2746 14.34 97.2496 14.34C98.8846 14.34 99.8896 13.215 99.8896 11.655V11.19H97.4596C96.2746 11.19 95.6146 11.715 95.6146 12.45ZM103.826 15V7.245H104.651L104.786 8.7H104.876C105.356 7.71 106.346 7.095 107.516 7.095C109.166 7.095 110.216 8.28 110.216 10.185V15H109.271V10.275C109.271 8.715 108.551 7.995 107.291 7.995C105.806 7.995 104.771 9.18 104.771 10.95V15H103.826Z" fill="#EE2737"/>
</svg>
