<svg width="74" height="33" viewBox="0 0 74 33" fill="none" xmlns="http://www.w3.org/2000/svg">
<path d="M4 29.5L15 18.5H74" stroke="#EE2737"/>


<path d="M22.625 15.15C19.58 15.15 17.735 13.14 17.735 9.54C17.735 6 19.505 3.915 22.745 3.915C25.4 3.915 27.095 5.415 27.41 7.65H26.405C26.09 6 24.845 4.845 22.73 4.845C20.33 4.845 18.77 6.33 18.77 8.715V10.47C18.77 12.645 20.345 14.235 22.67 14.235C24.605 14.235 26 13.125 26.405 11.43H27.41C27.005 13.695 25.22 15.15 22.625 15.15ZM29.69 5.595V4.065H30.62V5.595H29.69ZM29.69 15V7.245H30.62V15H29.69ZM34.4136 7.245H37.1286V8.055H34.4436V15H33.4986V8.115C33.4986 7.695 33.6636 7.245 34.4136 7.245ZM37.6426 11.085C37.6426 8.58 39.0076 7.095 41.2126 7.095C43.2676 7.095 44.5876 8.4 44.5876 10.56C44.5876 10.785 44.5726 11.085 44.5426 11.31H38.6176V11.76C38.6176 13.305 39.6526 14.34 41.2576 14.34C42.5026 14.34 43.4026 13.665 43.6726 12.705H44.6176C44.3026 14.175 42.9376 15.15 41.2126 15.15C39.0076 15.15 37.6426 13.59 37.6426 11.085ZM38.6176 10.53H43.6426V10.185C43.6426 8.82 42.6676 7.905 41.2126 7.905C39.6826 7.905 38.6176 8.865 38.6176 10.29V10.53ZM46.814 15V4.065H47.759V8.76H47.849C48.284 7.755 49.394 7.095 50.609 7.095C52.904 7.095 53.939 8.73 53.939 11.16C53.939 13.725 52.739 15.15 50.504 15.15C49.364 15.15 48.314 14.58 47.849 13.65H47.759L47.714 15H46.814ZM47.759 11.73C47.759 13.185 48.929 14.34 50.504 14.34C52.019 14.34 52.964 13.41 52.964 12.03V10.29C52.964 8.865 52.019 7.92 50.504 7.92C48.914 7.92 47.759 9.045 47.759 10.59V11.73ZM55.5869 11.13C55.5869 8.55 57.1019 7.095 59.2469 7.095C61.3919 7.095 62.9069 8.55 62.9069 11.13C62.9069 13.545 61.5719 15.15 59.2469 15.15C56.9219 15.15 55.5869 13.545 55.5869 11.13ZM56.5619 11.76C56.5619 13.44 57.8069 14.34 59.2469 14.34C60.6869 14.34 61.9319 13.44 61.9319 11.76V10.56C61.9319 8.985 60.7769 7.92 59.2469 7.92C57.7169 7.92 56.5619 8.985 56.5619 10.56V11.76ZM65.0953 15V7.245H65.9203L66.0553 8.7H66.1453C66.6253 7.71 67.6153 7.095 68.7853 7.095C70.4353 7.095 71.4853 8.28 71.4853 10.185V15H70.5403V10.275C70.5403 8.715 69.8203 7.995 68.5603 7.995C67.0753 7.995 66.0403 9.18 66.0403 10.95V15H65.0953Z" fill="#EE2737"/>
</svg>
