<svg width="159" height="54" viewBox="0 0 159 54" fill="none" xmlns="http://www.w3.org/2000/svg">
<path d="M155 4L106 53H0" stroke="#EE2737"/>


<path d="M1.65 49V38.065H6.735C8.88 38.065 9.855 39.31 9.855 41.335C9.855 42.64 9.24 43.6 8.325 43.93V44.02H8.985C9.72 44.02 9.9 44.41 9.9 44.995V49H8.925V44.65H2.625V49H1.65ZM2.625 43.75H6.63C8.025 43.75 8.82 43 8.82 41.89V40.81C8.82 39.55 7.95 38.965 6.63 38.965H2.625V43.75ZM11.9414 46.78C11.9414 45.25 13.0214 44.395 14.7614 44.395H17.1914V43.75C17.1914 42.355 16.3664 41.875 15.2264 41.875C13.9064 41.875 13.2464 42.505 13.1864 43.495H12.2564C12.3314 42.025 13.4564 41.095 15.2714 41.095C18.1214 41.095 18.1214 43.36 18.1214 43.765V48.265H19.3514V49H18.1364C17.4314 49 17.2514 48.655 17.2514 48.13V47.68H17.1614C16.8014 48.565 15.7514 49.15 14.4314 49.15C12.8414 49.15 11.9414 48.205 11.9414 46.78ZM12.9164 46.45V46.99C12.9164 47.89 13.5764 48.34 14.5514 48.34C16.1864 48.34 17.1914 47.215 17.1914 45.655V45.19H14.7614C13.5764 45.19 12.9164 45.715 12.9164 46.45ZM21.1275 49V41.245H21.9525L22.0875 42.7H22.1775C22.6575 41.71 23.6475 41.095 24.8175 41.095C26.4675 41.095 27.5175 42.28 27.5175 44.185V49H26.5725V44.275C26.5725 42.715 25.8525 41.995 24.5925 41.995C23.1075 41.995 22.0725 43.18 22.0725 44.95V49H21.1275ZM34.0628 47.62C35.4728 47.62 36.3128 48.325 36.3128 49.465C36.3128 50.935 34.9328 51.655 32.7278 51.655C30.5078 51.655 29.4728 50.905 29.4728 49.78C29.4728 48.955 29.9528 48.43 30.6728 48.205V48.115C30.2378 47.965 29.9378 47.56 29.9378 47.095C29.9378 46.525 30.3428 46.015 30.9278 45.865V45.775C30.2078 45.325 29.8178 44.56 29.8178 43.675C29.8178 42.13 30.9878 41.095 32.6378 41.095C33.1778 41.095 33.6878 41.2 34.0628 41.38V41.14C34.0628 40.555 34.4228 40.33 34.9628 40.33H36.2678V41.14H34.7828V41.905C35.1728 42.31 35.4578 42.955 35.4578 43.705C35.4578 45.235 34.3028 46.255 32.7128 46.255C32.2928 46.255 31.9328 46.195 31.6178 46.12C31.0928 46.18 30.8078 46.51 30.8078 46.9C30.8078 47.62 31.5578 47.62 31.8878 47.62H34.0628ZM30.7628 43.99C30.7628 44.92 31.5128 45.535 32.6378 45.535C33.7628 45.535 34.5128 44.92 34.5128 43.99V43.39C34.5128 42.46 33.7628 41.83 32.6378 41.83C31.5128 41.83 30.7628 42.46 30.7628 43.39V43.99ZM32.7728 50.905C34.6478 50.905 35.3828 50.35 35.3828 49.525C35.3828 48.46 34.2578 48.46 34.0478 48.46H31.7828C30.8078 48.46 30.3578 48.94 30.3578 49.615C30.3578 50.515 31.1378 50.905 32.7728 50.905ZM43.2797 49L40.5347 44.935L39.0647 46.405V49H38.1197V38.065H39.0647V45.22L42.9797 41.245H44.2247L41.1947 44.275L44.3747 49H43.2797ZM45.3838 46.78C45.3838 45.25 46.4638 44.395 48.2038 44.395H50.6338V43.75C50.6338 42.355 49.8088 41.875 48.6688 41.875C47.3488 41.875 46.6888 42.505 46.6288 43.495H45.6988C45.7738 42.025 46.8988 41.095 48.7138 41.095C51.5638 41.095 51.5638 43.36 51.5638 43.765V48.265H52.7938V49H51.5788C50.8738 49 50.6938 48.655 50.6938 48.13V47.68H50.6038C50.2438 48.565 49.1938 49.15 47.8738 49.15C46.2838 49.15 45.3838 48.205 45.3838 46.78ZM46.3588 46.45V46.99C46.3588 47.89 47.0188 48.34 47.9938 48.34C49.6288 48.34 50.6338 47.215 50.6338 45.655V45.19H48.2038C47.0188 45.19 46.3588 45.715 46.3588 46.45ZM54.7649 46.675C54.7649 47.68 55.5749 48.355 56.8799 48.355C58.1099 48.355 58.8599 47.785 58.8599 46.87C58.8599 45.925 58.0649 45.73 57.7349 45.67L55.9799 45.325C54.5399 45.04 53.9849 44.29 53.9849 43.345C53.9849 41.92 55.1099 41.095 56.8049 41.095C58.6049 41.095 59.6549 42.04 59.6699 43.435H58.7249C58.6799 42.355 57.9449 41.875 56.8199 41.875C55.5899 41.875 54.9449 42.415 54.9449 43.24C54.9449 44.245 55.8749 44.41 56.2799 44.485L57.8849 44.785C59.3099 45.055 59.8649 45.85 59.8649 46.84C59.8649 48.28 58.6799 49.15 56.8949 49.15C54.9899 49.15 53.8199 48.16 53.8199 46.675H54.7649ZM61.9966 49V38.065H62.9416V42.76H63.0316C63.4666 41.755 64.5766 41.095 65.7916 41.095C68.0866 41.095 69.1216 42.73 69.1216 45.16C69.1216 47.725 67.9216 49.15 65.6866 49.15C64.5466 49.15 63.4966 48.58 63.0316 47.65H62.9416L62.8966 49H61.9966ZM62.9416 45.73C62.9416 47.185 64.1116 48.34 65.6866 48.34C67.2016 48.34 68.1466 47.41 68.1466 46.03V44.29C68.1466 42.865 67.2016 41.92 65.6866 41.92C64.0966 41.92 62.9416 43.045 62.9416 44.59V45.73ZM71.313 39.595V38.065H72.243V39.595H71.313ZM71.313 49V41.245H72.243V49H71.313ZM76.2616 48.175H77.9416V49H76.2466C75.5866 49 75.3316 48.655 75.3316 48.145V42.055H73.9066V41.245H75.3316V38.62H76.2616V41.245H77.9266V42.055H76.2616V48.175ZM86.2232 41.245V49H85.4432L85.2932 47.56H85.1882C84.7682 48.49 83.7482 49.15 82.5032 49.15C80.9732 49.15 79.9382 48.145 79.9382 46.225V41.245H80.8832V46.12C80.8832 47.62 81.5432 48.325 82.7432 48.325C84.2882 48.325 85.2782 47.095 85.2782 45.295V41.245H86.2232ZM89.0963 49V41.245H89.9213L90.0563 42.7H90.1463C90.6263 41.71 91.6162 41.095 92.7863 41.095C94.4363 41.095 95.4863 42.28 95.4863 44.185V49H94.5413V44.275C94.5413 42.715 93.8213 41.995 92.5613 41.995C91.0763 41.995 90.0413 43.18 90.0413 44.95V49H89.0963ZM102.032 47.62C103.442 47.62 104.282 48.325 104.282 49.465C104.282 50.935 102.902 51.655 100.697 51.655C98.4765 51.655 97.4415 50.905 97.4415 49.78C97.4415 48.955 97.9215 48.43 98.6415 48.205V48.115C98.2065 47.965 97.9065 47.56 97.9065 47.095C97.9065 46.525 98.3115 46.015 98.8965 45.865V45.775C98.1765 45.325 97.7865 44.56 97.7865 43.675C97.7865 42.13 98.9565 41.095 100.607 41.095C101.147 41.095 101.657 41.2 102.032 41.38V41.14C102.032 40.555 102.392 40.33 102.932 40.33H104.237V41.14H102.752V41.905C103.142 42.31 103.427 42.955 103.427 43.705C103.427 45.235 102.272 46.255 100.682 46.255C100.262 46.255 99.9015 46.195 99.5865 46.12C99.0615 46.18 98.7765 46.51 98.7765 46.9C98.7765 47.62 99.5265 47.62 99.8565 47.62H102.032ZM98.7315 43.99C98.7315 44.92 99.4815 45.535 100.607 45.535C101.732 45.535 102.482 44.92 102.482 43.99V43.39C102.482 42.46 101.732 41.83 100.607 41.83C99.4815 41.83 98.7315 42.46 98.7315 43.39V43.99ZM100.742 50.905C102.617 50.905 103.352 50.35 103.352 49.525C103.352 48.46 102.227 48.46 102.017 48.46H99.7515C98.7765 48.46 98.3265 48.94 98.3265 49.615C98.3265 50.515 99.1065 50.905 100.742 50.905Z" fill="#EE2737"/>
</svg>
