<svg width="123" height="27" viewBox="0 0 123 27" fill="none" xmlns="http://www.w3.org/2000/svg">
<path d="M119 4L97 26H0.5" stroke="#EE2737"/>


<path d="M1.65 22V11.065H5.985C9.33 11.065 10.44 13.105 10.44 16.54C10.44 19.975 9.33 22 5.985 22H1.65ZM2.625 21.055H5.985C8.205 21.055 9.405 20.035 9.405 17.425V15.655C9.405 13.045 8.205 12.01 5.985 12.01H2.625V21.055ZM13.8018 22H12.8268V11.065H13.8018V22ZM19.1626 11.065H20.3626L22.2526 14.095L23.7076 16.51H23.8126L25.2826 14.065L27.1276 11.065H28.3426L24.2476 17.485V22H23.2726V17.485L19.1626 11.065ZM27.7031 18.13C27.7031 15.55 29.2181 14.095 31.3631 14.095C33.5081 14.095 35.0231 15.55 35.0231 18.13C35.0231 20.545 33.6881 22.15 31.3631 22.15C29.0381 22.15 27.7031 20.545 27.7031 18.13ZM28.6781 18.76C28.6781 20.44 29.9231 21.34 31.3631 21.34C32.8031 21.34 34.0481 20.44 34.0481 18.76V17.56C34.0481 15.985 32.8931 14.92 31.3631 14.92C29.8331 14.92 28.6781 15.985 28.6781 17.56V18.76ZM40.9915 20.62C42.4015 20.62 43.2415 21.325 43.2415 22.465C43.2415 23.935 41.8615 24.655 39.6565 24.655C37.4365 24.655 36.4015 23.905 36.4015 22.78C36.4015 21.955 36.8815 21.43 37.6015 21.205V21.115C37.1665 20.965 36.8665 20.56 36.8665 20.095C36.8665 19.525 37.2715 19.015 37.8565 18.865V18.775C37.1365 18.325 36.7465 17.56 36.7465 16.675C36.7465 15.13 37.9165 14.095 39.5665 14.095C40.1065 14.095 40.6165 14.2 40.9915 14.38V14.14C40.9915 13.555 41.3515 13.33 41.8915 13.33H43.1965V14.14H41.7115V14.905C42.1015 15.31 42.3865 15.955 42.3865 16.705C42.3865 18.235 41.2315 19.255 39.6415 19.255C39.2215 19.255 38.8615 19.195 38.5465 19.12C38.0215 19.18 37.7365 19.51 37.7365 19.9C37.7365 20.62 38.4865 20.62 38.8165 20.62H40.9915ZM37.6915 16.99C37.6915 17.92 38.4415 18.535 39.5665 18.535C40.6915 18.535 41.4415 17.92 41.4415 16.99V16.39C41.4415 15.46 40.6915 14.83 39.5665 14.83C38.4415 14.83 37.6915 15.46 37.6915 16.39V16.99ZM39.7015 23.905C41.5765 23.905 42.3115 23.35 42.3115 22.525C42.3115 21.46 41.1865 21.46 40.9765 21.46H38.7115C37.7365 21.46 37.2865 21.94 37.2865 22.615C37.2865 23.515 38.0665 23.905 39.7015 23.905ZM43.6384 14.245H44.7184L45.9034 16.855L47.2984 20.02H47.3884L50.0134 14.245H51.0784L47.8234 21.145V23.62C47.8234 23.995 47.7334 24.505 46.9684 24.505H45.0184V23.695H46.8934V21.115L43.6384 14.245ZM51.8584 19.78C51.8584 18.25 52.9384 17.395 54.6784 17.395H57.1084V16.75C57.1084 15.355 56.2834 14.875 55.1434 14.875C53.8234 14.875 53.1634 15.505 53.1034 16.495H52.1734C52.2484 15.025 53.3734 14.095 55.1884 14.095C58.0384 14.095 58.0384 16.36 58.0384 16.765V21.265H59.2684V22H58.0534C57.3484 22 57.1684 21.655 57.1684 21.13V20.68H57.0784C56.7184 21.565 55.6684 22.15 54.3484 22.15C52.7584 22.15 51.8584 21.205 51.8584 19.78ZM52.8334 19.45V19.99C52.8334 20.89 53.4934 21.34 54.4684 21.34C56.1034 21.34 57.1084 20.215 57.1084 18.655V18.19H54.6784C53.4934 18.19 52.8334 18.715 52.8334 19.45ZM66.2045 22L63.4595 17.935L61.9895 19.405V22H61.0445V11.065H61.9895V18.22L65.9045 14.245H67.1495L64.1195 17.275L67.2995 22H66.2045ZM68.3086 19.78C68.3086 18.25 69.3886 17.395 71.1286 17.395H73.5586V16.75C73.5586 15.355 72.7336 14.875 71.5936 14.875C70.2736 14.875 69.6136 15.505 69.5536 16.495H68.6236C68.6986 15.025 69.8236 14.095 71.6386 14.095C74.4886 14.095 74.4886 16.36 74.4886 16.765V21.265H75.7186V22H74.5036C73.7986 22 73.6186 21.655 73.6186 21.13V20.68H73.5286C73.1686 21.565 72.1186 22.15 70.7986 22.15C69.2086 22.15 68.3086 21.205 68.3086 19.78ZM69.2836 19.45V19.99C69.2836 20.89 69.9436 21.34 70.9186 21.34C72.5536 21.34 73.5586 20.215 73.5586 18.655V18.19H71.1286C69.9436 18.19 69.2836 18.715 69.2836 19.45ZM78.4097 14.245H81.1247V15.055H78.4397V22H77.4947V15.115C77.4947 14.695 77.6597 14.245 78.4097 14.245ZM84.0986 21.175H85.7786V22H84.0836C83.4236 22 83.1686 21.655 83.1686 21.145V15.055H81.7436V14.245H83.1686V11.62H84.0986V14.245H85.7636V15.055H84.0986V21.175ZM87.2051 19.78C87.2051 18.25 88.2851 17.395 90.0251 17.395H92.4551V16.75C92.4551 15.355 91.6301 14.875 90.4901 14.875C89.1701 14.875 88.5101 15.505 88.4501 16.495H87.5201C87.5951 15.025 88.7201 14.095 90.5351 14.095C93.3851 14.095 93.3851 16.36 93.3851 16.765V21.265H94.6151V22H93.4001C92.6951 22 92.5151 21.655 92.5151 21.13V20.68H92.4251C92.0651 21.565 91.0151 22.15 89.6951 22.15C88.1051 22.15 87.2051 21.205 87.2051 19.78ZM88.1801 19.45V19.99C88.1801 20.89 88.8401 21.34 89.8151 21.34C91.4501 21.34 92.4551 20.215 92.4551 18.655V18.19H90.0251C88.8401 18.19 88.1801 18.715 88.1801 19.45Z" fill="#EE2737"/>
</svg>
