<svg width="114" height="61" viewBox="0 0 114 61" fill="none" xmlns="http://www.w3.org/2000/svg">
<path d="M4 53.5L38.5 19H113.5" stroke="#EE2737"/>


<path d="M66.24 4.065H67.185V14.115C67.185 14.34 67.17 15 66.285 15H63.24V14.085H66.24V4.065ZM69.5068 12.78C69.5068 11.25 70.5868 10.395 72.3268 10.395H74.7568V9.75C74.7568 8.355 73.9318 7.875 72.7918 7.875C71.4718 7.875 70.8118 8.505 70.7518 9.495H69.8218C69.8968 8.025 71.0218 7.095 72.8368 7.095C75.6868 7.095 75.6868 9.36 75.6868 9.765V14.265H76.9168V15H75.7018C74.9968 15 74.8168 14.655 74.8168 14.13V13.68H74.7268C74.3668 14.565 73.3168 15.15 71.9968 15.15C70.4068 15.15 69.5068 14.205 69.5068 12.78ZM70.4818 12.45V12.99C70.4818 13.89 71.1418 14.34 72.1168 14.34C73.7518 14.34 74.7568 13.215 74.7568 11.655V11.19H72.3268C71.1418 11.19 70.4818 11.715 70.4818 12.45ZM83.8529 15L81.1079 10.935L79.6379 12.405V15H78.6929V4.065H79.6379V11.22L83.5529 7.245H84.7979L81.7679 10.275L84.9479 15H83.8529ZM85.957 12.78C85.957 11.25 87.037 10.395 88.777 10.395H91.207V9.75C91.207 8.355 90.382 7.875 89.242 7.875C87.922 7.875 87.262 8.505 87.202 9.495H86.272C86.347 8.025 87.472 7.095 89.287 7.095C92.137 7.095 92.137 9.36 92.137 9.765V14.265H93.367V15H92.152C91.447 15 91.267 14.655 91.267 14.13V13.68H91.177C90.817 14.565 89.767 15.15 88.447 15.15C86.857 15.15 85.957 14.205 85.957 12.78ZM86.932 12.45V12.99C86.932 13.89 87.592 14.34 88.567 14.34C90.202 14.34 91.207 13.215 91.207 11.655V11.19H88.777C87.592 11.19 86.932 11.715 86.932 12.45ZM96.0581 7.245H98.7731V8.055H96.0881V15H95.1431V8.115C95.1431 7.695 95.3081 7.245 96.0581 7.245ZM101.747 14.175H103.427V15H101.732C101.072 15 100.817 14.655 100.817 14.145V8.055H99.392V7.245H100.817V4.62H101.747V7.245H103.412V8.055H101.747V14.175ZM104.854 12.78C104.854 11.25 105.934 10.395 107.674 10.395H110.104V9.75C110.104 8.355 109.279 7.875 108.139 7.875C106.819 7.875 106.159 8.505 106.099 9.495H105.169C105.244 8.025 106.369 7.095 108.184 7.095C111.034 7.095 111.034 9.36 111.034 9.765V14.265H112.264V15H111.049C110.344 15 110.164 14.655 110.164 14.13V13.68H110.074C109.714 14.565 108.664 15.15 107.344 15.15C105.754 15.15 104.854 14.205 104.854 12.78ZM105.829 12.45V12.99C105.829 13.89 106.489 14.34 107.464 14.34C109.099 14.34 110.104 13.215 110.104 11.655V11.19H107.674C106.489 11.19 105.829 11.715 105.829 12.45Z" fill="#EE2737"/>
</svg>
