<svg width="144" height="70" viewBox="0 0 144 70" fill="none" xmlns="http://www.w3.org/2000/svg">
<path d="M4 66L50 20H142.5" stroke="#EE2737"/>
<circle cx="4" cy="66" r="4" fill="#EE2737"/>
<path d="M68.65 15V4.065H73.255C75.565 4.065 76.585 5.415 76.585 7.425C76.585 9.615 75.445 10.845 73.255 10.845H69.625V15H68.65ZM69.625 9.945H73.3C74.74 9.945 75.55 9.165 75.55 7.995V6.795C75.55 5.655 74.74 5.01 73.51 5.01H69.625V9.945ZM77.5938 11.085C77.5938 8.58 78.9588 7.095 81.1638 7.095C83.2188 7.095 84.5388 8.4 84.5388 10.56C84.5388 10.785 84.5238 11.085 84.4938 11.31H78.5688V11.76C78.5688 13.305 79.6038 14.34 81.2088 14.34C82.4538 14.34 83.3538 13.665 83.6238 12.705H84.5688C84.2538 14.175 82.8888 15.15 81.1638 15.15C78.9588 15.15 77.5938 13.59 77.5938 11.085ZM78.5688 10.53H83.5938V10.185C83.5938 8.82 82.6188 7.905 81.1638 7.905C79.6338 7.905 78.5688 8.865 78.5688 10.29V10.53ZM91.9252 15L89.1802 10.935L87.7102 12.405V15H86.7652V4.065H87.7102V11.22L91.6252 7.245H92.8702L89.8402 10.275L93.0202 15H91.9252ZM94.0293 12.78C94.0293 11.25 95.1093 10.395 96.8493 10.395H99.2793V9.75C99.2793 8.355 98.4543 7.875 97.3143 7.875C95.9943 7.875 95.3343 8.505 95.2743 9.495H94.3443C94.4193 8.025 95.5443 7.095 97.3593 7.095C100.209 7.095 100.209 9.36 100.209 9.765V14.265H101.439V15H100.224C99.5193 15 99.3393 14.655 99.3393 14.13V13.68H99.2493C98.8893 14.565 97.8393 15.15 96.5193 15.15C94.9293 15.15 94.0293 14.205 94.0293 12.78ZM95.0043 12.45V12.99C95.0043 13.89 95.6643 14.34 96.6393 14.34C98.2743 14.34 99.2793 13.215 99.2793 11.655V11.19H96.8493C95.6643 11.19 95.0043 11.715 95.0043 12.45ZM103.215 15V7.245H104.04L104.175 8.7H104.265C104.745 7.71 105.735 7.095 106.905 7.095C108.555 7.095 109.605 8.28 109.605 10.185V15H108.66V10.275C108.66 8.715 107.94 7.995 106.68 7.995C105.195 7.995 104.16 9.18 104.16 10.95V15H103.215ZM112.371 15V4.065H113.316V8.76H113.406C113.841 7.755 114.951 7.095 116.166 7.095C118.461 7.095 119.496 8.73 119.496 11.16C119.496 13.725 118.296 15.15 116.061 15.15C114.921 15.15 113.871 14.58 113.406 13.65H113.316L113.271 15H112.371ZM113.316 11.73C113.316 13.185 114.486 14.34 116.061 14.34C117.576 14.34 118.521 13.41 118.521 12.03V10.29C118.521 8.865 117.576 7.92 116.061 7.92C114.471 7.92 113.316 9.045 113.316 10.59V11.73ZM120.997 12.78C120.997 11.25 122.077 10.395 123.817 10.395H126.247V9.75C126.247 8.355 125.422 7.875 124.282 7.875C122.962 7.875 122.302 8.505 122.242 9.495H121.312C121.387 8.025 122.512 7.095 124.327 7.095C127.177 7.095 127.177 9.36 127.177 9.765V14.265H128.407V15H127.192C126.487 15 126.307 14.655 126.307 14.13V13.68H126.217C125.857 14.565 124.807 15.15 123.487 15.15C121.897 15.15 120.997 14.205 120.997 12.78ZM121.972 12.45V12.99C121.972 13.89 122.632 14.34 123.607 14.34C125.242 14.34 126.247 13.215 126.247 11.655V11.19H123.817C122.632 11.19 121.972 11.715 121.972 12.45ZM131.098 7.245H133.813V8.055H131.128V15H130.183V8.115C130.183 7.695 130.348 7.245 131.098 7.245ZM141.636 7.245V15H140.856L140.706 13.56H140.601C140.181 14.49 139.161 15.15 137.916 15.15C136.386 15.15 135.351 14.145 135.351 12.225V7.245H136.296V12.12C136.296 13.62 136.956 14.325 138.156 14.325C139.701 14.325 140.691 13.095 140.691 11.295V7.245H141.636Z" fill="#EE2737"/>
</svg>
