<svg width="117" height="38" viewBox="0 0 117 38" fill="none" xmlns="http://www.w3.org/2000/svg">
<path d="M113 4L80 37H0.5" stroke="#EE2737"/>
<circle cx="113" cy="4" r="4" fill="#EE2737"/>
<path d="M2.65 33V22.065H7.645C9.655 22.065 10.54 23.175 10.54 24.84C10.54 25.995 9.985 26.925 8.965 27.315V27.435C10.225 27.75 10.81 28.755 10.81 30.135C10.81 31.86 9.625 33 7.51 33H2.65ZM3.625 26.985H7.72C8.815 26.985 9.535 26.385 9.535 25.365V24.555C9.535 23.625 8.905 22.98 7.705 22.98H3.625V26.985ZM3.625 32.085H7.57C8.89 32.085 9.775 31.44 9.775 30.465V29.58C9.775 28.5 8.995 27.9 7.84 27.9H3.625V32.085ZM12.4434 29.085C12.4434 26.58 13.8084 25.095 16.0134 25.095C18.0684 25.095 19.3884 26.4 19.3884 28.56C19.3884 28.785 19.3734 29.085 19.3434 29.31H13.4184V29.76C13.4184 31.305 14.4534 32.34 16.0584 32.34C17.3034 32.34 18.2034 31.665 18.4734 30.705H19.4184C19.1034 32.175 17.7384 33.15 16.0134 33.15C13.8084 33.15 12.4434 31.59 12.4434 29.085ZM13.4184 28.53H18.4434V28.185C18.4434 26.82 17.4684 25.905 16.0134 25.905C14.4834 25.905 13.4184 26.865 13.4184 28.29V28.53ZM21.6148 33V25.245H22.4398L22.5748 26.7H22.6648C23.1448 25.71 24.1348 25.095 25.3048 25.095C26.9548 25.095 28.0048 26.28 28.0048 28.185V33H27.0598V28.275C27.0598 26.715 26.3398 25.995 25.0798 25.995C23.5948 25.995 22.5598 27.18 22.5598 28.95V33H21.6148ZM34.5501 31.62C35.9601 31.62 36.8001 32.325 36.8001 33.465C36.8001 34.935 35.4201 35.655 33.2151 35.655C30.9951 35.655 29.9601 34.905 29.9601 33.78C29.9601 32.955 30.4401 32.43 31.1601 32.205V32.115C30.7251 31.965 30.4251 31.56 30.4251 31.095C30.4251 30.525 30.8301 30.015 31.4151 29.865V29.775C30.6951 29.325 30.3051 28.56 30.3051 27.675C30.3051 26.13 31.4751 25.095 33.1251 25.095C33.6651 25.095 34.1751 25.2 34.5501 25.38V25.14C34.5501 24.555 34.9101 24.33 35.4501 24.33H36.7551V25.14H35.2701V25.905C35.6601 26.31 35.9451 26.955 35.9451 27.705C35.9451 29.235 34.7901 30.255 33.2001 30.255C32.7801 30.255 32.4201 30.195 32.1051 30.12C31.5801 30.18 31.2951 30.51 31.2951 30.9C31.2951 31.62 32.0451 31.62 32.3751 31.62H34.5501ZM31.2501 27.99C31.2501 28.92 32.0001 29.535 33.1251 29.535C34.2501 29.535 35.0001 28.92 35.0001 27.99V27.39C35.0001 26.46 34.2501 25.83 33.1251 25.83C32.0001 25.83 31.2501 26.46 31.2501 27.39V27.99ZM33.2601 34.905C35.1351 34.905 35.8701 34.35 35.8701 33.525C35.8701 32.46 34.7451 32.46 34.5351 32.46H32.2701C31.2951 32.46 30.8451 32.94 30.8451 33.615C30.8451 34.515 31.6251 34.905 33.2601 34.905ZM43.767 33L41.022 28.935L39.552 30.405V33H38.607V22.065H39.552V29.22L43.467 25.245H44.712L41.682 28.275L44.862 33H43.767ZM52.6529 25.245V33H51.8729L51.7229 31.56H51.6179C51.1979 32.49 50.1779 33.15 48.9329 33.15C47.4029 33.15 46.3679 32.145 46.3679 30.225V25.245H47.3129V30.12C47.3129 31.62 47.9729 32.325 49.1729 32.325C50.7179 32.325 51.7079 31.095 51.7079 29.295V25.245H52.6529ZM55.5259 33V22.065H56.4559V33H55.5259ZM65.4995 25.245V33H64.7195L64.5695 31.56H64.4645C64.0445 32.49 63.0245 33.15 61.7795 33.15C60.2495 33.15 59.2145 32.145 59.2145 30.225V25.245H60.1595V30.12C60.1595 31.62 60.8195 32.325 62.0195 32.325C63.5645 32.325 64.5545 31.095 64.5545 29.295V25.245H65.4995Z" fill="#EE2737"/>
</svg>
