<svg width="87" height="40" viewBox="0 0 87 40" fill="none" xmlns="http://www.w3.org/2000/svg">
<path d="M4 36.5L21.5 19H87" stroke="#EE2737"/>


<path d="M33.58 15L29.95 9.6L27.625 12.39V15H26.65V4.065H27.625V11.085L33.445 4.065H34.57L30.58 8.835L34.72 15H33.58ZM34.9346 11.085C34.9346 8.58 36.2996 7.095 38.5046 7.095C40.5596 7.095 41.8796 8.4 41.8796 10.56C41.8796 10.785 41.8646 11.085 41.8346 11.31H35.9096V11.76C35.9096 13.305 36.9446 14.34 38.5496 14.34C39.7946 14.34 40.6946 13.665 40.9646 12.705H41.9096C41.5946 14.175 40.2296 15.15 38.5046 15.15C36.2996 15.15 34.9346 13.59 34.9346 11.085ZM35.9096 10.53H40.9346V10.185C40.9346 8.82 39.9596 7.905 38.5046 7.905C36.9746 7.905 35.9096 8.865 35.9096 10.29V10.53ZM44.106 15V7.245H44.931L45.066 8.7H45.156C45.636 7.71 46.626 7.095 47.796 7.095C49.446 7.095 50.496 8.28 50.496 10.185V15H49.551V10.275C49.551 8.715 48.831 7.995 47.571 7.995C46.086 7.995 45.051 9.18 45.051 10.95V15H44.106ZM55.8263 15.15C53.7713 15.15 52.5713 13.725 52.5713 11.19C52.5713 8.655 53.7713 7.23 55.8263 7.23C57.1463 7.23 58.1513 7.785 58.6613 8.73H58.7513V4.065H59.6963V15H58.8263L58.7513 13.65H58.6613C58.1513 14.595 57.1463 15.15 55.8263 15.15ZM56.0063 14.34C57.6263 14.34 58.7513 13.29 58.7513 11.73V10.65C58.7513 9.09 57.6263 8.04 56.0063 8.04C54.4913 8.04 53.5463 8.97 53.5463 10.35V12.03C53.5463 13.41 54.4913 14.34 56.0063 14.34ZM61.8877 12.78C61.8877 11.25 62.9677 10.395 64.7077 10.395H67.1377V9.75C67.1377 8.355 66.3127 7.875 65.1727 7.875C63.8527 7.875 63.1927 8.505 63.1327 9.495H62.2027C62.2777 8.025 63.4027 7.095 65.2177 7.095C68.0677 7.095 68.0677 9.36 68.0677 9.765V14.265H69.2977V15H68.0827C67.3777 15 67.1977 14.655 67.1977 14.13V13.68H67.1077C66.7477 14.565 65.6977 15.15 64.3777 15.15C62.7877 15.15 61.8877 14.205 61.8877 12.78ZM62.8627 12.45V12.99C62.8627 13.89 63.5227 14.34 64.4977 14.34C66.1327 14.34 67.1377 13.215 67.1377 11.655V11.19H64.7077C63.5227 11.19 62.8627 11.715 62.8627 12.45ZM71.9888 7.245H74.7038V8.055H72.0188V15H71.0738V8.115C71.0738 7.695 71.2388 7.245 71.9888 7.245ZM76.3619 5.595V4.065H77.2919V5.595H76.3619ZM76.3619 15V7.245H77.2919V15H76.3619Z" fill="#EE2737"/>
</svg>
