<svg width="141" height="48" viewBox="0 0 141 48" fill="none" xmlns="http://www.w3.org/2000/svg">
<path d="M4 4.5L46.5 47H141" stroke="#EE2737"/>


<path d="M52.65 43V32.065H57.645C59.655 32.065 60.54 33.175 60.54 34.84C60.54 35.995 59.985 36.925 58.965 37.315V37.435C60.225 37.75 60.81 38.755 60.81 40.135C60.81 41.86 59.625 43 57.51 43H52.65ZM53.625 36.985H57.72C58.815 36.985 59.535 36.385 59.535 35.365V34.555C59.535 33.625 58.905 32.98 57.705 32.98H53.625V36.985ZM53.625 42.085H57.57C58.89 42.085 59.775 41.44 59.775 40.465V39.58C59.775 38.5 58.995 37.9 57.84 37.9H53.625V42.085ZM62.4434 40.78C62.4434 39.25 63.5234 38.395 65.2634 38.395H67.6934V37.75C67.6934 36.355 66.8684 35.875 65.7284 35.875C64.4084 35.875 63.7484 36.505 63.6884 37.495H62.7584C62.8334 36.025 63.9584 35.095 65.7734 35.095C68.6234 35.095 68.6234 37.36 68.6234 37.765V42.265H69.8534V43H68.6384C67.9334 43 67.7534 42.655 67.7534 42.13V41.68H67.6634C67.3034 42.565 66.2534 43.15 64.9334 43.15C63.3434 43.15 62.4434 42.205 62.4434 40.78ZM63.4184 40.45V40.99C63.4184 41.89 64.0784 42.34 65.0534 42.34C66.6884 42.34 67.6934 41.215 67.6934 39.655V39.19H65.2634C64.0784 39.19 63.4184 39.715 63.4184 40.45ZM71.6295 43V35.245H72.4545L72.5895 36.7H72.6795C73.1595 35.71 74.1495 35.095 75.3195 35.095C76.9695 35.095 78.0195 36.28 78.0195 38.185V43H77.0745V38.275C77.0745 36.715 76.3545 35.995 75.0945 35.995C73.6095 35.995 72.5745 37.18 72.5745 38.95V43H71.6295ZM80.9647 32.065H81.8947V33.595H80.9647V32.065ZM80.9647 35.245H81.8947V44.62C81.8947 44.815 81.8947 45.505 80.9947 45.505H79.2097V44.71H80.9647V35.245ZM84.0791 40.78C84.0791 39.25 85.1591 38.395 86.8991 38.395H89.3291V37.75C89.3291 36.355 88.5041 35.875 87.3641 35.875C86.0441 35.875 85.3841 36.505 85.3241 37.495H84.3941C84.4691 36.025 85.5941 35.095 87.4091 35.095C90.2591 35.095 90.2591 37.36 90.2591 37.765V42.265H91.4891V43H90.2741C89.5691 43 89.3891 42.655 89.3891 42.13V41.68H89.2991C88.9391 42.565 87.8891 43.15 86.5691 43.15C84.9791 43.15 84.0791 42.205 84.0791 40.78ZM85.0541 40.45V40.99C85.0541 41.89 85.7141 42.34 86.6891 42.34C88.3241 42.34 89.3291 41.215 89.3291 39.655V39.19H86.8991C85.7141 39.19 85.0541 39.715 85.0541 40.45ZM94.1802 35.245H96.8952V36.055H94.2102V43H93.2652V36.115C93.2652 35.695 93.4302 35.245 94.1802 35.245ZM98.5533 43V35.245H99.3633L99.4983 36.7H99.6033C100.098 35.545 101.028 35.095 102.063 35.095C103.263 35.095 104.088 35.86 104.343 36.82H104.448C104.913 35.65 105.888 35.095 107.043 35.095C108.618 35.095 109.638 36.145 109.638 38.095V43H108.693V38.23C108.693 36.565 107.943 35.92 106.803 35.92C105.378 35.92 104.583 37.135 104.583 38.965V43H103.638V38.29C103.638 36.685 102.978 35.92 101.793 35.92C100.413 35.92 99.4983 37.135 99.4983 38.965V43H98.5533ZM111.706 40.78C111.706 39.25 112.786 38.395 114.526 38.395H116.956V37.75C116.956 36.355 116.131 35.875 114.991 35.875C113.671 35.875 113.011 36.505 112.951 37.495H112.021C112.096 36.025 113.221 35.095 115.036 35.095C117.886 35.095 117.886 37.36 117.886 37.765V42.265H119.116V43H117.901C117.196 43 117.016 42.655 117.016 42.13V41.68H116.926C116.566 42.565 115.516 43.15 114.196 43.15C112.606 43.15 111.706 42.205 111.706 40.78ZM112.681 40.45V40.99C112.681 41.89 113.341 42.34 114.316 42.34C115.951 42.34 116.956 41.215 116.956 39.655V39.19H114.526C113.341 39.19 112.681 39.715 112.681 40.45ZM121.087 40.675C121.087 41.68 121.897 42.355 123.202 42.355C124.432 42.355 125.182 41.785 125.182 40.87C125.182 39.925 124.387 39.73 124.057 39.67L122.302 39.325C120.862 39.04 120.307 38.29 120.307 37.345C120.307 35.92 121.432 35.095 123.127 35.095C124.927 35.095 125.977 36.04 125.992 37.435H125.047C125.002 36.355 124.267 35.875 123.142 35.875C121.912 35.875 121.267 36.415 121.267 37.24C121.267 38.245 122.197 38.41 122.602 38.485L124.207 38.785C125.632 39.055 126.187 39.85 126.187 40.84C126.187 42.28 125.002 43.15 123.217 43.15C121.312 43.15 120.142 42.16 120.142 40.675H121.087ZM128.319 33.595V32.065H129.249V33.595H128.319ZM128.319 43V35.245H129.249V43H128.319ZM132.128 43V35.245H132.953L133.088 36.7H133.178C133.658 35.71 134.647 35.095 135.818 35.095C137.468 35.095 138.518 36.28 138.518 38.185V43H137.573V38.275C137.573 36.715 136.853 35.995 135.593 35.995C134.108 35.995 133.073 37.18 133.073 38.95V43H132.128Z" fill="#EE2737"/>
</svg>
