<svg width="96" height="42" viewBox="0 0 96 42" fill="none" xmlns="http://www.w3.org/2000/svg">
<path d="M92 4L55 41H0.5" stroke="#EE2737"/>


<path d="M1.65 37V26.065H3.045L6.765 34.615H6.84L10.59 26.065H11.97V37H10.995V30.61L11.115 27.325H11.025L6.81 36.79L2.595 27.325H2.505L2.625 30.61V37H1.65ZM14.373 34.78C14.373 33.25 15.453 32.395 17.193 32.395H19.623V31.75C19.623 30.355 18.798 29.875 17.658 29.875C16.338 29.875 15.678 30.505 15.618 31.495H14.688C14.763 30.025 15.888 29.095 17.703 29.095C20.553 29.095 20.553 31.36 20.553 31.765V36.265H21.783V37H20.568C19.863 37 19.683 36.655 19.683 36.13V35.68H19.593C19.233 36.565 18.183 37.15 16.863 37.15C15.273 37.15 14.373 36.205 14.373 34.78ZM15.348 34.45V34.99C15.348 35.89 16.008 36.34 16.983 36.34C18.618 36.34 19.623 35.215 19.623 33.655V33.19H17.193C16.008 33.19 15.348 33.715 15.348 34.45ZM23.5591 37V26.065H24.4891V37H23.5591ZM26.6777 34.78C26.6777 33.25 27.7577 32.395 29.4977 32.395H31.9277V31.75C31.9277 30.355 31.1027 29.875 29.9627 29.875C28.6427 29.875 27.9827 30.505 27.9227 31.495H26.9927C27.0677 30.025 28.1927 29.095 30.0077 29.095C32.8577 29.095 32.8577 31.36 32.8577 31.765V36.265H34.0877V37H32.8727C32.1677 37 31.9877 36.655 31.9877 36.13V35.68H31.8977C31.5377 36.565 30.4877 37.15 29.1677 37.15C27.5777 37.15 26.6777 36.205 26.6777 34.78ZM27.6527 34.45V34.99C27.6527 35.89 28.3127 36.34 29.2877 36.34C30.9227 36.34 31.9277 35.215 31.9277 33.655V33.19H29.4977C28.3127 33.19 27.6527 33.715 27.6527 34.45ZM35.8638 37V29.245H36.6888L36.8238 30.7H36.9138C37.3938 29.71 38.3838 29.095 39.5538 29.095C41.2038 29.095 42.2538 30.28 42.2538 32.185V37H41.3088V32.275C41.3088 30.715 40.5888 29.995 39.3288 29.995C37.8438 29.995 36.8088 31.18 36.8088 32.95V37H35.8638ZM48.7991 35.62C50.2091 35.62 51.0491 36.325 51.0491 37.465C51.0491 38.935 49.6691 39.655 47.4641 39.655C45.2441 39.655 44.2091 38.905 44.2091 37.78C44.2091 36.955 44.6891 36.43 45.4091 36.205V36.115C44.9741 35.965 44.6741 35.56 44.6741 35.095C44.6741 34.525 45.0791 34.015 45.6641 33.865V33.775C44.9441 33.325 44.5541 32.56 44.5541 31.675C44.5541 30.13 45.7241 29.095 47.3741 29.095C47.9141 29.095 48.4241 29.2 48.7991 29.38V29.14C48.7991 28.555 49.1591 28.33 49.6991 28.33H51.0041V29.14H49.5191V29.905C49.9091 30.31 50.1941 30.955 50.1941 31.705C50.1941 33.235 49.0391 34.255 47.4491 34.255C47.0291 34.255 46.6691 34.195 46.3541 34.12C45.8291 34.18 45.5441 34.51 45.5441 34.9C45.5441 35.62 46.2941 35.62 46.6241 35.62H48.7991ZM45.4991 31.99C45.4991 32.92 46.2491 33.535 47.3741 33.535C48.4991 33.535 49.2491 32.92 49.2491 31.99V31.39C49.2491 30.46 48.4991 29.83 47.3741 29.83C46.2491 29.83 45.4991 30.46 45.4991 31.39V31.99ZM47.5091 38.905C49.3841 38.905 50.1191 38.35 50.1191 37.525C50.1191 36.46 48.9941 36.46 48.7841 36.46H46.5191C45.5441 36.46 45.0941 36.94 45.0941 37.615C45.0941 38.515 45.8741 38.905 47.5091 38.905Z" fill="#EE2737"/>
</svg>
