<svg width="102" height="46" viewBox="0 0 102 46" fill="none" xmlns="http://www.w3.org/2000/svg">
<path d="M4 42.5L27.5 19H101.5" stroke="#EE2737"/>


<path d="M31.83 11.64C31.875 13.47 33.165 14.325 35.025 14.325C36.795 14.325 37.98 13.5 37.98 12.045C37.98 10.5 36.645 10.2 36.12 10.08L34.11 9.615C33.15 9.39 31.14 8.94 31.14 6.825C31.14 4.995 32.64 3.915 34.83 3.915C37.095 3.915 38.625 5.04 38.67 7.05H37.68C37.59 5.535 36.525 4.74 34.845 4.74C33.15 4.74 32.16 5.55 32.16 6.75C32.16 8.13 33.495 8.475 34.26 8.64L36.405 9.12C38.28 9.54 39.015 10.605 39.015 11.97C39.015 14.01 37.38 15.15 34.98 15.15C32.085 15.15 30.81 13.5 30.825 11.64H31.83ZM40.7842 11.085C40.7842 8.58 42.1492 7.095 44.3542 7.095C46.4092 7.095 47.7292 8.4 47.7292 10.56C47.7292 10.785 47.7142 11.085 47.6842 11.31H41.7592V11.76C41.7592 13.305 42.7942 14.34 44.3992 14.34C45.6442 14.34 46.5442 13.665 46.8142 12.705H47.7592C47.4442 14.175 46.0792 15.15 44.3542 15.15C42.1492 15.15 40.7842 13.59 40.7842 11.085ZM41.7592 10.53H46.7842V10.185C46.7842 8.82 45.8092 7.905 44.3542 7.905C42.8242 7.905 41.7592 8.865 41.7592 10.29V10.53ZM49.9556 15V7.245H50.7656L50.9006 8.7H51.0056C51.5006 7.545 52.4306 7.095 53.4656 7.095C54.6656 7.095 55.4906 7.86 55.7456 8.82H55.8506C56.3156 7.65 57.2906 7.095 58.4456 7.095C60.0206 7.095 61.0406 8.145 61.0406 10.095V15H60.0956V10.23C60.0956 8.565 59.3456 7.92 58.2056 7.92C56.7806 7.92 55.9856 9.135 55.9856 10.965V15H55.0406V10.29C55.0406 8.685 54.3806 7.92 53.1956 7.92C51.8156 7.92 50.9006 9.135 50.9006 10.965V15H49.9556ZM63.1084 12.78C63.1084 11.25 64.1884 10.395 65.9284 10.395H68.3584V9.75C68.3584 8.355 67.5334 7.875 66.3934 7.875C65.0734 7.875 64.4134 8.505 64.3534 9.495H63.4234C63.4984 8.025 64.6234 7.095 66.4384 7.095C69.2884 7.095 69.2884 9.36 69.2884 9.765V14.265H70.5184V15H69.3034C68.5984 15 68.4184 14.655 68.4184 14.13V13.68H68.3284C67.9684 14.565 66.9184 15.15 65.5984 15.15C64.0084 15.15 63.1084 14.205 63.1084 12.78ZM64.0834 12.45V12.99C64.0834 13.89 64.7434 14.34 65.7184 14.34C67.3534 14.34 68.3584 13.215 68.3584 11.655V11.19H65.9284C64.7434 11.19 64.0834 11.715 64.0834 12.45ZM73.2095 7.245H75.9245V8.055H73.2395V15H72.2945V8.115C72.2945 7.695 72.4595 7.245 73.2095 7.245ZM76.4385 12.78C76.4385 11.25 77.5185 10.395 79.2585 10.395H81.6885V9.75C81.6885 8.355 80.8635 7.875 79.7235 7.875C78.4035 7.875 77.7435 8.505 77.6835 9.495H76.7535C76.8285 8.025 77.9535 7.095 79.7685 7.095C82.6185 7.095 82.6185 9.36 82.6185 9.765V14.265H83.8485V15H82.6335C81.9285 15 81.7485 14.655 81.7485 14.13V13.68H81.6585C81.2985 14.565 80.2485 15.15 78.9285 15.15C77.3385 15.15 76.4385 14.205 76.4385 12.78ZM77.4135 12.45V12.99C77.4135 13.89 78.0735 14.34 79.0485 14.34C80.6835 14.34 81.6885 13.215 81.6885 11.655V11.19H79.2585C78.0735 11.19 77.4135 11.715 77.4135 12.45ZM85.6246 15V7.245H86.4496L86.5846 8.7H86.6746C87.1546 7.71 88.1446 7.095 89.3146 7.095C90.9646 7.095 92.0146 8.28 92.0146 10.185V15H91.0696V10.275C91.0696 8.715 90.3496 7.995 89.0896 7.995C87.6046 7.995 86.5696 9.18 86.5696 10.95V15H85.6246ZM98.5598 13.62C99.9698 13.62 100.81 14.325 100.81 15.465C100.81 16.935 99.4298 17.655 97.2248 17.655C95.0048 17.655 93.9698 16.905 93.9698 15.78C93.9698 14.955 94.4498 14.43 95.1698 14.205V14.115C94.7348 13.965 94.4348 13.56 94.4348 13.095C94.4348 12.525 94.8398 12.015 95.4248 11.865V11.775C94.7048 11.325 94.3148 10.56 94.3148 9.675C94.3148 8.13 95.4848 7.095 97.1348 7.095C97.6748 7.095 98.1848 7.2 98.5598 7.38V7.14C98.5598 6.555 98.9198 6.33 99.4598 6.33H100.765V7.14H99.2798V7.905C99.6698 8.31 99.9548 8.955 99.9548 9.705C99.9548 11.235 98.7998 12.255 97.2098 12.255C96.7898 12.255 96.4298 12.195 96.1148 12.12C95.5898 12.18 95.3048 12.51 95.3048 12.9C95.3048 13.62 96.0548 13.62 96.3848 13.62H98.5598ZM95.2598 9.99C95.2598 10.92 96.0098 11.535 97.1348 11.535C98.2598 11.535 99.0098 10.92 99.0098 9.99V9.39C99.0098 8.46 98.2598 7.83 97.1348 7.83C96.0098 7.83 95.2598 8.46 95.2598 9.39V9.99ZM97.2698 16.905C99.1448 16.905 99.8798 16.35 99.8798 15.525C99.8798 14.46 98.7548 14.46 98.5448 14.46H96.2798C95.3048 14.46 94.8548 14.94 94.8548 15.615C94.8548 16.515 95.6348 16.905 97.2698 16.905Z" fill="#EE2737"/>
</svg>
