<svg width="147" height="87" viewBox="0 0 147 87" fill="none" xmlns="http://www.w3.org/2000/svg">
<path d="M4.5 83.5L69 19H146.5" stroke="#EE2737"/>


<path d="M75.65 15V4.065H80.255C82.565 4.065 83.585 5.415 83.585 7.425C83.585 9.615 82.445 10.845 80.255 10.845H76.625V15H75.65ZM76.625 9.945H80.3C81.74 9.945 82.55 9.165 82.55 7.995V6.795C82.55 5.655 81.74 5.01 80.51 5.01H76.625V9.945ZM84.5938 11.13C84.5938 8.55 86.1088 7.095 88.2537 7.095C90.3988 7.095 91.9138 8.55 91.9138 11.13C91.9138 13.545 90.5788 15.15 88.2537 15.15C85.9288 15.15 84.5938 13.545 84.5938 11.13ZM85.5688 11.76C85.5688 13.44 86.8138 14.34 88.2537 14.34C89.6938 14.34 90.9388 13.44 90.9388 11.76V10.56C90.9388 8.985 89.7838 7.92 88.2537 7.92C86.7238 7.92 85.5688 8.985 85.5688 10.56V11.76ZM94.1021 15V7.245H94.9271L95.0621 8.7H95.1521C95.6321 7.71 96.6221 7.095 97.7921 7.095C99.4421 7.095 100.492 8.28 100.492 10.185V15H99.5471V10.275C99.5471 8.715 98.8271 7.995 97.5671 7.995C96.0821 7.995 95.0471 9.18 95.0471 10.95V15H94.1021ZM107.928 4.23H108.858V5.76H107.928V4.23ZM108.858 7.245V15H107.928V8.055H104.193V14.175H105.858V15H104.178C103.668 15 103.278 14.85 103.263 14.115V8.055H101.823V7.245H103.263V4.62H104.193V7.245H108.858ZM111.049 12.78C111.049 11.25 112.129 10.395 113.869 10.395H116.299V9.75C116.299 8.355 115.474 7.875 114.334 7.875C113.014 7.875 112.354 8.505 112.294 9.495H111.364C111.439 8.025 112.564 7.095 114.379 7.095C117.229 7.095 117.229 9.36 117.229 9.765V14.265H118.459V15H117.244C116.539 15 116.359 14.655 116.359 14.13V13.68H116.269C115.909 14.565 114.859 15.15 113.539 15.15C111.949 15.15 111.049 14.205 111.049 12.78ZM112.024 12.45V12.99C112.024 13.89 112.684 14.34 113.659 14.34C115.294 14.34 116.299 13.215 116.299 11.655V11.19H113.869C112.684 11.19 112.024 11.715 112.024 12.45ZM120.235 15V7.245H121.06L121.195 8.7H121.285C121.765 7.71 122.755 7.095 123.925 7.095C125.575 7.095 126.625 8.28 126.625 10.185V15H125.68V10.275C125.68 8.715 124.96 7.995 123.7 7.995C122.215 7.995 121.18 9.18 121.18 10.95V15H120.235ZM128.7 12.78C128.7 11.25 129.78 10.395 131.52 10.395H133.95V9.75C133.95 8.355 133.125 7.875 131.985 7.875C130.665 7.875 130.005 8.505 129.945 9.495H129.015C129.09 8.025 130.215 7.095 132.03 7.095C134.88 7.095 134.88 9.36 134.88 9.765V14.265H136.11V15H134.895C134.19 15 134.01 14.655 134.01 14.13V13.68H133.92C133.56 14.565 132.51 15.15 131.19 15.15C129.6 15.15 128.7 14.205 128.7 12.78ZM129.675 12.45V12.99C129.675 13.89 130.335 14.34 131.31 14.34C132.945 14.34 133.95 13.215 133.95 11.655V11.19H131.52C130.335 11.19 129.675 11.715 129.675 12.45ZM143.046 15L140.301 10.935L138.831 12.405V15H137.886V4.065H138.831V11.22L142.746 7.245H143.991L140.961 10.275L144.141 15H143.046Z" fill="#EE2737"/>
</svg>
