<svg width="151" height="79" viewBox="0 0 151 79" fill="none" xmlns="http://www.w3.org/2000/svg">
<path d="M4 75.5L61 18.5H151" stroke="#EE2737"/>
<circle cx="4" cy="75" r="4" fill="#EE2737"/>
<path d="M72.65 15V4.065H77.255C79.565 4.065 80.585 5.415 80.585 7.425C80.585 9.615 79.445 10.845 77.255 10.845H73.625V15H72.65ZM73.625 9.945H77.3C78.74 9.945 79.55 9.165 79.55 7.995V6.795C79.55 5.655 78.74 5.01 77.51 5.01H73.625V9.945ZM81.5938 12.78C81.5938 11.25 82.6738 10.395 84.4138 10.395H86.8438V9.75C86.8438 8.355 86.0188 7.875 84.8788 7.875C83.5588 7.875 82.8988 8.505 82.8388 9.495H81.9088C81.9838 8.025 83.1088 7.095 84.9238 7.095C87.7738 7.095 87.7738 9.36 87.7738 9.765V14.265H89.0038V15H87.7888C87.0838 15 86.9038 14.655 86.9038 14.13V13.68H86.8138C86.4538 14.565 85.4038 15.15 84.0838 15.15C82.4938 15.15 81.5938 14.205 81.5938 12.78ZM82.5688 12.45V12.99C82.5688 13.89 83.2288 14.34 84.2038 14.34C85.8388 14.34 86.8438 13.215 86.8438 11.655V11.19H84.4138C83.2288 11.19 82.5688 11.715 82.5688 12.45ZM90.7798 15V4.065H91.7098V15H90.7798ZM93.752 11.085C93.752 8.58 95.117 7.095 97.322 7.095C99.377 7.095 100.697 8.4 100.697 10.56C100.697 10.785 100.682 11.085 100.652 11.31H94.727V11.76C94.727 13.305 95.762 14.34 97.367 14.34C98.612 14.34 99.512 13.665 99.782 12.705H100.727C100.412 14.175 99.047 15.15 97.322 15.15C95.117 15.15 93.752 13.59 93.752 11.085ZM94.727 10.53H99.752V10.185C99.752 8.82 98.777 7.905 97.322 7.905C95.792 7.905 94.727 8.865 94.727 10.29V10.53ZM102.923 15V7.245H103.733L103.868 8.7H103.973C104.468 7.545 105.398 7.095 106.433 7.095C107.633 7.095 108.458 7.86 108.713 8.82H108.818C109.283 7.65 110.258 7.095 111.413 7.095C112.988 7.095 114.008 8.145 114.008 10.095V15H113.063V10.23C113.063 8.565 112.313 7.92 111.173 7.92C109.748 7.92 108.953 9.135 108.953 10.965V15H108.008V10.29C108.008 8.685 107.348 7.92 106.163 7.92C104.783 7.92 103.868 9.135 103.868 10.965V15H102.923ZM116.766 15V4.065H117.711V8.76H117.801C118.236 7.755 119.346 7.095 120.561 7.095C122.856 7.095 123.891 8.73 123.891 11.16C123.891 13.725 122.691 15.15 120.456 15.15C119.316 15.15 118.266 14.58 117.801 13.65H117.711L117.666 15H116.766ZM117.711 11.73C117.711 13.185 118.881 14.34 120.456 14.34C121.971 14.34 122.916 13.41 122.916 12.03V10.29C122.916 8.865 121.971 7.92 120.456 7.92C118.866 7.92 117.711 9.045 117.711 10.59V11.73ZM125.393 12.78C125.393 11.25 126.473 10.395 128.213 10.395H130.643V9.75C130.643 8.355 129.818 7.875 128.678 7.875C127.358 7.875 126.698 8.505 126.638 9.495H125.708C125.783 8.025 126.908 7.095 128.723 7.095C131.573 7.095 131.573 9.36 131.573 9.765V14.265H132.803V15H131.588C130.883 15 130.703 14.655 130.703 14.13V13.68H130.613C130.253 14.565 129.203 15.15 127.883 15.15C126.293 15.15 125.393 14.205 125.393 12.78ZM126.368 12.45V12.99C126.368 13.89 127.028 14.34 128.003 14.34C129.638 14.34 130.643 13.215 130.643 11.655V11.19H128.213C127.028 11.19 126.368 11.715 126.368 12.45ZM134.579 15V7.245H135.404L135.539 8.7H135.629C136.109 7.71 137.099 7.095 138.269 7.095C139.919 7.095 140.969 8.28 140.969 10.185V15H140.024V10.275C140.024 8.715 139.304 7.995 138.044 7.995C136.559 7.995 135.524 9.18 135.524 10.95V15H134.579ZM147.514 13.62C148.924 13.62 149.764 14.325 149.764 15.465C149.764 16.935 148.384 17.655 146.179 17.655C143.959 17.655 142.924 16.905 142.924 15.78C142.924 14.955 143.404 14.43 144.124 14.205V14.115C143.689 13.965 143.389 13.56 143.389 13.095C143.389 12.525 143.794 12.015 144.379 11.865V11.775C143.659 11.325 143.269 10.56 143.269 9.675C143.269 8.13 144.439 7.095 146.089 7.095C146.629 7.095 147.139 7.2 147.514 7.38V7.14C147.514 6.555 147.874 6.33 148.414 6.33H149.719V7.14H148.234V7.905C148.624 8.31 148.909 8.955 148.909 9.705C148.909 11.235 147.754 12.255 146.164 12.255C145.744 12.255 145.384 12.195 145.069 12.12C144.544 12.18 144.259 12.51 144.259 12.9C144.259 13.62 145.009 13.62 145.339 13.62H147.514ZM144.214 9.99C144.214 10.92 144.964 11.535 146.089 11.535C147.214 11.535 147.964 10.92 147.964 9.99V9.39C147.964 8.46 147.214 7.83 146.089 7.83C144.964 7.83 144.214 8.46 144.214 9.39V9.99ZM146.224 16.905C148.099 16.905 148.834 16.35 148.834 15.525C148.834 14.46 147.709 14.46 147.499 14.46H145.234C144.259 14.46 143.809 14.94 143.809 15.615C143.809 16.515 144.589 16.905 146.224 16.905Z" fill="#EE2737"/>
</svg>
