<svg width="93" height="41" viewBox="0 0 93 41" fill="none" xmlns="http://www.w3.org/2000/svg">
<path d="M4 37.5L23 18.5H93" stroke="#EE2737"/>


<path d="M47.65 15V4.065H52.645C54.655 4.065 55.54 5.175 55.54 6.84C55.54 7.995 54.985 8.925 53.965 9.315V9.435C55.225 9.75 55.81 10.755 55.81 12.135C55.81 13.86 54.625 15 52.51 15H47.65ZM48.625 8.985H52.72C53.815 8.985 54.535 8.385 54.535 7.365V6.555C54.535 5.625 53.905 4.98 52.705 4.98H48.625V8.985ZM48.625 14.085H52.57C53.89 14.085 54.775 13.44 54.775 12.465V11.58C54.775 10.5 53.995 9.9 52.84 9.9H48.625V14.085ZM57.4434 12.78C57.4434 11.25 58.5234 10.395 60.2634 10.395H62.6934V9.75C62.6934 8.355 61.8684 7.875 60.7284 7.875C59.4084 7.875 58.7484 8.505 58.6884 9.495H57.7584C57.8334 8.025 58.9584 7.095 60.7734 7.095C63.6234 7.095 63.6234 9.36 63.6234 9.765V14.265H64.8534V15H63.6384C62.9334 15 62.7534 14.655 62.7534 14.13V13.68H62.6634C62.3034 14.565 61.2534 15.15 59.9334 15.15C58.3434 15.15 57.4434 14.205 57.4434 12.78ZM58.4184 12.45V12.99C58.4184 13.89 59.0784 14.34 60.0534 14.34C61.6884 14.34 62.6934 13.215 62.6934 11.655V11.19H60.2634C59.0784 11.19 58.4184 11.715 58.4184 12.45ZM67.6962 14.175H69.3762V15H67.6812C67.0212 15 66.7662 14.655 66.7662 14.145V8.055H65.3412V7.245H66.7662V4.62H67.6962V7.245H69.3612V8.055H67.6962V14.175ZM70.8027 12.78C70.8027 11.25 71.8827 10.395 73.6227 10.395H76.0527V9.75C76.0527 8.355 75.2277 7.875 74.0877 7.875C72.7677 7.875 72.1077 8.505 72.0477 9.495H71.1177C71.1927 8.025 72.3177 7.095 74.1327 7.095C76.9827 7.095 76.9827 9.36 76.9827 9.765V14.265H78.2127V15H76.9977C76.2927 15 76.1127 14.655 76.1127 14.13V13.68H76.0227C75.6627 14.565 74.6127 15.15 73.2927 15.15C71.7027 15.15 70.8027 14.205 70.8027 12.78ZM71.7777 12.45V12.99C71.7777 13.89 72.4377 14.34 73.4127 14.34C75.0477 14.34 76.0527 13.215 76.0527 11.655V11.19H73.6227C72.4377 11.19 71.7777 11.715 71.7777 12.45ZM79.9888 15V7.245H80.7988L80.9338 8.7H81.0388C81.5338 7.545 82.4638 7.095 83.4988 7.095C84.6988 7.095 85.5238 7.86 85.7788 8.82H85.8838C86.3488 7.65 87.3238 7.095 88.4788 7.095C90.0538 7.095 91.0738 8.145 91.0738 10.095V15H90.1288V10.23C90.1288 8.565 89.3788 7.92 88.2388 7.92C86.8138 7.92 86.0188 9.135 86.0188 10.965V15H85.0738V10.29C85.0738 8.685 84.4138 7.92 83.2288 7.92C81.8488 7.92 80.9338 9.135 80.9338 10.965V15H79.9888Z" fill="#EE2737"/>
</svg>
