<svg width="88" height="31" viewBox="0 0 88 31" fill="none" xmlns="http://www.w3.org/2000/svg">
<path d="M4 4.5L30 30.5H88" stroke="#EE2737"/>


<path d="M43.58 27L42.5 24.18H37.205L36.125 27H35.09L39.305 16.065H40.415L44.63 27H43.58ZM37.535 23.325H42.17L41.375 21.225L39.89 17.025H39.83L38.33 21.225L37.535 23.325ZM46.1812 27V19.245H46.9912L47.1262 20.7H47.2312C47.7262 19.545 48.6562 19.095 49.6912 19.095C50.8912 19.095 51.7162 19.86 51.9712 20.82H52.0762C52.5412 19.65 53.5162 19.095 54.6712 19.095C56.2462 19.095 57.2662 20.145 57.2662 22.095V27H56.3212V22.23C56.3212 20.565 55.5712 19.92 54.4312 19.92C53.0062 19.92 52.2112 21.135 52.2112 22.965V27H51.2662V22.29C51.2662 20.685 50.6062 19.92 49.4212 19.92C48.0412 19.92 47.1262 21.135 47.1262 22.965V27H46.1812ZM60.024 27V16.065H60.969V20.76H61.059C61.494 19.755 62.604 19.095 63.819 19.095C66.114 19.095 67.149 20.73 67.149 23.16C67.149 25.725 65.949 27.15 63.714 27.15C62.574 27.15 61.524 26.58 61.059 25.65H60.969L60.924 27H60.024ZM60.969 23.73C60.969 25.185 62.139 26.34 63.714 26.34C65.229 26.34 66.174 25.41 66.174 24.03V22.29C66.174 20.865 65.229 19.92 63.714 19.92C62.124 19.92 60.969 21.045 60.969 22.59V23.73ZM68.7969 23.13C68.7969 20.55 70.3119 19.095 72.4569 19.095C74.6019 19.095 76.1169 20.55 76.1169 23.13C76.1169 25.545 74.7819 27.15 72.4569 27.15C70.1319 27.15 68.7969 25.545 68.7969 23.13ZM69.7719 23.76C69.7719 25.44 71.0169 26.34 72.4569 26.34C73.8969 26.34 75.1419 25.44 75.1419 23.76V22.56C75.1419 20.985 73.9869 19.92 72.4569 19.92C70.9269 19.92 69.7719 20.985 69.7719 22.56V23.76ZM78.3052 27V19.245H79.1302L79.2652 20.7H79.3552C79.8352 19.71 80.8252 19.095 81.9952 19.095C83.6452 19.095 84.6952 20.28 84.6952 22.185V27H83.7502V22.275C83.7502 20.715 83.0302 19.995 81.7702 19.995C80.2852 19.995 79.2502 21.18 79.2502 22.95V27H78.3052Z" fill="#EE2737"/>
</svg>
