<svg width="121" height="43" viewBox="0 0 121 43" fill="none" xmlns="http://www.w3.org/2000/svg">
<path d="M116.5 4.5L78.5 42.5H0" stroke="#EE2737"/>


<path d="M5.15 39V28.065H6.545L10.265 36.615H10.34L14.09 28.065H15.47V39H14.495V32.61L14.615 29.325H14.525L10.31 38.79L6.095 29.325H6.005L6.125 32.61V39H5.15ZM17.873 36.78C17.873 35.25 18.953 34.395 20.693 34.395H23.123V33.75C23.123 32.355 22.298 31.875 21.158 31.875C19.838 31.875 19.178 32.505 19.118 33.495H18.188C18.263 32.025 19.388 31.095 21.203 31.095C24.053 31.095 24.053 33.36 24.053 33.765V38.265H25.283V39H24.068C23.363 39 23.183 38.655 23.183 38.13V37.68H23.093C22.733 38.565 21.683 39.15 20.363 39.15C18.773 39.15 17.873 38.205 17.873 36.78ZM18.848 36.45V36.99C18.848 37.89 19.508 38.34 20.483 38.34C22.118 38.34 23.123 37.215 23.123 35.655V35.19H20.693C19.508 35.19 18.848 35.715 18.848 36.45ZM32.2191 39L29.4741 34.935L28.0041 36.405V39H27.0591V28.065H28.0041V35.22L31.9191 31.245H33.1641L30.1341 34.275L33.3141 39H32.2191ZM34.3232 36.78C34.3232 35.25 35.4032 34.395 37.1432 34.395H39.5732V33.75C39.5732 32.355 38.7482 31.875 37.6082 31.875C36.2882 31.875 35.6282 32.505 35.5682 33.495H34.6382C34.7132 32.025 35.8382 31.095 37.6532 31.095C40.5032 31.095 40.5032 33.36 40.5032 33.765V38.265H41.7332V39H40.5182C39.8132 39 39.6332 38.655 39.6332 38.13V37.68H39.5432C39.1832 38.565 38.1332 39.15 36.8132 39.15C35.2232 39.15 34.3232 38.205 34.3232 36.78ZM35.2982 36.45V36.99C35.2982 37.89 35.9582 38.34 36.9332 38.34C38.5682 38.34 39.5732 37.215 39.5732 35.655V35.19H37.1432C35.9582 35.19 35.2982 35.715 35.2982 36.45ZM43.7043 36.675C43.7043 37.68 44.5143 38.355 45.8193 38.355C47.0493 38.355 47.7993 37.785 47.7993 36.87C47.7993 35.925 47.0043 35.73 46.6743 35.67L44.9193 35.325C43.4793 35.04 42.9243 34.29 42.9243 33.345C42.9243 31.92 44.0493 31.095 45.7443 31.095C47.5443 31.095 48.5943 32.04 48.6093 33.435H47.6643C47.6193 32.355 46.8843 31.875 45.7593 31.875C44.5293 31.875 43.8843 32.415 43.8843 33.24C43.8843 34.245 44.8143 34.41 45.2193 34.485L46.8243 34.785C48.2493 35.055 48.8043 35.85 48.8043 36.84C48.8043 38.28 47.6193 39.15 45.8343 39.15C43.9293 39.15 42.7593 38.16 42.7593 36.675H43.7043ZM51.1311 36.675C51.1311 37.68 51.9411 38.355 53.2461 38.355C54.4761 38.355 55.2261 37.785 55.2261 36.87C55.2261 35.925 54.4311 35.73 54.1011 35.67L52.3461 35.325C50.9061 35.04 50.3511 34.29 50.3511 33.345C50.3511 31.92 51.4761 31.095 53.1711 31.095C54.9711 31.095 56.0211 32.04 56.0361 33.435H55.0911C55.0461 32.355 54.3111 31.875 53.1861 31.875C51.9561 31.875 51.3111 32.415 51.3111 33.24C51.3111 34.245 52.2411 34.41 52.6461 34.485L54.2511 34.785C55.6761 35.055 56.2311 35.85 56.2311 36.84C56.2311 38.28 55.0461 39.15 53.2611 39.15C51.3561 39.15 50.1861 38.16 50.1861 36.675H51.1311ZM57.8926 36.78C57.8926 35.25 58.9726 34.395 60.7126 34.395H63.1426V33.75C63.1426 32.355 62.3176 31.875 61.1776 31.875C59.8576 31.875 59.1976 32.505 59.1376 33.495H58.2076C58.2826 32.025 59.4076 31.095 61.2226 31.095C64.0726 31.095 64.0726 33.36 64.0726 33.765V38.265H65.3026V39H64.0876C63.3826 39 63.2026 38.655 63.2026 38.13V37.68H63.1126C62.7526 38.565 61.7026 39.15 60.3826 39.15C58.7926 39.15 57.8926 38.205 57.8926 36.78ZM58.8676 36.45V36.99C58.8676 37.89 59.5276 38.34 60.5026 38.34C62.1376 38.34 63.1426 37.215 63.1426 35.655V35.19H60.7126C59.5276 35.19 58.8676 35.715 58.8676 36.45ZM67.9937 31.245H70.7087V32.055H68.0237V39H67.0787V32.115C67.0787 31.695 67.2437 31.245 67.9937 31.245Z" fill="#EE2737"/>
</svg>
