<svg width="100" height="35" viewBox="0 0 100 35" fill="none" xmlns="http://www.w3.org/2000/svg">
<path d="M4 4.5L34 34.5H99.5" stroke="#EE2737"/>

<path d="M51.58 30L47.95 24.6L45.625 27.39V30H44.65V19.065H45.625V26.085L51.445 19.065H52.57L48.58 23.835L52.72 30H51.58ZM59.6431 22.245V30H58.8631L58.7131 28.56H58.6081C58.1881 29.49 57.1681 30.15 55.9231 30.15C54.3931 30.15 53.3581 29.145 53.3581 27.225V22.245H54.3031V27.12C54.3031 28.62 54.9631 29.325 56.1631 29.325C57.7081 29.325 58.6981 28.095 58.6981 26.295V22.245H59.6431ZM62.5162 32.505V22.245H63.3862L63.4612 23.595H63.5512C64.0612 22.65 65.0662 22.095 66.3862 22.095C68.4412 22.095 69.6412 23.52 69.6412 26.055C69.6412 28.59 68.4412 30.015 66.3862 30.015C65.0662 30.015 64.0612 29.46 63.5512 28.515H63.4612V32.505H62.5162ZM66.2062 29.205C67.7212 29.205 68.6662 28.275 68.6662 26.895V25.215C68.6662 23.835 67.7212 22.905 66.2062 22.905C64.5862 22.905 63.4612 23.955 63.4612 25.515V26.595C63.4612 28.155 64.5862 29.205 66.2062 29.205ZM71.1426 27.78C71.1426 26.25 72.2226 25.395 73.9626 25.395H76.3926V24.75C76.3926 23.355 75.5676 22.875 74.4276 22.875C73.1076 22.875 72.4476 23.505 72.3876 24.495H71.4576C71.5326 23.025 72.6576 22.095 74.4726 22.095C77.3226 22.095 77.3226 24.36 77.3226 24.765V29.265H78.5526V30H77.3376C76.6326 30 76.4526 29.655 76.4526 29.13V28.68H76.3626C76.0026 29.565 74.9526 30.15 73.6326 30.15C72.0426 30.15 71.1426 29.205 71.1426 27.78ZM72.1176 27.45V27.99C72.1176 28.89 72.7776 29.34 73.7526 29.34C75.3876 29.34 76.3926 28.215 76.3926 26.655V26.19H73.9626C72.7776 26.19 72.1176 26.715 72.1176 27.45ZM80.3287 30V22.245H81.1537L81.2887 23.7H81.3787C81.8587 22.71 82.8487 22.095 84.0187 22.095C85.6687 22.095 86.7187 23.28 86.7187 25.185V30H85.7737V25.275C85.7737 23.715 85.0537 22.995 83.7937 22.995C82.3087 22.995 81.2737 24.18 81.2737 25.95V30H80.3287ZM93.2639 28.62C94.6739 28.62 95.5139 29.325 95.5139 30.465C95.5139 31.935 94.1339 32.655 91.9289 32.655C89.7089 32.655 88.6739 31.905 88.6739 30.78C88.6739 29.955 89.1539 29.43 89.8739 29.205V29.115C89.4389 28.965 89.1389 28.56 89.1389 28.095C89.1389 27.525 89.5439 27.015 90.1289 26.865V26.775C89.4089 26.325 89.0189 25.56 89.0189 24.675C89.0189 23.13 90.1889 22.095 91.8389 22.095C92.3789 22.095 92.8889 22.2 93.2639 22.38V22.14C93.2639 21.555 93.6239 21.33 94.1639 21.33H95.4689V22.14H93.9839V22.905C94.3739 23.31 94.6589 23.955 94.6589 24.705C94.6589 26.235 93.5039 27.255 91.9139 27.255C91.4939 27.255 91.1339 27.195 90.8189 27.12C90.2939 27.18 90.0089 27.51 90.0089 27.9C90.0089 28.62 90.7589 28.62 91.0889 28.62H93.2639ZM89.9639 24.99C89.9639 25.92 90.7139 26.535 91.8389 26.535C92.9639 26.535 93.7139 25.92 93.7139 24.99V24.39C93.7139 23.46 92.9639 22.83 91.8389 22.83C90.7139 22.83 89.9639 23.46 89.9639 24.39V24.99ZM91.9739 31.905C93.8489 31.905 94.5839 31.35 94.5839 30.525C94.5839 29.46 93.4589 29.46 93.2489 29.46H90.9839C90.0089 29.46 89.5589 29.94 89.5589 30.615C89.5589 31.515 90.3389 31.905 91.9739 31.905Z" fill="#EE2737"/>
</svg>
