<svg width="84" height="40" viewBox="0 0 84 40" fill="none" xmlns="http://www.w3.org/2000/svg">
<path d="M4 36.5L26.5 14H84" stroke="#EE2737"/>
<circle cx="4" cy="36" r="4" fill="#EE2737"/>
<path d="M56.58 11L55.5 8.18H50.205L49.125 11H48.09L52.305 0.0649995H53.415L57.63 11H56.58ZM50.535 7.325H55.17L54.375 5.225L52.89 1.025H52.83L51.33 5.225L50.535 7.325ZM65.4812 8.435C65.2112 10.085 63.9362 11.15 62.1062 11.15C59.8262 11.15 58.4912 9.545 58.4912 7.13C58.4912 4.55 60.0062 3.095 62.1512 3.095C63.8612 3.095 65.1512 4.1 65.4362 5.675H64.4912C64.1612 4.46 63.2312 3.92 62.1062 3.92C60.5612 3.92 59.4662 5.045 59.4662 6.635V7.76C59.4662 9.305 60.5162 10.34 62.1062 10.34C63.3812 10.34 64.3112 9.605 64.5362 8.435H65.4812ZM66.9141 7.085C66.9141 4.58 68.2791 3.095 70.4841 3.095C72.5391 3.095 73.8591 4.4 73.8591 6.56C73.8591 6.785 73.8441 7.085 73.8141 7.31H67.8891V7.76C67.8891 9.305 68.9241 10.34 70.5291 10.34C71.7741 10.34 72.6741 9.665 72.9441 8.705H73.8891C73.5741 10.175 72.2091 11.15 70.4841 11.15C68.2791 11.15 66.9141 9.59 66.9141 7.085ZM67.8891 6.53H72.9141V6.185C72.9141 4.82 71.9391 3.905 70.4841 3.905C68.9541 3.905 67.8891 4.865 67.8891 6.29V6.53ZM76.0855 11V0.0649995H77.0305V4.67H77.1205C77.6005 3.695 78.6055 3.095 79.7605 3.095C81.3955 3.095 82.4605 4.265 82.4605 6.17V11H81.5155V6.26C81.5155 4.67 80.7955 3.92 79.5355 3.92C78.0505 3.92 77.0305 5.105 77.0305 6.905V11H76.0855Z" fill="#EE2737"/>
</svg>
