<svg width="63" height="44" viewBox="0 0 63 44" fill="none" xmlns="http://www.w3.org/2000/svg">
<path d="M4 40L26.5 17.5L63 17.5" stroke="#EE2737"/>


<path d="M31.65 15V4.065H36.255C38.565 4.065 39.585 5.415 39.585 7.425C39.585 9.615 38.445 10.845 36.255 10.845H32.625V15H31.65ZM32.625 9.945H36.3C37.74 9.945 38.55 9.165 38.55 7.995V6.795C38.55 5.655 37.74 5.01 36.51 5.01H32.625V9.945ZM40.5938 12.78C40.5938 11.25 41.6738 10.395 43.4138 10.395H45.8438V9.75C45.8438 8.355 45.0188 7.875 43.8788 7.875C42.5588 7.875 41.8988 8.505 41.8388 9.495H40.9088C40.9838 8.025 42.1088 7.095 43.9238 7.095C46.7738 7.095 46.7738 9.36 46.7738 9.765V14.265H48.0038V15H46.7888C46.0838 15 45.9038 14.655 45.9038 14.13V13.68H45.8138C45.4538 14.565 44.4038 15.15 43.0838 15.15C41.4938 15.15 40.5938 14.205 40.5938 12.78ZM41.5688 12.45V12.99C41.5688 13.89 42.2288 14.34 43.2038 14.34C44.8388 14.34 45.8438 13.215 45.8438 11.655V11.19H43.4138C42.2288 11.19 41.5688 11.715 41.5688 12.45ZM49.7798 15V4.065H50.7098V15H49.7798ZM59.7534 7.245V15H58.9734L58.8234 13.56H58.7184C58.2984 14.49 57.2784 15.15 56.0334 15.15C54.5034 15.15 53.4684 14.145 53.4684 12.225V7.245H54.4134V12.12C54.4134 13.62 55.0734 14.325 56.2734 14.325C57.8184 14.325 58.8084 13.095 58.8084 11.295V7.245H59.7534Z" fill="#EE2737"/>
</svg>
