<svg width="85" height="43" viewBox="0 0 85 43" fill="none" xmlns="http://www.w3.org/2000/svg">
<path d="M4 40L25.5 18.5H85" stroke="#EE2737"/>


<path d="M36.145 4.065V4.98H32.62V15H31.645V4.98H28.075V4.065H36.145ZM35.4736 12.78C35.4736 11.25 36.5536 10.395 38.2936 10.395H40.7236V9.75C40.7236 8.355 39.8986 7.875 38.7586 7.875C37.4386 7.875 36.7786 8.505 36.7186 9.495H35.7886C35.8636 8.025 36.9886 7.095 38.8036 7.095C41.6536 7.095 41.6536 9.36 41.6536 9.765V14.265H42.8836V15H41.6686C40.9636 15 40.7836 14.655 40.7836 14.13V13.68H40.6936C40.3336 14.565 39.2836 15.15 37.9636 15.15C36.3736 15.15 35.4736 14.205 35.4736 12.78ZM36.4486 12.45V12.99C36.4486 13.89 37.1086 14.34 38.0836 14.34C39.7186 14.34 40.7236 13.215 40.7236 11.655V11.19H38.2936C37.1086 11.19 36.4486 11.715 36.4486 12.45ZM45.5747 7.245H48.2897V8.055H45.6047V15H44.6597V8.115C44.6597 7.695 44.8247 7.245 45.5747 7.245ZM48.8037 12.78C48.8037 11.25 49.8837 10.395 51.6237 10.395H54.0537V9.75C54.0537 8.355 53.2287 7.875 52.0887 7.875C50.7687 7.875 50.1087 8.505 50.0487 9.495H49.1187C49.1937 8.025 50.3187 7.095 52.1337 7.095C54.9837 7.095 54.9837 9.36 54.9837 9.765V14.265H56.2137V15H54.9987C54.2937 15 54.1137 14.655 54.1137 14.13V13.68H54.0237C53.6637 14.565 52.6137 15.15 51.2937 15.15C49.7037 15.15 48.8037 14.205 48.8037 12.78ZM49.7787 12.45V12.99C49.7787 13.89 50.4387 14.34 51.4137 14.34C53.0487 14.34 54.0537 13.215 54.0537 11.655V11.19H51.6237C50.4387 11.19 49.7787 11.715 49.7787 12.45ZM63.1498 15L60.4048 10.935L58.9348 12.405V15H57.9898V4.065H58.9348V11.22L62.8498 7.245H64.0948L61.0648 10.275L64.2448 15H63.1498ZM65.2539 12.78C65.2539 11.25 66.3339 10.395 68.0739 10.395H70.5039V9.75C70.5039 8.355 69.6789 7.875 68.5389 7.875C67.2189 7.875 66.5589 8.505 66.4989 9.495H65.5689C65.6439 8.025 66.7689 7.095 68.5839 7.095C71.4339 7.095 71.4339 9.36 71.4339 9.765V14.265H72.6639V15H71.4489C70.7439 15 70.5639 14.655 70.5639 14.13V13.68H70.4739C70.1139 14.565 69.0639 15.15 67.7439 15.15C66.1539 15.15 65.2539 14.205 65.2539 12.78ZM66.2289 12.45V12.99C66.2289 13.89 66.8889 14.34 67.8639 14.34C69.4989 14.34 70.5039 13.215 70.5039 11.655V11.19H68.0739C66.8889 11.19 66.2289 11.715 66.2289 12.45ZM74.44 15V7.245H75.265L75.4 8.7H75.49C75.97 7.71 76.96 7.095 78.13 7.095C79.78 7.095 80.83 8.28 80.83 10.185V15H79.885V10.275C79.885 8.715 79.165 7.995 77.905 7.995C76.42 7.995 75.385 9.18 75.385 10.95V15H74.44Z" fill="#EE2737"/>
</svg>
