<svg width="99" height="58" viewBox="0 0 99 58" fill="none" xmlns="http://www.w3.org/2000/svg">
<path d="M95 4.5L42 57.5H0" stroke="#EE2737"/>


<path d="M8.58 54L4.95 48.6L2.625 51.39V54H1.65V43.065H2.625V50.085L8.445 43.065H9.57L5.58 47.835L9.72 54H8.58ZM9.93457 50.085C9.93457 47.58 11.2996 46.095 13.5046 46.095C15.5596 46.095 16.8796 47.4 16.8796 49.56C16.8796 49.785 16.8646 50.085 16.8346 50.31H10.9096V50.76C10.9096 52.305 11.9446 53.34 13.5496 53.34C14.7946 53.34 15.6946 52.665 15.9646 51.705H16.9096C16.5946 53.175 15.2296 54.15 13.5046 54.15C11.2996 54.15 9.93457 52.59 9.93457 50.085ZM10.9096 49.53H15.9346V49.185C15.9346 47.82 14.9596 46.905 13.5046 46.905C11.9746 46.905 10.9096 47.865 10.9096 49.29V49.53ZM21.8175 54.15C19.7625 54.15 18.5625 52.725 18.5625 50.19C18.5625 47.655 19.7625 46.23 21.8175 46.23C23.1375 46.23 24.1425 46.785 24.6525 47.73H24.7425V43.065H25.6875V54H24.8175L24.7425 52.65H24.6525C24.1425 53.595 23.1375 54.15 21.8175 54.15ZM21.9975 53.34C23.6175 53.34 24.7425 52.29 24.7425 50.73V49.65C24.7425 48.09 23.6175 47.04 21.9975 47.04C20.4825 47.04 19.5375 47.97 19.5375 49.35V51.03C19.5375 52.41 20.4825 53.34 21.9975 53.34ZM28.5689 44.595V43.065H29.4989V44.595H28.5689ZM28.5689 54V46.245H29.4989V54H28.5689ZM33.2925 46.245H36.0075V47.055H33.3225V54H32.3775V47.115C32.3775 46.695 32.5425 46.245 33.2925 46.245ZM37.6656 44.595V43.065H38.5956V44.595H37.6656ZM37.6656 54V46.245H38.5956V54H37.6656Z" fill="#EE2737"/>
</svg>
