<svg width="124" height="39" viewBox="0 0 124 39" fill="none" xmlns="http://www.w3.org/2000/svg">
<path d="M120 4L85.5 38.5H0" stroke="#EE2737"/>
<circle cx="120" cy="4" r="4" fill="#EE2737"/>
<path d="M1.65 34V23.065H2.625V33.085H8.04V34H1.65ZM9.46582 31.78C9.46582 30.25 10.5458 29.395 12.2858 29.395H14.7158V28.75C14.7158 27.355 13.8908 26.875 12.7508 26.875C11.4308 26.875 10.7708 27.505 10.7108 28.495H9.78082C9.85582 27.025 10.9808 26.095 12.7958 26.095C15.6458 26.095 15.6458 28.36 15.6458 28.765V33.265H16.8758V34H15.6608C14.9558 34 14.7758 33.655 14.7758 33.13V32.68H14.6858C14.3258 33.565 13.2758 34.15 11.9558 34.15C10.3658 34.15 9.46582 33.205 9.46582 31.78ZM10.4408 31.45V31.99C10.4408 32.89 11.1008 33.34 12.0758 33.34C13.7108 33.34 14.7158 32.215 14.7158 30.655V30.19H12.2858C11.1008 30.19 10.4408 30.715 10.4408 31.45ZM18.6519 34V26.245H19.4619L19.5969 27.7H19.7019C20.1969 26.545 21.1269 26.095 22.1619 26.095C23.3619 26.095 24.1869 26.86 24.4419 27.82H24.5469C25.0119 26.65 25.9869 26.095 27.1419 26.095C28.7169 26.095 29.7369 27.145 29.7369 29.095V34H28.7919V29.23C28.7919 27.565 28.0419 26.92 26.9019 26.92C25.4769 26.92 24.6819 28.135 24.6819 29.965V34H23.7369V29.29C23.7369 27.685 23.0769 26.92 21.8919 26.92C20.5119 26.92 19.5969 28.135 19.5969 29.965V34H18.6519ZM32.4947 36.505V26.245H33.3647L33.4397 27.595H33.5297C34.0397 26.65 35.0447 26.095 36.3647 26.095C38.4197 26.095 39.6197 27.52 39.6197 30.055C39.6197 32.59 38.4197 34.015 36.3647 34.015C35.0447 34.015 34.0397 33.46 33.5297 32.515H33.4397V36.505H32.4947ZM36.1847 33.205C37.6997 33.205 38.6447 32.275 38.6447 30.895V29.215C38.6447 27.835 37.6997 26.905 36.1847 26.905C34.5647 26.905 33.4397 27.955 33.4397 29.515V30.595C33.4397 32.155 34.5647 33.205 36.1847 33.205ZM47.9761 26.245V34H47.1961L47.0461 32.56H46.9411C46.5211 33.49 45.5011 34.15 44.2561 34.15C42.7261 34.15 41.6911 33.145 41.6911 31.225V26.245H42.6361V31.12C42.6361 32.62 43.2961 33.325 44.4961 33.325C46.0411 33.325 47.0311 32.095 47.0311 30.295V26.245H47.9761ZM50.8492 34V26.245H51.6742L51.8092 27.7H51.8992C52.3792 26.71 53.3692 26.095 54.5392 26.095C56.1892 26.095 57.2392 27.28 57.2392 29.185V34H56.2942V29.275C56.2942 27.715 55.5742 26.995 54.3142 26.995C52.8292 26.995 51.7942 28.18 51.7942 29.95V34H50.8492ZM63.7845 32.62C65.1945 32.62 66.0345 33.325 66.0345 34.465C66.0345 35.935 64.6545 36.655 62.4495 36.655C60.2295 36.655 59.1945 35.905 59.1945 34.78C59.1945 33.955 59.6745 33.43 60.3945 33.205V33.115C59.9595 32.965 59.6595 32.56 59.6595 32.095C59.6595 31.525 60.0645 31.015 60.6495 30.865V30.775C59.9295 30.325 59.5395 29.56 59.5395 28.675C59.5395 27.13 60.7095 26.095 62.3595 26.095C62.8995 26.095 63.4095 26.2 63.7845 26.38V26.14C63.7845 25.555 64.1445 25.33 64.6845 25.33H65.9895V26.14H64.5045V26.905C64.8945 27.31 65.1795 27.955 65.1795 28.705C65.1795 30.235 64.0245 31.255 62.4345 31.255C62.0145 31.255 61.6545 31.195 61.3395 31.12C60.8145 31.18 60.5295 31.51 60.5295 31.9C60.5295 32.62 61.2795 32.62 61.6095 32.62H63.7845ZM60.4845 28.99C60.4845 29.92 61.2345 30.535 62.3595 30.535C63.4845 30.535 64.2345 29.92 64.2345 28.99V28.39C64.2345 27.46 63.4845 26.83 62.3595 26.83C61.2345 26.83 60.4845 27.46 60.4845 28.39V28.99ZM62.4945 35.905C64.3695 35.905 65.1045 35.35 65.1045 34.525C65.1045 33.46 63.9795 33.46 63.7695 33.46H61.5045C60.5295 33.46 60.0795 33.94 60.0795 34.615C60.0795 35.515 60.8595 35.905 62.4945 35.905Z" fill="#EE2737"/>
</svg>
