<svg width="102" height="54" viewBox="0 0 102 54" fill="none" xmlns="http://www.w3.org/2000/svg">
<path d="M98.5 5L50.5 53H0.5" stroke="#EE2737"/>


<path d="M4.65 48V37.065H9.645C11.655 37.065 12.54 38.175 12.54 39.84C12.54 40.995 11.985 41.925 10.965 42.315V42.435C12.225 42.75 12.81 43.755 12.81 45.135C12.81 46.86 11.625 48 9.51 48H4.65ZM5.625 41.985H9.72C10.815 41.985 11.535 41.385 11.535 40.365V39.555C11.535 38.625 10.905 37.98 9.705 37.98H5.625V41.985ZM5.625 47.085H9.57C10.89 47.085 11.775 46.44 11.775 45.465V44.58C11.775 43.5 10.995 42.9 9.84 42.9H5.625V47.085ZM14.4434 44.13C14.4434 41.55 15.9584 40.095 18.1034 40.095C20.2484 40.095 21.7634 41.55 21.7634 44.13C21.7634 46.545 20.4284 48.15 18.1034 48.15C15.7784 48.15 14.4434 46.545 14.4434 44.13ZM15.4184 44.76C15.4184 46.44 16.6634 47.34 18.1034 47.34C19.5434 47.34 20.7884 46.44 20.7884 44.76V43.56C20.7884 41.985 19.6334 40.92 18.1034 40.92C16.5734 40.92 15.4184 41.985 15.4184 43.56V44.76ZM27.7317 46.62C29.1417 46.62 29.9817 47.325 29.9817 48.465C29.9817 49.935 28.6017 50.655 26.3967 50.655C24.1767 50.655 23.1417 49.905 23.1417 48.78C23.1417 47.955 23.6217 47.43 24.3417 47.205V47.115C23.9067 46.965 23.6067 46.56 23.6067 46.095C23.6067 45.525 24.0117 45.015 24.5967 44.865V44.775C23.8767 44.325 23.4867 43.56 23.4867 42.675C23.4867 41.13 24.6567 40.095 26.3067 40.095C26.8467 40.095 27.3567 40.2 27.7317 40.38V40.14C27.7317 39.555 28.0917 39.33 28.6317 39.33H29.9367V40.14H28.4517V40.905C28.8417 41.31 29.1267 41.955 29.1267 42.705C29.1267 44.235 27.9717 45.255 26.3817 45.255C25.9617 45.255 25.6017 45.195 25.2867 45.12C24.7617 45.18 24.4767 45.51 24.4767 45.9C24.4767 46.62 25.2267 46.62 25.5567 46.62H27.7317ZM24.4317 42.99C24.4317 43.92 25.1817 44.535 26.3067 44.535C27.4317 44.535 28.1817 43.92 28.1817 42.99V42.39C28.1817 41.46 27.4317 40.83 26.3067 40.83C25.1817 40.83 24.4317 41.46 24.4317 42.39V42.99ZM26.4417 49.905C28.3167 49.905 29.0517 49.35 29.0517 48.525C29.0517 47.46 27.9267 47.46 27.7167 47.46H25.4517C24.4767 47.46 24.0267 47.94 24.0267 48.615C24.0267 49.515 24.8067 49.905 26.4417 49.905ZM31.0254 44.13C31.0254 41.55 32.5404 40.095 34.6854 40.095C36.8304 40.095 38.3454 41.55 38.3454 44.13C38.3454 46.545 37.0104 48.15 34.6854 48.15C32.3604 48.15 31.0254 46.545 31.0254 44.13ZM32.0004 44.76C32.0004 46.44 33.2454 47.34 34.6854 47.34C36.1254 47.34 37.3704 46.44 37.3704 44.76V43.56C37.3704 41.985 36.2154 40.92 34.6854 40.92C33.1554 40.92 32.0004 41.985 32.0004 43.56V44.76ZM41.4488 40.245H44.1638V41.055H41.4788V48H40.5338V41.115C40.5338 40.695 40.6988 40.245 41.4488 40.245Z" fill="#EE2737"/>
</svg>
