<svg width="135" height="98" viewBox="0 0 135 98" fill="none" xmlns="http://www.w3.org/2000/svg">
<path d="M4.5 92.9999L78 19.5H134.5" stroke="#EE2737"/>


<path d="M84.83 11.64C84.875 13.47 86.165 14.325 88.025 14.325C89.795 14.325 90.98 13.5 90.98 12.045C90.98 10.5 89.645 10.2 89.12 10.08L87.11 9.615C86.15 9.39 84.14 8.94 84.14 6.825C84.14 4.995 85.64 3.915 87.83 3.915C90.095 3.915 91.625 5.04 91.67 7.05H90.68C90.59 5.535 89.525 4.74 87.845 4.74C86.15 4.74 85.16 5.55 85.16 6.75C85.16 8.13 86.495 8.475 87.26 8.64L89.405 9.12C91.28 9.54 92.015 10.605 92.015 11.97C92.015 14.01 90.38 15.15 87.98 15.15C85.085 15.15 83.81 13.5 83.825 11.64H84.83ZM93.7842 11.085C93.7842 8.58 95.1492 7.095 97.3542 7.095C99.4092 7.095 100.729 8.4 100.729 10.56C100.729 10.785 100.714 11.085 100.684 11.31H94.7592V11.76C94.7592 13.305 95.7942 14.34 97.3992 14.34C98.6442 14.34 99.5442 13.665 99.8142 12.705H100.759C100.444 14.175 99.0792 15.15 97.3542 15.15C95.1492 15.15 93.7842 13.59 93.7842 11.085ZM94.7592 10.53H99.7842V10.185C99.7842 8.82 98.8092 7.905 97.3542 7.905C95.8242 7.905 94.7592 8.865 94.7592 10.29V10.53ZM103.871 7.245H106.586V8.055H103.901V15H102.956V8.115C102.956 7.695 103.121 7.245 103.871 7.245ZM107.1 12.78C107.1 11.25 108.18 10.395 109.92 10.395H112.35V9.75C112.35 8.355 111.525 7.875 110.385 7.875C109.065 7.875 108.405 8.505 108.345 9.495H107.415C107.49 8.025 108.615 7.095 110.43 7.095C113.28 7.095 113.28 9.36 113.28 9.765V14.265H114.51V15H113.295C112.59 15 112.41 14.655 112.41 14.13V13.68H112.32C111.96 14.565 110.91 15.15 109.59 15.15C108 15.15 107.1 14.205 107.1 12.78ZM108.075 12.45V12.99C108.075 13.89 108.735 14.34 109.71 14.34C111.345 14.34 112.35 13.215 112.35 11.655V11.19H109.92C108.735 11.19 108.075 11.715 108.075 12.45ZM116.286 15V7.245H117.111L117.246 8.7H117.336C117.816 7.71 118.806 7.095 119.976 7.095C121.626 7.095 122.676 8.28 122.676 10.185V15H121.731V10.275C121.731 8.715 121.011 7.995 119.751 7.995C118.266 7.995 117.231 9.18 117.231 10.95V15H116.286ZM129.221 13.62C130.631 13.62 131.471 14.325 131.471 15.465C131.471 16.935 130.091 17.655 127.886 17.655C125.666 17.655 124.631 16.905 124.631 15.78C124.631 14.955 125.111 14.43 125.831 14.205V14.115C125.396 13.965 125.096 13.56 125.096 13.095C125.096 12.525 125.501 12.015 126.086 11.865V11.775C125.366 11.325 124.976 10.56 124.976 9.675C124.976 8.13 126.146 7.095 127.796 7.095C128.336 7.095 128.846 7.2 129.221 7.38V7.14C129.221 6.555 129.581 6.33 130.121 6.33H131.426V7.14H129.941V7.905C130.331 8.31 130.616 8.955 130.616 9.705C130.616 11.235 129.461 12.255 127.871 12.255C127.451 12.255 127.091 12.195 126.776 12.12C126.251 12.18 125.966 12.51 125.966 12.9C125.966 13.62 126.716 13.62 127.046 13.62H129.221ZM125.921 9.99C125.921 10.92 126.671 11.535 127.796 11.535C128.921 11.535 129.671 10.92 129.671 9.99V9.39C129.671 8.46 128.921 7.83 127.796 7.83C126.671 7.83 125.921 8.46 125.921 9.39V9.99ZM127.931 16.905C129.806 16.905 130.541 16.35 130.541 15.525C130.541 14.46 129.416 14.46 129.206 14.46H126.941C125.966 14.46 125.516 14.94 125.516 15.615C125.516 16.515 126.296 16.905 127.931 16.905Z" fill="#EE2737"/>
</svg>
