<svg width="88" height="45" viewBox="0 0 88 45" fill="none" xmlns="http://www.w3.org/2000/svg">
<path d="M4 41.5L26 19.5H87.5" stroke="#EE2737"/>


<path d="M35.83 11.64C35.875 13.47 37.165 14.325 39.025 14.325C40.795 14.325 41.98 13.5 41.98 12.045C41.98 10.5 40.645 10.2 40.12 10.08L38.11 9.615C37.15 9.39 35.14 8.94 35.14 6.825C35.14 4.995 36.64 3.915 38.83 3.915C41.095 3.915 42.625 5.04 42.67 7.05H41.68C41.59 5.535 40.525 4.74 38.845 4.74C37.15 4.74 36.16 5.55 36.16 6.75C36.16 8.13 37.495 8.475 38.26 8.64L40.405 9.12C42.28 9.54 43.015 10.605 43.015 11.97C43.015 14.01 41.38 15.15 38.98 15.15C36.085 15.15 34.81 13.5 34.825 11.64H35.83ZM51.6392 7.245V15H50.8592L50.7092 13.56H50.6042C50.1842 14.49 49.1642 15.15 47.9192 15.15C46.3892 15.15 45.3542 14.145 45.3542 12.225V7.245H46.2992V12.12C46.2992 13.62 46.9592 14.325 48.1592 14.325C49.7042 14.325 50.6942 13.095 50.6942 11.295V7.245H51.6392ZM54.5123 15V4.065H55.4573V8.76H55.5473C55.9823 7.755 57.0923 7.095 58.3073 7.095C60.6023 7.095 61.6373 8.73 61.6373 11.16C61.6373 13.725 60.4373 15.15 58.2023 15.15C57.0623 15.15 56.0123 14.58 55.5473 13.65H55.4573L55.4123 15H54.5123ZM55.4573 11.73C55.4573 13.185 56.6273 14.34 58.2023 14.34C59.7173 14.34 60.6623 13.41 60.6623 12.03V10.29C60.6623 8.865 59.7173 7.92 58.2023 7.92C56.6123 7.92 55.4573 9.045 55.4573 10.59V11.73ZM63.1387 12.78C63.1387 11.25 64.2187 10.395 65.9587 10.395H68.3887V9.75C68.3887 8.355 67.5637 7.875 66.4237 7.875C65.1037 7.875 64.4437 8.505 64.3837 9.495H63.4537C63.5287 8.025 64.6537 7.095 66.4687 7.095C69.3187 7.095 69.3187 9.36 69.3187 9.765V14.265H70.5487V15H69.3337C68.6287 15 68.4487 14.655 68.4487 14.13V13.68H68.3587C67.9987 14.565 66.9487 15.15 65.6287 15.15C64.0387 15.15 63.1387 14.205 63.1387 12.78ZM64.1137 12.45V12.99C64.1137 13.89 64.7737 14.34 65.7487 14.34C67.3837 14.34 68.3887 13.215 68.3887 11.655V11.19H65.9587C64.7737 11.19 64.1137 11.715 64.1137 12.45ZM72.3248 15V7.245H73.1498L73.2848 8.7H73.3748C73.8548 7.71 74.8448 7.095 76.0148 7.095C77.6648 7.095 78.7148 8.28 78.7148 10.185V15H77.7698V10.275C77.7698 8.715 77.0498 7.995 75.7898 7.995C74.3048 7.995 73.2698 9.18 73.2698 10.95V15H72.3248ZM85.26 13.62C86.67 13.62 87.51 14.325 87.51 15.465C87.51 16.935 86.13 17.655 83.925 17.655C81.705 17.655 80.67 16.905 80.67 15.78C80.67 14.955 81.15 14.43 81.87 14.205V14.115C81.435 13.965 81.135 13.56 81.135 13.095C81.135 12.525 81.54 12.015 82.125 11.865V11.775C81.405 11.325 81.015 10.56 81.015 9.675C81.015 8.13 82.185 7.095 83.835 7.095C84.375 7.095 84.885 7.2 85.26 7.38V7.14C85.26 6.555 85.62 6.33 86.16 6.33H87.465V7.14H85.98V7.905C86.37 8.31 86.655 8.955 86.655 9.705C86.655 11.235 85.5 12.255 83.91 12.255C83.49 12.255 83.13 12.195 82.815 12.12C82.29 12.18 82.005 12.51 82.005 12.9C82.005 13.62 82.755 13.62 83.085 13.62H85.26ZM81.96 9.99C81.96 10.92 82.71 11.535 83.835 11.535C84.96 11.535 85.71 10.92 85.71 9.99V9.39C85.71 8.46 84.96 7.83 83.835 7.83C82.71 7.83 81.96 8.46 81.96 9.39V9.99ZM83.97 16.905C85.845 16.905 86.58 16.35 86.58 15.525C86.58 14.46 85.455 14.46 85.245 14.46H82.98C82.005 14.46 81.555 14.94 81.555 15.615C81.555 16.515 82.335 16.905 83.97 16.905Z" fill="#EE2737"/>
</svg>
