<svg width="193" height="96" viewBox="0 0 193 96" fill="none" xmlns="http://www.w3.org/2000/svg">
<path d="M4 4L95 95H193" stroke="#EE2737"/>


<path d="M98.65 91V80.065H103.255C105.565 80.065 106.585 81.415 106.585 83.425C106.585 85.615 105.445 86.845 103.255 86.845H99.625V91H98.65ZM99.625 85.945H103.3C104.74 85.945 105.55 85.165 105.55 83.995V82.795C105.55 81.655 104.74 81.01 103.51 81.01H99.625V85.945ZM107.594 88.78C107.594 87.25 108.674 86.395 110.414 86.395H112.844V85.75C112.844 84.355 112.019 83.875 110.879 83.875C109.559 83.875 108.899 84.505 108.839 85.495H107.909C107.984 84.025 109.109 83.095 110.924 83.095C113.774 83.095 113.774 85.36 113.774 85.765V90.265H115.004V91H113.789C113.084 91 112.904 90.655 112.904 90.13V89.68H112.814C112.454 90.565 111.404 91.15 110.084 91.15C108.494 91.15 107.594 90.205 107.594 88.78ZM108.569 88.45V88.99C108.569 89.89 109.229 90.34 110.204 90.34C111.839 90.34 112.844 89.215 112.844 87.655V87.19H110.414C109.229 87.19 108.569 87.715 108.569 88.45ZM116.78 91V80.065H117.71V91H116.78ZM119.898 88.78C119.898 87.25 120.978 86.395 122.718 86.395H125.148V85.75C125.148 84.355 124.323 83.875 123.183 83.875C121.863 83.875 121.203 84.505 121.143 85.495H120.213C120.288 84.025 121.413 83.095 123.228 83.095C126.078 83.095 126.078 85.36 126.078 85.765V90.265H127.308V91H126.093C125.388 91 125.208 90.655 125.208 90.13V89.68H125.118C124.758 90.565 123.708 91.15 122.388 91.15C120.798 91.15 119.898 90.205 119.898 88.78ZM120.873 88.45V88.99C120.873 89.89 121.533 90.34 122.508 90.34C124.143 90.34 125.148 89.215 125.148 87.655V87.19H122.718C121.533 87.19 120.873 87.715 120.873 88.45ZM129.085 91V83.245H129.91L130.045 84.7H130.135C130.615 83.71 131.605 83.095 132.775 83.095C134.425 83.095 135.475 84.28 135.475 86.185V91H134.53V86.275C134.53 84.715 133.81 83.995 132.55 83.995C131.065 83.995 130.03 85.18 130.03 86.95V91H129.085ZM142.02 89.62C143.43 89.62 144.27 90.325 144.27 91.465C144.27 92.935 142.89 93.655 140.685 93.655C138.465 93.655 137.43 92.905 137.43 91.78C137.43 90.955 137.91 90.43 138.63 90.205V90.115C138.195 89.965 137.895 89.56 137.895 89.095C137.895 88.525 138.3 88.015 138.885 87.865V87.775C138.165 87.325 137.775 86.56 137.775 85.675C137.775 84.13 138.945 83.095 140.595 83.095C141.135 83.095 141.645 83.2 142.02 83.38V83.14C142.02 82.555 142.38 82.33 142.92 82.33H144.225V83.14H142.74V83.905C143.13 84.31 143.415 84.955 143.415 85.705C143.415 87.235 142.26 88.255 140.67 88.255C140.25 88.255 139.89 88.195 139.575 88.12C139.05 88.18 138.765 88.51 138.765 88.9C138.765 89.62 139.515 89.62 139.845 89.62H142.02ZM138.72 85.99C138.72 86.92 139.47 87.535 140.595 87.535C141.72 87.535 142.47 86.92 142.47 85.99V85.39C142.47 84.46 141.72 83.83 140.595 83.83C139.47 83.83 138.72 84.46 138.72 85.39V85.99ZM140.73 92.905C142.605 92.905 143.34 92.35 143.34 91.525C143.34 90.46 142.215 90.46 142.005 90.46H139.74C138.765 90.46 138.315 90.94 138.315 91.615C138.315 92.515 139.095 92.905 140.73 92.905ZM151.237 91L148.492 86.935L147.022 88.405V91H146.077V80.065H147.022V87.22L150.937 83.245H152.182L149.152 86.275L152.332 91H151.237ZM153.341 88.78C153.341 87.25 154.421 86.395 156.161 86.395H158.591V85.75C158.591 84.355 157.766 83.875 156.626 83.875C155.306 83.875 154.646 84.505 154.586 85.495H153.656C153.731 84.025 154.856 83.095 156.671 83.095C159.521 83.095 159.521 85.36 159.521 85.765V90.265H160.751V91H159.536C158.831 91 158.651 90.655 158.651 90.13V89.68H158.561C158.201 90.565 157.151 91.15 155.831 91.15C154.241 91.15 153.341 90.205 153.341 88.78ZM154.316 88.45V88.99C154.316 89.89 154.976 90.34 155.951 90.34C157.586 90.34 158.591 89.215 158.591 87.655V87.19H156.161C154.976 87.19 154.316 87.715 154.316 88.45ZM163.442 83.245H166.157V84.055H163.472V91H162.527V84.115C162.527 83.695 162.692 83.245 163.442 83.245ZM166.671 88.78C166.671 87.25 167.751 86.395 169.491 86.395H171.921V85.75C171.921 84.355 171.096 83.875 169.956 83.875C168.636 83.875 167.976 84.505 167.916 85.495H166.986C167.061 84.025 168.186 83.095 170.001 83.095C172.851 83.095 172.851 85.36 172.851 85.765V90.265H174.081V91H172.866C172.161 91 171.981 90.655 171.981 90.13V89.68H171.891C171.531 90.565 170.481 91.15 169.161 91.15C167.571 91.15 166.671 90.205 166.671 88.78ZM167.646 88.45V88.99C167.646 89.89 168.306 90.34 169.281 90.34C170.916 90.34 171.921 89.215 171.921 87.655V87.19H169.491C168.306 87.19 167.646 87.715 167.646 88.45ZM174.227 83.245H175.307L176.492 85.855L177.887 89.02H177.977L180.602 83.245H181.667L178.412 90.145V92.62C178.412 92.995 178.322 93.505 177.557 93.505H175.607V92.695H177.482V90.115L174.227 83.245ZM182.447 88.78C182.447 87.25 183.527 86.395 185.267 86.395H187.697V85.75C187.697 84.355 186.872 83.875 185.732 83.875C184.412 83.875 183.752 84.505 183.692 85.495H182.762C182.837 84.025 183.962 83.095 185.777 83.095C188.627 83.095 188.627 85.36 188.627 85.765V90.265H189.857V91H188.642C187.937 91 187.757 90.655 187.757 90.13V89.68H187.667C187.307 90.565 186.257 91.15 184.937 91.15C183.347 91.15 182.447 90.205 182.447 88.78ZM183.422 88.45V88.99C183.422 89.89 184.082 90.34 185.057 90.34C186.692 90.34 187.697 89.215 187.697 87.655V87.19H185.267C184.082 87.19 183.422 87.715 183.422 88.45Z" fill="#EE2737"/>
</svg>
