<svg width="102" height="42" viewBox="0 0 102 42" fill="none" xmlns="http://www.w3.org/2000/svg">
<path d="M4 38.5L24.5 18H102" stroke="#EE2737"/>


<path d="M53.65 15V4.065H55.045L58.765 12.615H58.84L62.59 4.065H63.97V15H62.995V8.61L63.115 5.325H63.025L58.81 14.79L54.595 5.325H54.505L54.625 8.61V15H53.65ZM66.373 11.085C66.373 8.58 67.738 7.095 69.943 7.095C71.998 7.095 73.318 8.4 73.318 10.56C73.318 10.785 73.303 11.085 73.273 11.31H67.348V11.76C67.348 13.305 68.383 14.34 69.988 14.34C71.233 14.34 72.133 13.665 72.403 12.705H73.348C73.033 14.175 71.668 15.15 69.943 15.15C67.738 15.15 66.373 13.59 66.373 11.085ZM67.348 10.53H72.373V10.185C72.373 8.82 71.398 7.905 69.943 7.905C68.413 7.905 67.348 8.865 67.348 10.29V10.53ZM78.256 15.15C76.201 15.15 75.001 13.725 75.001 11.19C75.001 8.655 76.201 7.23 78.256 7.23C79.576 7.23 80.581 7.785 81.091 8.73H81.181V4.065H82.126V15H81.256L81.181 13.65H81.091C80.581 14.595 79.576 15.15 78.256 15.15ZM78.436 14.34C80.056 14.34 81.181 13.29 81.181 11.73V10.65C81.181 9.09 80.056 8.04 78.436 8.04C76.921 8.04 75.976 8.97 75.976 10.35V12.03C75.976 13.41 76.921 14.34 78.436 14.34ZM84.3174 12.78C84.3174 11.25 85.3974 10.395 87.1374 10.395H89.5674V9.75C89.5674 8.355 88.7424 7.875 87.6024 7.875C86.2824 7.875 85.6224 8.505 85.5624 9.495H84.6324C84.7074 8.025 85.8324 7.095 87.6474 7.095C90.4974 7.095 90.4974 9.36 90.4974 9.765V14.265H91.7274V15H90.5124C89.8074 15 89.6274 14.655 89.6274 14.13V13.68H89.5374C89.1774 14.565 88.1274 15.15 86.8074 15.15C85.2174 15.15 84.3174 14.205 84.3174 12.78ZM85.2924 12.45V12.99C85.2924 13.89 85.9524 14.34 86.9274 14.34C88.5624 14.34 89.5674 13.215 89.5674 11.655V11.19H87.1374C85.9524 11.19 85.2924 11.715 85.2924 12.45ZM93.5035 15V7.245H94.3285L94.4635 8.7H94.5535C95.0335 7.71 96.0235 7.095 97.1935 7.095C98.8435 7.095 99.8935 8.28 99.8935 10.185V15H98.9485V10.275C98.9485 8.715 98.2285 7.995 96.9685 7.995C95.4835 7.995 94.4485 9.18 94.4485 10.95V15H93.5035Z" fill="#EE2737"/>
</svg>
