<svg width="84" height="40" viewBox="0 0 84 40" fill="none" xmlns="http://www.w3.org/2000/svg">

<path d="M4 36.5L21.5 19H84" stroke="#EE2737"/>


<path d="M25.65 15V4.065H27.045L30.765 12.615H30.84L34.59 4.065H35.97V15H34.995V8.61L35.115 5.325H35.025L30.81 14.79L26.595 5.325H26.505L26.625 8.61V15H25.65ZM38.373 12.78C38.373 11.25 39.453 10.395 41.193 10.395H43.623V9.75C43.623 8.355 42.798 7.875 41.658 7.875C40.338 7.875 39.678 8.505 39.618 9.495H38.688C38.763 8.025 39.888 7.095 41.703 7.095C44.553 7.095 44.553 9.36 44.553 9.765V14.265H45.783V15H44.568C43.863 15 43.683 14.655 43.683 14.13V13.68H43.593C43.233 14.565 42.183 15.15 40.863 15.15C39.273 15.15 38.373 14.205 38.373 12.78ZM39.348 12.45V12.99C39.348 13.89 40.008 14.34 40.983 14.34C42.618 14.34 43.623 13.215 43.623 11.655V11.19H41.193C40.008 11.19 39.348 11.715 39.348 12.45ZM47.5591 15V7.245H48.3841L48.5191 8.7H48.6091C49.0891 7.71 50.0791 7.095 51.2491 7.095C52.8991 7.095 53.9491 8.28 53.9491 10.185V15H53.0041V10.275C53.0041 8.715 52.2841 7.995 51.0241 7.995C49.5391 7.995 48.5041 9.18 48.5041 10.95V15H47.5591ZM56.0244 12.78C56.0244 11.25 57.1044 10.395 58.8444 10.395H61.2744V9.75C61.2744 8.355 60.4494 7.875 59.3094 7.875C57.9894 7.875 57.3294 8.505 57.2694 9.495H56.3394C56.4144 8.025 57.5394 7.095 59.3544 7.095C62.2044 7.095 62.2044 9.36 62.2044 9.765V14.265H63.4344V15H62.2194C61.5144 15 61.3344 14.655 61.3344 14.13V13.68H61.2444C60.8844 14.565 59.8344 15.15 58.5144 15.15C56.9244 15.15 56.0244 14.205 56.0244 12.78ZM56.9994 12.45V12.99C56.9994 13.89 57.6594 14.34 58.6344 14.34C60.2694 14.34 61.2744 13.215 61.2744 11.655V11.19H58.8444C57.6594 11.19 56.9994 11.715 56.9994 12.45ZM67.7755 15.15C65.7205 15.15 64.5205 13.725 64.5205 11.19C64.5205 8.655 65.7205 7.23 67.7755 7.23C69.0955 7.23 70.1005 7.785 70.6105 8.73H70.7005V4.065H71.6455V15H70.7755L70.7005 13.65H70.6105C70.1005 14.595 69.0955 15.15 67.7755 15.15ZM67.9555 14.34C69.5755 14.34 70.7005 13.29 70.7005 11.73V10.65C70.7005 9.09 69.5755 8.04 67.9555 8.04C66.4405 8.04 65.4955 8.97 65.4955 10.35V12.03C65.4955 13.41 66.4405 14.34 67.9555 14.34ZM73.8369 11.13C73.8369 8.55 75.3519 7.095 77.4969 7.095C79.6419 7.095 81.1569 8.55 81.1569 11.13C81.1569 13.545 79.8219 15.15 77.4969 15.15C75.1719 15.15 73.8369 13.545 73.8369 11.13ZM74.8119 11.76C74.8119 13.44 76.0569 14.34 77.4969 14.34C78.9369 14.34 80.1819 13.44 80.1819 11.76V10.56C80.1819 8.985 79.0269 7.92 77.4969 7.92C75.9669 7.92 74.8119 8.985 74.8119 10.56V11.76Z" fill="#EE2737"/>
</svg>
