<svg width="86" height="21" viewBox="0 0 86 21" fill="none" xmlns="http://www.w3.org/2000/svg">
<path d="M82 4.5L66 20.5H0" stroke="#EE2737"/>


<path d="M3.65 17V6.065H5.045L8.765 14.615H8.84L12.59 6.065H13.97V17H12.995V10.61L13.115 7.325H13.025L8.81 16.79L4.595 7.325H4.505L4.625 10.61V17H3.65ZM16.373 14.78C16.373 13.25 17.453 12.395 19.193 12.395H21.623V11.75C21.623 10.355 20.798 9.875 19.658 9.875C18.338 9.875 17.678 10.505 17.618 11.495H16.688C16.763 10.025 17.888 9.095 19.703 9.095C22.553 9.095 22.553 11.36 22.553 11.765V16.265H23.783V17H22.568C21.863 17 21.683 16.655 21.683 16.13V15.68H21.593C21.233 16.565 20.183 17.15 18.863 17.15C17.273 17.15 16.373 16.205 16.373 14.78ZM17.348 14.45V14.99C17.348 15.89 18.008 16.34 18.983 16.34C20.618 16.34 21.623 15.215 21.623 13.655V13.19H19.193C18.008 13.19 17.348 13.715 17.348 14.45ZM25.5591 17V9.245H26.3691L26.5041 10.7H26.6091C27.1041 9.545 28.0341 9.095 29.0691 9.095C30.2691 9.095 31.0941 9.86 31.3491 10.82H31.4541C31.9191 9.65 32.8941 9.095 34.0491 9.095C35.6241 9.095 36.6441 10.145 36.6441 12.095V17H35.6991V12.23C35.6991 10.565 34.9491 9.92 33.8091 9.92C32.3841 9.92 31.5891 11.135 31.5891 12.965V17H30.6441V12.29C30.6441 10.685 29.9841 9.92 28.7991 9.92C27.4191 9.92 26.5041 11.135 26.5041 12.965V17H25.5591ZM45.4204 9.245V17H44.6404L44.4904 15.56H44.3854C43.9654 16.49 42.9454 17.15 41.7004 17.15C40.1704 17.15 39.1354 16.145 39.1354 14.225V9.245H40.0804V14.12C40.0804 15.62 40.7404 16.325 41.9404 16.325C43.4854 16.325 44.4754 15.095 44.4754 13.295V9.245H45.4204ZM48.9276 6.065H49.8576V7.595H48.9276V6.065ZM48.9276 9.245H49.8576V18.62C49.8576 18.815 49.8576 19.505 48.9576 19.505H47.1726V18.71H48.9276V9.245ZM58.897 9.245V17H58.117L57.967 15.56H57.862C57.442 16.49 56.422 17.15 55.177 17.15C53.647 17.15 52.612 16.145 52.612 14.225V9.245H53.557V14.12C53.557 15.62 54.217 16.325 55.417 16.325C56.962 16.325 57.952 15.095 57.952 13.295V9.245H58.897Z" fill="#EE2737"/>
</svg>
