<svg width="113" height="59" viewBox="0 0 113 59" fill="none" xmlns="http://www.w3.org/2000/svg">
<path d="M4 55.5L41 18.5L112.5 18.5" stroke="#EE2737"/>


<path d="M47.83 11.64C47.875 13.47 49.165 14.325 51.025 14.325C52.795 14.325 53.98 13.5 53.98 12.045C53.98 10.5 52.645 10.2 52.12 10.08L50.11 9.615C49.15 9.39 47.14 8.94 47.14 6.825C47.14 4.995 48.64 3.915 50.83 3.915C53.095 3.915 54.625 5.04 54.67 7.05H53.68C53.59 5.535 52.525 4.74 50.845 4.74C49.15 4.74 48.16 5.55 48.16 6.75C48.16 8.13 49.495 8.475 50.26 8.64L52.405 9.12C54.28 9.54 55.015 10.605 55.015 11.97C55.015 14.01 53.38 15.15 50.98 15.15C48.085 15.15 46.81 13.5 46.825 11.64H47.83ZM63.6392 7.245V15H62.8592L62.7092 13.56H62.6042C62.1842 14.49 61.1642 15.15 59.9192 15.15C58.3892 15.15 57.3542 14.145 57.3542 12.225V7.245H58.2992V12.12C58.2992 13.62 58.9592 14.325 60.1592 14.325C61.7042 14.325 62.6942 13.095 62.6942 11.295V7.245H63.6392ZM67.4273 7.245H70.1423V8.055H67.4573V15H66.5123V8.115C66.5123 7.695 66.6773 7.245 67.4273 7.245ZM70.6563 12.78C70.6563 11.25 71.7363 10.395 73.4763 10.395H75.9063V9.75C75.9063 8.355 75.0813 7.875 73.9413 7.875C72.6213 7.875 71.9613 8.505 71.9013 9.495H70.9713C71.0463 8.025 72.1713 7.095 73.9863 7.095C76.8363 7.095 76.8363 9.36 76.8363 9.765V14.265H78.0663V15H76.8513C76.1463 15 75.9663 14.655 75.9663 14.13V13.68H75.8763C75.5163 14.565 74.4663 15.15 73.1463 15.15C71.5563 15.15 70.6563 14.205 70.6563 12.78ZM71.6313 12.45V12.99C71.6313 13.89 72.2913 14.34 73.2663 14.34C74.9013 14.34 75.9063 13.215 75.9063 11.655V11.19H73.4763C72.2913 11.19 71.6313 11.715 71.6313 12.45ZM79.8423 15V4.065H80.7873V8.76H80.8773C81.3123 7.755 82.4223 7.095 83.6373 7.095C85.9323 7.095 86.9673 8.73 86.9673 11.16C86.9673 13.725 85.7673 15.15 83.5323 15.15C82.3923 15.15 81.3423 14.58 80.8773 13.65H80.7873L80.7423 15H79.8423ZM80.7873 11.73C80.7873 13.185 81.9573 14.34 83.5323 14.34C85.0473 14.34 85.9923 13.41 85.9923 12.03V10.29C85.9923 8.865 85.0473 7.92 83.5323 7.92C81.9423 7.92 80.7873 9.045 80.7873 10.59V11.73ZM88.4688 12.78C88.4688 11.25 89.5488 10.395 91.2888 10.395H93.7188V9.75C93.7188 8.355 92.8938 7.875 91.7538 7.875C90.4338 7.875 89.7738 8.505 89.7138 9.495H88.7838C88.8588 8.025 89.9838 7.095 91.7988 7.095C94.6488 7.095 94.6488 9.36 94.6488 9.765V14.265H95.8788V15H94.6638C93.9588 15 93.7788 14.655 93.7788 14.13V13.68H93.6888C93.3288 14.565 92.2788 15.15 90.9588 15.15C89.3688 15.15 88.4688 14.205 88.4688 12.78ZM89.4438 12.45V12.99C89.4438 13.89 90.1038 14.34 91.0788 14.34C92.7138 14.34 93.7188 13.215 93.7188 11.655V11.19H91.2888C90.1038 11.19 89.4438 11.715 89.4438 12.45ZM96.0251 7.245H97.1051L98.2901 9.855L99.6851 13.02H99.7751L102.4 7.245H103.465L100.21 14.145V16.62C100.21 16.995 100.12 17.505 99.3551 17.505H97.4051V16.695H99.2801V14.115L96.0251 7.245ZM104.245 12.78C104.245 11.25 105.325 10.395 107.065 10.395H109.495V9.75C109.495 8.355 108.67 7.875 107.53 7.875C106.21 7.875 105.55 8.505 105.49 9.495H104.56C104.635 8.025 105.76 7.095 107.575 7.095C110.425 7.095 110.425 9.36 110.425 9.765V14.265H111.655V15H110.44C109.735 15 109.555 14.655 109.555 14.13V13.68H109.465C109.105 14.565 108.055 15.15 106.735 15.15C105.145 15.15 104.245 14.205 104.245 12.78ZM105.22 12.45V12.99C105.22 13.89 105.88 14.34 106.855 14.34C108.49 14.34 109.495 13.215 109.495 11.655V11.19H107.065C105.88 11.19 105.22 11.715 105.22 12.45Z" fill="#EE2737"/>
</svg>
