<svg width="78" height="44" viewBox="0 0 78 44" fill="none" xmlns="http://www.w3.org/2000/svg">
<path d="M73.5 5L35 43.5H0" stroke="#EE2737"/>


<path d="M5.65 40V29.065H10.645C12.655 29.065 13.54 30.175 13.54 31.84C13.54 32.995 12.985 33.925 11.965 34.315V34.435C13.225 34.75 13.81 35.755 13.81 37.135C13.81 38.86 12.625 40 10.51 40H5.65ZM6.625 33.985H10.72C11.815 33.985 12.535 33.385 12.535 32.365V31.555C12.535 30.625 11.905 29.98 10.705 29.98H6.625V33.985ZM6.625 39.085H10.57C11.89 39.085 12.775 38.44 12.775 37.465V36.58C12.775 35.5 11.995 34.9 10.84 34.9H6.625V39.085ZM15.4434 37.78C15.4434 36.25 16.5234 35.395 18.2634 35.395H20.6934V34.75C20.6934 33.355 19.8684 32.875 18.7284 32.875C17.4084 32.875 16.7484 33.505 16.6884 34.495H15.7584C15.8334 33.025 16.9584 32.095 18.7734 32.095C21.6234 32.095 21.6234 34.36 21.6234 34.765V39.265H22.8534V40H21.6384C20.9334 40 20.7534 39.655 20.7534 39.13V38.68H20.6634C20.3034 39.565 19.2534 40.15 17.9334 40.15C16.3434 40.15 15.4434 39.205 15.4434 37.78ZM16.4184 37.45V37.99C16.4184 38.89 17.0784 39.34 18.0534 39.34C19.6884 39.34 20.6934 38.215 20.6934 36.655V36.19H18.2634C17.0784 36.19 16.4184 36.715 16.4184 37.45ZM24.6295 40V29.065H25.5595V40H24.6295ZM28.438 30.595V29.065H29.368V30.595H28.438ZM28.438 40V32.245H29.368V40H28.438Z" fill="#EE2737"/>
</svg>
