<svg width="134" height="58" viewBox="0 0 134 58" fill="none" xmlns="http://www.w3.org/2000/svg">
<path d="M130 4L76.5 57.5H0" stroke="#EE2737"/>
<circle cx="130" cy="4" r="4" fill="#EE2737"/>
<path d="M1.65 54V43.065H6.255C8.565 43.065 9.585 44.415 9.585 46.425C9.585 48.615 8.445 49.845 6.255 49.845H2.625V54H1.65ZM2.625 48.945H6.3C7.74 48.945 8.55 48.165 8.55 46.995V45.795C8.55 44.655 7.74 44.01 6.51 44.01H2.625V48.945ZM10.5938 51.78C10.5938 50.25 11.6738 49.395 13.4138 49.395H15.8438V48.75C15.8438 47.355 15.0188 46.875 13.8788 46.875C12.5588 46.875 11.8988 47.505 11.8388 48.495H10.9088C10.9838 47.025 12.1088 46.095 13.9238 46.095C16.7738 46.095 16.7738 48.36 16.7738 48.765V53.265H18.0038V54H16.7888C16.0838 54 15.9038 53.655 15.9038 53.13V52.68H15.8138C15.4538 53.565 14.4038 54.15 13.0838 54.15C11.4938 54.15 10.5938 53.205 10.5938 51.78ZM11.5688 51.45V51.99C11.5688 52.89 12.2288 53.34 13.2038 53.34C14.8388 53.34 15.8438 52.215 15.8438 50.655V50.19H13.4138C12.2288 50.19 11.5688 50.715 11.5688 51.45ZM22.3448 54.15C20.2898 54.15 19.0898 52.725 19.0898 50.19C19.0898 47.655 20.2898 46.23 22.3448 46.23C23.6648 46.23 24.6698 46.785 25.1798 47.73H25.2698V43.065H26.2148V54H25.3448L25.2698 52.65H25.1798C24.6698 53.595 23.6648 54.15 22.3448 54.15ZM22.5248 53.34C24.1448 53.34 25.2698 52.29 25.2698 50.73V49.65C25.2698 48.09 24.1448 47.04 22.5248 47.04C21.0098 47.04 20.0648 47.97 20.0648 49.35V51.03C20.0648 52.41 21.0098 53.34 22.5248 53.34ZM28.4063 51.78C28.4063 50.25 29.4863 49.395 31.2263 49.395H33.6563V48.75C33.6563 47.355 32.8313 46.875 31.6913 46.875C30.3713 46.875 29.7113 47.505 29.6513 48.495H28.7213C28.7963 47.025 29.9213 46.095 31.7363 46.095C34.5863 46.095 34.5863 48.36 34.5863 48.765V53.265H35.8163V54H34.6013C33.8963 54 33.7163 53.655 33.7163 53.13V52.68H33.6263C33.2663 53.565 32.2163 54.15 30.8963 54.15C29.3063 54.15 28.4063 53.205 28.4063 51.78ZM29.3813 51.45V51.99C29.3813 52.89 30.0413 53.34 31.0163 53.34C32.6513 53.34 33.6563 52.215 33.6563 50.655V50.19H31.2263C30.0413 50.19 29.3813 50.715 29.3813 51.45ZM37.5923 54V46.245H38.4173L38.5523 47.7H38.6423C39.1223 46.71 40.1123 46.095 41.2823 46.095C42.9323 46.095 43.9823 47.28 43.9823 49.185V54H43.0373V49.275C43.0373 47.715 42.3173 46.995 41.0573 46.995C39.5723 46.995 38.5373 48.18 38.5373 49.95V54H37.5923ZM50.5276 52.62C51.9376 52.62 52.7776 53.325 52.7776 54.465C52.7776 55.935 51.3976 56.655 49.1926 56.655C46.9726 56.655 45.9376 55.905 45.9376 54.78C45.9376 53.955 46.4176 53.43 47.1376 53.205V53.115C46.7026 52.965 46.4026 52.56 46.4026 52.095C46.4026 51.525 46.8076 51.015 47.3926 50.865V50.775C46.6726 50.325 46.2826 49.56 46.2826 48.675C46.2826 47.13 47.4526 46.095 49.1026 46.095C49.6426 46.095 50.1526 46.2 50.5276 46.38V46.14C50.5276 45.555 50.8876 45.33 51.4276 45.33H52.7326V46.14H51.2476V46.905C51.6376 47.31 51.9226 47.955 51.9226 48.705C51.9226 50.235 50.7676 51.255 49.1776 51.255C48.7576 51.255 48.3976 51.195 48.0826 51.12C47.5576 51.18 47.2726 51.51 47.2726 51.9C47.2726 52.62 48.0226 52.62 48.3526 52.62H50.5276ZM47.2276 48.99C47.2276 49.92 47.9776 50.535 49.1026 50.535C50.2276 50.535 50.9776 49.92 50.9776 48.99V48.39C50.9776 47.46 50.2276 46.83 49.1026 46.83C47.9776 46.83 47.2276 47.46 47.2276 48.39V48.99ZM49.2376 55.905C51.1126 55.905 51.8476 55.35 51.8476 54.525C51.8476 53.46 50.7226 53.46 50.5126 53.46H48.2476C47.2726 53.46 46.8226 53.94 46.8226 54.615C46.8226 55.515 47.6026 55.905 49.2376 55.905Z" fill="#EE2737"/>
</svg>
