<svg width="85" height="37" viewBox="0 0 85 37" fill="none" xmlns="http://www.w3.org/2000/svg">
<path d="M4 33L18.5 18.5H85" stroke="#EE2737"/>


<path d="M24.24 4.065H25.185V14.115C25.185 14.34 25.17 15 24.285 15H21.24V14.085H24.24V4.065ZM27.5068 12.78C27.5068 11.25 28.5868 10.395 30.3268 10.395H32.7568V9.75C32.7568 8.355 31.9318 7.875 30.7918 7.875C29.4718 7.875 28.8118 8.505 28.7518 9.495H27.8218C27.8968 8.025 29.0218 7.095 30.8368 7.095C33.6868 7.095 33.6868 9.36 33.6868 9.765V14.265H34.9168V15H33.7018C32.9968 15 32.8168 14.655 32.8168 14.13V13.68H32.7268C32.3668 14.565 31.3168 15.15 29.9968 15.15C28.4068 15.15 27.5068 14.205 27.5068 12.78ZM28.4818 12.45V12.99C28.4818 13.89 29.1418 14.34 30.1168 14.34C31.7518 14.34 32.7568 13.215 32.7568 11.655V11.19H30.3268C29.1418 11.19 28.4818 11.715 28.4818 12.45ZM35.0632 7.245H36.1432L37.3282 9.855L38.7232 13.02H38.8132L41.4382 7.245H42.5032L39.2482 14.145V16.62C39.2482 16.995 39.1582 17.505 38.3932 17.505H36.4432V16.695H38.3182V14.115L35.0632 7.245ZM43.2832 12.78C43.2832 11.25 44.3632 10.395 46.1032 10.395H48.5332V9.75C48.5332 8.355 47.7082 7.875 46.5682 7.875C45.2482 7.875 44.5882 8.505 44.5282 9.495H43.5982C43.6732 8.025 44.7982 7.095 46.6132 7.095C49.4632 7.095 49.4632 9.36 49.4632 9.765V14.265H50.6932V15H49.4782C48.7732 15 48.5932 14.655 48.5932 14.13V13.68H48.5032C48.1432 14.565 47.0932 15.15 45.7732 15.15C44.1832 15.15 43.2832 14.205 43.2832 12.78ZM44.2582 12.45V12.99C44.2582 13.89 44.9182 14.34 45.8932 14.34C47.5282 14.34 48.5332 13.215 48.5332 11.655V11.19H46.1032C44.9182 11.19 44.2582 11.715 44.2582 12.45ZM52.4693 17.505V7.245H53.3393L53.4143 8.595H53.5043C54.0143 7.65 55.0193 7.095 56.3393 7.095C58.3943 7.095 59.5943 8.52 59.5943 11.055C59.5943 13.59 58.3943 15.015 56.3393 15.015C55.0193 15.015 54.0143 14.46 53.5043 13.515H53.4143V17.505H52.4693ZM56.1593 14.205C57.6743 14.205 58.6193 13.275 58.6193 11.895V10.215C58.6193 8.835 57.6743 7.905 56.1593 7.905C54.5393 7.905 53.4143 8.955 53.4143 10.515V11.595C53.4143 13.155 54.5393 14.205 56.1593 14.205ZM67.9507 7.245V15H67.1707L67.0207 13.56H66.9157C66.4957 14.49 65.4757 15.15 64.2307 15.15C62.7007 15.15 61.6657 14.145 61.6657 12.225V7.245H62.6107V12.12C62.6107 13.62 63.2707 14.325 64.4707 14.325C66.0157 14.325 67.0057 13.095 67.0057 11.295V7.245H67.9507ZM71.7388 7.245H74.4538V8.055H71.7688V15H70.8238V8.115C70.8238 7.695 70.9888 7.245 71.7388 7.245ZM74.9678 12.78C74.9678 11.25 76.0478 10.395 77.7878 10.395H80.2178V9.75C80.2178 8.355 79.3928 7.875 78.2528 7.875C76.9328 7.875 76.2728 8.505 76.2128 9.495H75.2828C75.3578 8.025 76.4828 7.095 78.2978 7.095C81.1478 7.095 81.1478 9.36 81.1478 9.765V14.265H82.3778V15H81.1628C80.4578 15 80.2778 14.655 80.2778 14.13V13.68H80.1878C79.8278 14.565 78.7778 15.15 77.4578 15.15C75.8678 15.15 74.9678 14.205 74.9678 12.78ZM75.9428 12.45V12.99C75.9428 13.89 76.6028 14.34 77.5778 14.34C79.2128 14.34 80.2178 13.215 80.2178 11.655V11.19H77.7878C76.6028 11.19 75.9428 11.715 75.9428 12.45Z" fill="#EE2737"/>
</svg>
